<svg width="17" height="18" viewBox="0 0 17 18" fill="none" xmlns="http://www.w3.org/2000/svg">
<path d="M2.69655 5.00958C2.48133 4.9528 2.30245 4.80335 2.20829 4.60167C2.11413 4.39998 2.11441 4.16689 2.20907 3.96543L3.86983 0.431044C3.99359 0.167659 4.25854 -0.000358703 4.54955 5.75054e-07C4.84057 0.000361176 5.1051 0.169034 5.22821 0.432725L5.96084 2.00196C5.98703 1.99167 6.01407 1.98274 6.04191 1.97528C10.3893 0.810413 14.8578 3.39032 16.0227 7.73767C17.1875 12.085 14.6076 16.5536 10.2603 17.7184C5.91292 18.8833 1.44438 16.3034 0.279515 11.956C-0.0909075 10.5736 -0.0825743 9.17671 0.241859 7.87798C0.342248 7.47611 0.749404 7.23172 1.15127 7.33211C1.55313 7.43249 1.79753 7.83965 1.69714 8.24152C1.43284 9.29951 1.42556 10.4376 1.7284 11.5678C2.67886 15.115 6.32489 17.22 9.87204 16.2695C13.4192 15.3191 15.5242 11.673 14.5738 8.1259C13.6389 4.63675 10.0958 2.54294 6.60419 3.37999L7.34339 4.96329C7.46649 5.22698 7.42595 5.53809 7.23937 5.76142C7.05279 5.98475 6.75387 6.07999 6.47248 6.00575L2.69655 5.00958Z" fill="#0B0E44"/>
</svg>
