<svg width="73" height="72" viewBox="0 0 73 72" fill="none" xmlns="http://www.w3.org/2000/svg">
<path d="M6.77344 10.7998H4.77344C4.22344 10.7998 3.77344 10.3498 3.77344 9.7998C3.77344 9.2498 4.22344 8.7998 4.77344 8.7998H6.77344C7.32344 8.7998 7.77344 9.2498 7.77344 9.7998C7.77344 10.3498 7.32344 10.7998 6.77344 10.7998Z" fill="#3395EF"/>
<path d="M55.8572 10.7998H51.7672C51.2172 10.7998 50.7672 10.3498 50.7672 9.7998C50.7672 9.2498 51.2172 8.7998 51.7672 8.7998H55.8572C56.4072 8.7998 56.8572 9.2498 56.8572 9.7998C56.8572 10.3498 56.4072 10.7998 55.8572 10.7998ZM47.6771 10.7998H43.5872C43.0372 10.7998 42.5872 10.3498 42.5872 9.7998C42.5872 9.2498 43.0372 8.7998 43.5872 8.7998H47.6771C48.2271 8.7998 48.6771 9.2498 48.6771 9.7998C48.6771 10.3498 48.2271 10.7998 47.6771 10.7998ZM39.4972 10.7998H35.4072C34.8572 10.7998 34.4072 10.3498 34.4072 9.7998C34.4072 9.2498 34.8572 8.7998 35.4072 8.7998H39.4972C40.0472 8.7998 40.4972 9.2498 40.4972 9.7998C40.4972 10.3498 40.0472 10.7998 39.4972 10.7998ZM31.3171 10.7998H27.2272C26.6772 10.7998 26.2272 10.3498 26.2272 9.7998C26.2272 9.2498 26.6772 8.7998 27.2272 8.7998H31.3171C31.8671 8.7998 32.3171 9.2498 32.3171 9.7998C32.3171 10.3498 31.8671 10.7998 31.3171 10.7998ZM23.1372 10.7998H19.0471C18.4971 10.7998 18.0471 10.3498 18.0471 9.7998C18.0471 9.2498 18.4971 8.7998 19.0471 8.7998H23.1372C23.6872 8.7998 24.1372 9.2498 24.1372 9.7998C24.1372 10.3498 23.6872 10.7998 23.1372 10.7998ZM14.9572 10.7998H10.8672C10.3172 10.7998 9.86719 10.3498 9.86719 9.7998C9.86719 9.2498 10.3172 8.7998 10.8672 8.7998H14.9572C15.5072 8.7998 15.9572 9.2498 15.9572 9.7998C15.9572 10.3498 15.5072 10.7998 14.9572 10.7998Z" fill="#3395EF"/>
<path d="M61.9453 12.7998C61.3953 12.7998 60.9453 12.3498 60.9453 11.7998V10.7998H59.9453C59.3953 10.7998 58.9453 10.3498 58.9453 9.7998C58.9453 9.2498 59.3953 8.7998 59.9453 8.7998H61.9453C62.4953 8.7998 62.9453 9.2498 62.9453 9.7998V11.7998C62.9453 12.3498 62.4953 12.7998 61.9453 12.7998Z" fill="#3395EF"/>
<path d="M61.9453 61.8796C61.3953 61.8796 60.9453 61.4296 60.9453 60.8796V56.7897C60.9453 56.2397 61.3953 55.7897 61.9453 55.7897C62.4953 55.7897 62.9453 56.2397 62.9453 56.7897V60.8796C62.9453 61.4296 62.4953 61.8796 61.9453 61.8796ZM61.9453 53.6997C61.3953 53.6997 60.9453 53.2497 60.9453 52.6997V48.6096C60.9453 48.0596 61.3953 47.6096 61.9453 47.6096C62.4953 47.6096 62.9453 48.0596 62.9453 48.6096V52.6997C62.9453 53.2497 62.4953 53.6997 61.9453 53.6997ZM61.9453 45.5197C61.3953 45.5197 60.9453 45.0697 60.9453 44.5197V40.4297C60.9453 39.8797 61.3953 39.4297 61.9453 39.4297C62.4953 39.4297 62.9453 39.8797 62.9453 40.4297V44.5197C62.9453 45.0697 62.4953 45.5197 61.9453 45.5197ZM61.9453 37.3397C61.3953 37.3397 60.9453 36.8897 60.9453 36.3397V32.2496C60.9453 31.6996 61.3953 31.2496 61.9453 31.2496C62.4953 31.2496 62.9453 31.6996 62.9453 32.2496V36.3397C62.9453 36.8897 62.4953 37.3397 61.9453 37.3397ZM61.9453 29.1597C61.3953 29.1597 60.9453 28.7097 60.9453 28.1597V24.0697C60.9453 23.5197 61.3953 23.0697 61.9453 23.0697C62.4953 23.0697 62.9453 23.5197 62.9453 24.0697V28.1597C62.9453 28.7097 62.4953 29.1597 61.9453 29.1597ZM61.9453 20.9796C61.3953 20.9796 60.9453 20.5296 60.9453 19.9796V15.8896C60.9453 15.3396 61.3953 14.8896 61.9453 14.8896C62.4953 14.8896 62.9453 15.3396 62.9453 15.8896V19.9796C62.9453 20.5296 62.4953 20.9796 61.9453 20.9796Z" fill="#3395EF"/>
<path d="M61.9453 67.9697C61.3953 67.9697 60.9453 67.5197 60.9453 66.9697V64.9697C60.9453 64.4197 61.3953 63.9697 61.9453 63.9697C62.4953 63.9697 62.9453 64.4197 62.9453 64.9697V66.9697C62.9453 67.5197 62.4953 67.9697 61.9453 67.9697Z" fill="#3395EF"/>
<path d="M70.6498 67.9701H4.67969C4.12969 67.9701 3.67969 67.5201 3.67969 66.9701V1C3.67969 0.45 4.12969 0 4.67969 0C5.22969 0 5.67969 0.45 5.67969 1V65.9701H70.6498C71.1998 65.9701 71.6498 66.4201 71.6498 66.9701C71.6498 67.5201 71.1998 67.9701 70.6498 67.9701Z" fill="#3395EF"/>
<path d="M8.3926 5.70034C8.1326 5.70034 7.88251 5.6003 7.68251 5.4103L4.69252 2.42031L1.70253 5.4103C1.31253 5.8003 0.6825 5.8003 0.2925 5.4103C-0.0975 5.0203 -0.0975 4.39026 0.2925 4.00026L3.99257 0.300312C4.38257 -0.0896875 5.01261 -0.0896875 5.40261 0.300312L9.10256 4.00026C9.49256 4.39026 9.49256 5.0203 9.10256 5.4103C8.90256 5.6103 8.6526 5.70034 8.3926 5.70034Z" fill="#3395EF"/>
<path d="M67.8854 71.8805C67.6254 71.8805 67.3753 71.7806 67.1753 71.5906C66.7853 71.2006 66.7853 70.5706 67.1753 70.1806L70.1653 67.1906L67.1753 64.2006C66.7853 63.8106 66.7853 63.1805 67.1753 62.7905C67.5653 62.4005 68.1953 62.4005 68.5853 62.7905L72.2853 66.4905C72.6753 66.8805 72.6753 67.5105 72.2853 67.9005L68.5853 71.6006C68.3853 71.8006 68.1354 71.8905 67.8754 71.8905L67.8854 71.8805Z" fill="#3395EF"/>
<path d="M26.19 42.5797C26.19 43.0297 25.8301 43.2496 25.1101 43.2496C24.3901 43.2496 24.03 43.0297 24.03 42.5797V32.4097L21.5901 32.7396C21.3901 32.7596 21.2301 32.6997 21.1001 32.5797C20.9701 32.4597 20.9001 32.2397 20.8701 31.9097C20.7801 31.2797 20.92 30.9396 21.3 30.8796L23.7701 30.5197C24.3101 30.4297 24.8301 30.3896 25.3401 30.3896C25.9001 30.3896 26.17 30.6197 26.17 31.0797L26.19 42.5897V42.5797Z" fill="#3395EF"/>
<path d="M35.8025 43.2395C35.1325 43.2395 34.7925 43.0196 34.7925 42.5896V36.7996C34.7925 36.3296 34.6825 35.9696 34.4625 35.7196C34.2425 35.4696 33.9425 35.3396 33.5625 35.3396C32.7525 35.3396 32.3325 35.8396 32.3325 36.8496V42.5896C32.3325 43.0196 31.9925 43.2395 31.3225 43.2395C30.6525 43.2395 30.3125 43.0196 30.3125 42.5896V36.8895C30.3125 35.8595 30.6225 35.0496 31.2125 34.4696C31.8025 33.8896 32.5625 33.5996 33.4825 33.5996C34.4925 33.5996 35.2725 33.9595 35.8225 34.6595C36.3825 33.9595 37.1525 33.5996 38.1625 33.5996C39.0825 33.5996 39.8425 33.8896 40.4325 34.4696C41.0225 35.0496 41.3325 35.8395 41.3325 36.8695V42.5696C41.3325 42.9996 40.9925 43.2196 40.3225 43.2196C39.6525 43.2196 39.3125 42.9996 39.3125 42.5696V36.8296C39.3125 35.8196 38.8925 35.3096 38.0825 35.3096C37.7025 35.3096 37.3925 35.4396 37.1825 35.6896C36.9625 35.9396 36.8625 36.2995 36.8625 36.7695V42.5596C36.8625 42.9896 36.5225 43.2096 35.8525 43.2096L35.7825 43.2295L35.8025 43.2395Z" fill="#3395EF"/>
<path d="M47.9377 37.1799C48.2677 37.1799 48.4277 37.4099 48.4277 37.8999C48.4277 38.3899 48.2677 38.6399 47.9377 38.6399H43.8278C43.4878 38.6399 43.3278 38.46 43.3278 38.1V37.1399C43.3278 36.4899 43.4877 35.9699 43.8177 35.5699C44.1477 35.1699 44.6678 34.8299 45.3678 34.5199C45.9278 34.2899 46.3078 34.0499 46.5078 33.8199C46.7078 33.5799 46.8177 33.2799 46.8177 32.8999V32.6799C46.8177 32.0699 46.4878 31.7599 45.8478 31.7599C45.5378 31.7599 45.3078 31.8499 45.1478 32.0099C44.9878 32.1699 44.9177 32.3899 44.9177 32.6399V32.6799C44.9177 33.0399 44.6478 33.22 44.1078 33.22C43.5678 33.22 43.2578 33.0399 43.2578 32.6799V32.4799C43.2578 31.8499 43.4878 31.3099 43.9578 30.8599C44.4278 30.4099 45.0578 30.1699 45.8378 30.1699C46.6678 30.1699 47.3177 30.39 47.7877 30.84C48.2577 31.29 48.4878 31.8499 48.4878 32.5399V32.8999C48.4878 34.1399 47.8777 35.0299 46.6677 35.5499C46.0677 35.7999 45.6778 36.02 45.4778 36.22C45.2778 36.42 45.1677 36.6499 45.1677 36.9399V37.1199L47.9578 37.1699L47.9377 37.1799Z" fill="#3395EF"/>
</svg>
