<svg width="74" height="70" viewBox="0 0 74 70" fill="none" xmlns="http://www.w3.org/2000/svg">
<path d="M23.8453 36.5333V39.9833C23.8453 40.3833 23.5253 40.5732 22.8953 40.5732C22.2653 40.5732 21.9453 40.3833 21.9453 39.9833V32.7533C21.9453 31.6633 22.3053 30.7733 23.0353 30.1133C23.7653 29.4533 24.6653 29.1133 25.7353 29.1133C26.8053 29.1133 27.7153 29.4433 28.4453 30.1133C29.1753 30.7833 29.5353 31.6633 29.5353 32.7533V39.9833C29.5353 40.3833 29.2153 40.5732 28.5853 40.5732C27.9553 40.5732 27.6353 40.3833 27.6353 39.9833V36.5333H23.8353H23.8453ZM27.6053 34.9232V32.8232C27.6053 32.1732 27.4353 31.6732 27.0853 31.2932C26.7353 30.9132 26.2753 30.7233 25.7253 30.7233C25.1753 30.7233 24.7153 30.9132 24.3653 31.2932C24.0153 31.6732 23.8453 32.1832 23.8453 32.8232V34.9232H27.6053Z" fill="#3395EF"/>
<path d="M33.8441 36.9329C33.8441 37.5829 34.0141 38.0829 34.3641 38.4629C34.7141 38.8429 35.1741 39.033 35.7241 39.033C36.2741 39.033 36.7341 38.8429 37.0841 38.4629C37.4341 38.0829 37.6041 37.5729 37.6041 36.9329V29.7629C37.6041 29.3629 37.9241 29.1729 38.5541 29.1729C39.1841 29.1729 39.5041 29.3629 39.5041 29.7629V36.9929C39.5041 38.0829 39.1441 38.9729 38.4141 39.6329C37.6841 40.2929 36.7841 40.6329 35.7041 40.6329C34.6241 40.6329 33.7241 40.3029 33.0041 39.6329C32.2841 38.9629 31.9141 38.0829 31.9141 36.9929V29.7629C31.9141 29.3629 32.2341 29.1729 32.8641 29.1729C33.4941 29.1729 33.8141 29.3629 33.8141 29.7629L33.8441 36.9329Z" fill="#3395EF"/>
<path d="M48.2369 29.3027C48.5669 29.3027 48.7469 29.5728 48.7469 30.1128C48.7469 30.6528 48.5769 30.9227 48.2369 30.9227H45.8469V39.9828C45.8469 40.3828 45.5269 40.5728 44.8969 40.5728C44.2669 40.5728 43.9469 40.3828 43.9469 39.9828V30.9227H41.5569C41.2269 30.9227 41.0469 30.6528 41.0469 30.1128C41.0469 29.5728 41.2169 29.3027 41.5569 29.3027H48.2369Z" fill="#3395EF"/>
<path d="M57.6181 36.9933C57.6181 38.0833 57.2581 38.9733 56.5381 39.6333C55.8281 40.2933 54.9281 40.6333 53.8481 40.6333C52.7681 40.6333 51.8681 40.3033 51.1581 39.6333C50.4481 38.9633 50.0781 38.0833 50.0781 36.9933V32.7533C50.0781 31.6633 50.4381 30.7733 51.1581 30.1133C51.8781 29.4533 52.7681 29.1133 53.8481 29.1133C54.9281 29.1133 55.8281 29.4433 56.5381 30.1133C57.2481 30.7733 57.6181 31.6633 57.6181 32.7533V36.9933ZM55.7381 32.8132C55.7381 32.1632 55.5681 31.6633 55.2181 31.2833C54.8681 30.9033 54.4081 30.7133 53.8581 30.7133C53.3081 30.7133 52.8481 30.9033 52.4981 31.2833C52.1481 31.6633 51.9781 32.1732 51.9781 32.8132V36.9232C51.9781 37.5732 52.1481 38.0732 52.4981 38.4532C52.8481 38.8332 53.3081 39.0233 53.8581 39.0233C54.4081 39.0233 54.8681 38.8332 55.2181 38.4532C55.5681 38.0732 55.7381 37.5632 55.7381 36.9232V32.8132Z" fill="#3395EF"/>
<path d="M38.5992 69.7732C32.4592 69.7732 26.4091 68.1431 20.9791 64.9431C12.9491 60.2231 7.22915 52.6532 4.88915 43.6332C4.27915 41.2732 3.90916 38.8531 3.79916 36.4331H0.999154C0.619154 36.4231 0.279154 36.2132 0.109154 35.8732C-0.0608456 35.5432 -0.0308437 35.1331 0.189156 34.8331L7.95915 24.0831C8.14915 23.8231 8.44916 23.6731 8.76916 23.6731C9.08916 23.6731 9.38916 23.8331 9.57916 24.0931L17.2492 34.7931C17.4692 35.1031 17.4991 35.5031 17.3191 35.8431C17.1491 36.1831 16.8192 36.3732 16.4192 36.3832L13.8991 36.3431C14.0191 38.2931 14.3692 40.2332 14.9492 42.1232C18.9492 55.1832 32.8291 62.5631 45.8891 58.5631C52.2191 56.6231 57.4091 52.3432 60.5191 46.4932C63.6291 40.6532 64.2691 33.9431 62.3291 27.6131C60.3891 21.2831 56.1091 16.0831 50.2691 12.9831C44.4291 9.87315 37.7192 9.23309 31.3892 11.1731C27.7792 12.2831 24.5491 14.1331 21.7891 16.6931C19.5091 18.8031 17.6692 21.2831 16.3292 24.0831C16.0892 24.5831 15.4892 24.7831 14.9892 24.5531C14.4892 24.3131 14.2792 23.7131 14.5192 23.2231C15.9792 20.2031 17.9592 17.5132 20.4192 15.2432C23.3992 12.4732 26.8891 10.4632 30.7891 9.27318C37.6291 7.18318 44.8692 7.87315 51.1892 11.2331C57.5092 14.5931 62.1392 20.2031 64.2292 27.0431C66.3192 33.8831 65.6291 41.1231 62.2691 47.4431C58.9091 53.7631 53.2991 58.3931 46.4591 60.4831C32.3391 64.8031 17.3392 56.8331 13.0192 42.7131C12.2892 40.3131 11.8892 37.8331 11.8492 35.3531C11.8492 35.0831 11.9492 34.8232 12.1392 34.6332C12.3292 34.4432 12.5892 34.3531 12.8592 34.3431L14.4492 34.3632L8.73916 26.4032L2.91915 34.4531H4.73916C5.27916 34.4531 5.72916 34.9031 5.73916 35.4431C5.78916 38.0331 6.13916 40.6232 6.79916 43.1532C9.00916 51.6532 14.3892 58.7831 21.9692 63.2331C29.5392 67.6831 38.3891 68.9131 46.8991 66.7131C64.4491 62.1531 75.0191 44.1732 70.4591 26.6232C68.2491 18.1232 62.8692 10.9931 55.2892 6.54308C47.7192 2.09308 38.8592 0.863102 30.3592 3.0631C25.0692 4.4331 20.1692 7.13314 16.1892 10.8531L16.0691 10.9631C14.1291 12.7831 12.3992 14.8632 10.9492 17.1332C10.6492 17.6032 10.0291 17.7331 9.56915 17.4331C9.10915 17.1331 8.96916 16.5131 9.26916 16.0531C10.8092 13.6531 12.6491 11.4331 14.7291 9.48315L14.8592 9.37316C19.0592 5.45316 24.2592 2.59317 29.8592 1.13317C38.8792 -1.20683 48.2691 0.103112 56.2991 4.82311C64.3291 9.54311 70.0491 17.1132 72.3891 26.1332C77.2191 44.7532 66.0091 63.8331 47.3891 68.6631C44.4691 69.4231 41.5092 69.7931 38.5592 69.7931L38.5992 69.7732Z" fill="#3395EF"/>
</svg>
