<svg width="70" height="70" viewBox="0 0 70 70" fill="none" xmlns="http://www.w3.org/2000/svg">
<path d="M19.3869 66.0397C19.1269 66.0397 18.8769 65.9397 18.6769 65.7497C18.2869 65.3597 18.2869 64.7297 18.6769 64.3397L33.0969 49.9197C33.3469 49.6697 33.7069 49.5697 34.0569 49.6597C40.7069 51.3697 47.8468 49.4397 52.6868 44.5997C58.0768 39.2097 59.7769 31.1097 57.1369 24.0297L45.2269 35.9398C44.8369 36.3298 44.2069 36.3298 43.8169 35.9398L33.8369 25.9597C33.4469 25.5697 33.4469 24.9397 33.8369 24.5497L45.7469 12.6397C38.6669 9.99973 30.5669 11.6997 25.1769 17.0897C20.3369 21.9297 18.3969 29.0697 20.1169 35.7197C20.2069 36.0597 20.1069 36.4297 19.8569 36.6797L5.43685 51.0997C5.04685 51.4897 4.41688 51.4897 4.02687 51.0997C3.63688 50.7097 3.63688 50.0798 4.02687 49.6898L18.0569 35.6597C16.4169 28.4797 18.5769 20.8697 23.7769 15.6697C30.0969 9.34973 39.8069 7.62972 47.9469 11.3797C48.2469 11.5197 48.4569 11.7897 48.5169 12.1097C48.5769 12.4297 48.4669 12.7597 48.2369 12.9897L35.9869 25.2397L44.5569 33.8097L56.8069 21.5597C57.0369 21.3297 57.3668 21.2197 57.6868 21.2797C58.0068 21.3397 58.2769 21.5497 58.4169 21.8497C62.1669 29.9797 60.4468 39.6997 54.1269 46.0197C48.9268 51.2197 41.3169 53.3797 34.1369 51.7397L20.1069 65.7697C19.9069 65.9697 19.6569 66.0597 19.3969 66.0597L19.3869 66.0397Z" fill="#3395EF"/>
<path d="M34.8799 69.76C15.6499 69.76 0 54.11 0 34.88C0 15.65 15.6399 0 34.8799 0C54.1199 0 69.7599 15.65 69.7599 34.88C69.7599 54.11 54.1199 69.76 34.8799 69.76ZM34.8799 2.01001C16.7499 2.01001 2 16.76 2 34.89C2 53.02 16.7499 67.77 34.8799 67.77C53.0099 67.77 67.7599 53.02 67.7599 34.89C67.7599 16.76 53.0099 2.01001 34.8799 2.01001Z" fill="#3395EF"/>
<path d="M58.7819 59.8402C58.5219 59.8402 58.2719 59.7402 58.0719 59.5503L10.1519 11.6302C9.76188 11.2402 9.76188 10.6102 10.1519 10.2202C10.5419 9.83023 11.1719 9.83023 11.5619 10.2202L59.4819 58.1402C59.8719 58.5302 59.8719 59.1603 59.4819 59.5503C59.2819 59.7503 59.0319 59.8402 58.7719 59.8402H58.7819Z" fill="#3395EF"/>
<path d="M38.8262 47.3204C29.2162 47.3204 21.4062 39.5104 21.4062 29.9004C21.4062 29.3504 21.8562 28.9004 22.4062 28.9004C22.9562 28.9004 23.4062 29.3504 23.4062 29.9004C23.4062 38.4004 30.3262 45.3204 38.8262 45.3204C39.3762 45.3204 39.8262 45.7704 39.8262 46.3204C39.8262 46.8704 39.3762 47.3204 38.8262 47.3204Z" fill="#3395EF"/>
</svg>
