<svg width="71" height="72" viewBox="0 0 71 72" fill="none" xmlns="http://www.w3.org/2000/svg">
<path d="M35.0997 43.05C34.8398 43.05 34.6046 42.8829 34.518 42.6353L31.671 34.6329L24.0028 38.2782C23.7676 38.3896 23.4829 38.3402 23.2973 38.1545C23.1116 37.9688 23.0621 37.6902 23.1735 37.4489L25.5872 32.3677C25.7357 32.0582 26.1009 31.9283 26.4103 32.0768C26.7198 32.2254 26.8498 32.5905 26.7012 32.8999L25.0364 36.4091L31.7515 33.2156C31.9124 33.1413 32.0919 33.1351 32.2528 33.2032C32.4137 33.2713 32.5375 33.4012 32.5994 33.5683L35.0935 40.5743L37.5877 33.5683C37.6496 33.4012 37.7734 33.2713 37.9343 33.2032C38.0952 33.1351 38.2809 33.1413 38.4356 33.2156L45.1507 36.4091L43.4858 32.8999C43.3373 32.5905 43.4735 32.2192 43.7767 32.0768C44.0862 31.9283 44.4513 32.0644 44.5999 32.3677L47.0136 37.4489C47.125 37.684 47.0755 37.9688 46.8898 38.1545C46.7041 38.3402 46.4256 38.3896 46.1843 38.2782L38.5161 34.6329L35.6691 42.6353C35.5825 42.8829 35.3473 43.05 35.0873 43.05H35.0997Z" fill="#3395EF"/>
<path d="M26.1526 11.535C25.9236 11.535 25.7008 11.4051 25.5956 11.1823L23.1819 6.10102C23.0705 5.86584 23.12 5.58121 23.3057 5.39554C23.4914 5.20987 23.7699 5.16031 24.0112 5.27171L31.6794 8.91706L34.5264 0.914616C34.613 0.667055 34.8482 0.5 35.1081 0.5C35.3681 0.5 35.6033 0.667055 35.6899 0.914616L38.5369 8.91706L46.2051 5.27171C46.4402 5.16031 46.7249 5.20987 46.9106 5.39554C47.0963 5.58121 47.1458 5.85965 47.0344 6.10102L44.6207 11.1823C44.4721 11.4917 44.107 11.6217 43.7975 11.4731C43.4881 11.3246 43.3581 10.9595 43.5067 10.65L45.1715 7.14081L38.4564 10.3344C38.2955 10.4086 38.116 10.4148 37.9551 10.3468C37.7942 10.2787 37.6704 10.1487 37.6085 9.98155L35.1143 2.97561L32.6202 9.98155C32.5583 10.1487 32.4345 10.2787 32.2736 10.3468C32.1127 10.4148 31.927 10.4086 31.7723 10.3344L25.0572 7.14081L26.722 10.65C26.8706 10.9595 26.7344 11.3308 26.4311 11.4731C26.3445 11.5164 26.2578 11.535 26.165 11.535H26.1526Z" fill="#3395EF"/>
<path d="M59.6716 71.4939C59.4391 71.4939 59.2067 71.3815 59.0642 71.179L58.4794 70.3617C58.2395 70.0243 58.3145 69.5595 58.6519 69.3121C58.9893 69.0722 59.4541 69.1546 59.6941 69.4845L60.2789 70.3018C60.5188 70.6392 60.4438 71.104 60.1064 71.3515C59.9715 71.4414 59.8215 71.4939 59.6716 71.4939ZM57.3473 68.2325C57.1148 68.2325 56.8824 68.1199 56.7325 67.9174L54.993 65.4732C54.753 65.1358 54.828 64.671 55.1654 64.4311C55.5028 64.1912 55.9677 64.2661 56.2151 64.6035L57.9546 67.0478C58.1945 67.3852 58.1195 67.8499 57.7821 68.0899C57.6472 68.1798 57.4972 68.2325 57.3473 68.2325ZM53.8683 63.3515C53.6359 63.3515 53.4035 63.2389 53.2535 63.0364L51.514 60.5923C51.2741 60.2549 51.3491 59.79 51.6865 59.5501C52.0239 59.3101 52.4888 59.3851 52.7362 59.7225L54.4756 62.1668C54.7156 62.5042 54.6406 62.9689 54.3032 63.2089C54.1682 63.2988 54.0183 63.3515 53.8683 63.3515ZM50.3894 58.4703C50.157 58.4703 49.9245 58.3579 49.7746 58.1555L48.0351 55.7112C47.7952 55.3738 47.8702 54.909 48.2076 54.6615C48.545 54.4216 49.0098 54.4966 49.2572 54.834L50.9967 57.2782C51.2366 57.6156 51.1616 58.0805 50.8242 58.3279C50.6893 58.4179 50.5393 58.4703 50.3894 58.4703ZM46.9104 53.5893C46.678 53.5893 46.4456 53.4769 46.2956 53.2745L44.5562 50.8302C44.3162 50.4928 44.3912 50.0279 44.7286 49.788C45.066 49.5481 45.5309 49.6231 45.7783 49.9605L47.5178 52.4047C47.7577 52.7421 47.6827 53.207 47.3453 53.4469C47.2104 53.5369 47.0604 53.5893 46.9104 53.5893ZM43.4315 48.7084C43.1991 48.7084 42.9666 48.5959 42.8167 48.3935L41.0772 45.9492C40.8373 45.6118 40.9123 45.1469 41.2497 44.907C41.5871 44.6671 42.0519 44.742 42.2994 45.0794L44.0388 47.5237C44.2788 47.8611 44.2038 48.326 43.8664 48.5659C43.7314 48.6559 43.5815 48.7084 43.4315 48.7084Z" fill="#3395EF"/>
<path d="M47.1699 71.4933C46.8625 71.4933 46.5701 71.3059 46.4651 70.9985L45.5204 68.3593C45.378 67.9694 45.5879 67.542 45.9778 67.3995C46.3677 67.2646 46.795 67.4671 46.9375 67.857L47.8822 70.4962C48.0247 70.8861 47.8147 71.3133 47.4249 71.4557C47.3424 71.4857 47.2599 71.5008 47.1699 71.5008V71.4933ZM45.2205 66.0274C44.9131 66.0274 44.6207 65.84 44.5157 65.5326L43.511 62.706C43.3686 62.3161 43.5785 61.8887 43.9684 61.7462C44.3583 61.6113 44.7856 61.8138 44.9281 62.2037L45.9328 65.0303C46.0752 65.4202 45.8653 65.8476 45.4754 65.9901C45.393 66.02 45.3105 66.0349 45.2205 66.0349V66.0274ZM43.2036 60.3742C42.8962 60.3742 42.6038 60.1867 42.4988 59.8793L41.4942 57.0527C41.3517 56.6628 41.5616 56.2355 41.9515 56.093C42.3414 55.9581 42.7688 56.1605 42.9112 56.5504L43.9159 59.377C44.0584 59.7669 43.8484 60.1942 43.4586 60.3367C43.3761 60.3666 43.2936 60.3817 43.2036 60.3817V60.3742ZM41.1867 54.7209C40.8793 54.7209 40.5869 54.5335 40.482 54.2261L39.4773 51.3994C39.3348 51.0096 39.5447 50.5822 39.9346 50.4397C40.3245 50.3048 40.7519 50.5072 40.8943 50.8971L41.899 53.7237C42.0415 54.1136 41.8315 54.541 41.4417 54.6834C41.3592 54.7134 41.2767 54.7284 41.1867 54.7284V54.7209ZM39.1699 49.0677C38.8625 49.0677 38.57 48.8802 38.4651 48.5728L37.4604 45.7461C37.3179 45.3563 37.5279 44.9289 37.9177 44.7864C38.3076 44.6514 38.735 44.8539 38.8775 45.2438L39.8822 48.0704C40.0246 48.4603 39.8147 48.8877 39.4248 49.0301C39.3423 49.0601 39.2598 49.0752 39.1699 49.0752V49.0677Z" fill="#3395EF"/>
<path d="M34.644 71.4921C34.2316 71.4921 33.8942 71.1547 33.8942 70.7423V69.4903C33.8942 69.0779 34.2316 68.7405 34.644 68.7405C35.0564 68.7405 35.3938 69.0779 35.3938 69.4903V70.7423C35.3938 71.1547 35.0564 71.4921 34.644 71.4921ZM34.644 67.2409C34.2316 67.2409 33.8942 66.9035 33.8942 66.4912V63.4921C33.8942 63.0797 34.2316 62.7423 34.644 62.7423C35.0564 62.7423 35.3938 63.0797 35.3938 63.4921V66.4912C35.3938 66.9035 35.0564 67.2409 34.644 67.2409ZM34.644 61.2428C34.2316 61.2428 33.8942 60.9054 33.8942 60.493V57.4939C33.8942 57.0815 34.2316 56.7441 34.644 56.7441C35.0564 56.7441 35.3938 57.0815 35.3938 57.4939V60.493C35.3938 60.9054 35.0564 61.2428 34.644 61.2428ZM34.644 55.2446C34.2316 55.2446 33.8942 54.9072 33.8942 54.4948V51.4957C33.8942 51.0834 34.2316 50.746 34.644 50.746C35.0564 50.746 35.3938 51.0834 35.3938 51.4957V54.4948C35.3938 54.9072 35.0564 55.2446 34.644 55.2446ZM34.644 49.2464C34.2316 49.2464 33.8942 48.909 33.8942 48.4967V45.4976C33.8942 45.0852 34.2316 44.7478 34.644 44.7478C35.0564 44.7478 35.3938 45.0852 35.3938 45.4976V48.4967C35.3938 48.909 35.0564 49.2464 34.644 49.2464Z" fill="#3395EF"/>
<path d="M22.1342 71.4925C22.0517 71.4925 21.9692 71.4774 21.8793 71.4474C21.4894 71.305 21.2869 70.8778 21.4219 70.4879L22.3666 67.8487C22.5091 67.4588 22.9289 67.2563 23.3263 67.3912C23.7162 67.5337 23.9186 67.9611 23.7837 68.351L22.839 70.9902C22.7265 71.2976 22.4416 71.4849 22.1342 71.4849V71.4925ZM24.0836 66.0266C24.0011 66.0266 23.9186 66.0117 23.8287 65.9817C23.4388 65.8393 23.2364 65.4119 23.3713 65.022L24.376 62.1954C24.511 61.8055 24.9458 61.603 25.3357 61.7379C25.7256 61.8804 25.928 62.3078 25.7931 62.6976L24.7884 65.5243C24.6759 65.8317 24.391 66.0191 24.0836 66.0191V66.0266ZM26.1005 60.3734C26.018 60.3734 25.9355 60.3584 25.8455 60.3284C25.4557 60.186 25.2532 59.7586 25.3882 59.3687L26.3929 56.5421C26.5353 56.1522 26.9627 55.9497 27.3526 56.0847C27.7425 56.2272 27.9449 56.6546 27.81 57.0444L26.8053 59.871C26.6928 60.1784 26.4079 60.3659 26.1005 60.3659V60.3734ZM28.1174 54.7201C28.0349 54.7201 27.9524 54.7051 27.8624 54.6751C27.4726 54.5327 27.2701 54.1053 27.4051 53.7154L28.4098 50.8887C28.5522 50.4989 28.9721 50.2964 29.3695 50.4314C29.7594 50.5739 29.9618 51.0012 29.8268 51.3911L28.8221 54.2178C28.7097 54.5252 28.4248 54.7126 28.1174 54.7126V54.7201ZM30.1342 49.0669C30.0518 49.0669 29.9693 49.0518 29.8793 49.0218C29.4894 48.8794 29.287 48.452 29.422 48.0621L30.4267 45.2355C30.5691 44.8457 30.989 44.6431 31.3864 44.7781C31.7762 44.9206 31.9787 45.3479 31.8437 45.7378L30.839 48.5645C30.7266 48.8719 30.4416 49.0594 30.1342 49.0594V49.0669Z" fill="#3395EF"/>
<path d="M9.61349 71.4939C9.46354 71.4939 9.31358 71.4489 9.17862 71.3515C8.84123 71.1115 8.76625 70.6392 9.00618 70.3018L9.591 69.4845C9.83093 69.1471 10.2958 69.0722 10.6332 69.3121C10.9706 69.552 11.0456 70.0243 10.8056 70.3617L10.2208 71.179C10.0783 71.3815 9.84592 71.4939 9.61349 71.4939ZM11.9378 68.2325C11.7878 68.2325 11.6379 68.1873 11.5029 68.0899C11.1655 67.8499 11.0905 67.3777 11.3305 67.0478L13.0699 64.6035C13.3099 64.2661 13.7747 64.1912 14.1196 64.4311C14.457 64.671 14.532 65.1433 14.2921 65.4732L12.5526 67.9174C12.4026 68.1199 12.1777 68.2325 11.9378 68.2325ZM15.4167 63.3515C15.2668 63.3515 15.1168 63.3063 14.9819 63.2089C14.6445 62.9689 14.5695 62.4967 14.8094 62.1668L16.5489 59.7225C16.7888 59.3851 17.2537 59.3026 17.5986 59.5501C17.936 59.79 18.0109 60.2624 17.771 60.5923L16.0315 63.0364C15.8816 63.2389 15.6567 63.3515 15.4167 63.3515ZM18.8957 58.4703C18.7457 58.4703 18.5958 58.4254 18.4608 58.3279C18.1234 58.088 18.0484 57.6156 18.2884 57.2782L20.0278 54.834C20.2677 54.4966 20.7326 54.4216 21.0775 54.6615C21.4149 54.9015 21.4899 55.3738 21.2499 55.7112L19.5105 58.1555C19.3605 58.3579 19.1356 58.4703 18.8957 58.4703ZM22.3746 53.5893C22.2247 53.5893 22.0747 53.5444 21.9397 53.4469C21.6023 53.207 21.5274 52.7346 21.7673 52.4047L23.5068 49.9605C23.7467 49.6231 24.2115 49.5481 24.5564 49.788C24.8938 50.0279 24.9688 50.5003 24.7289 50.8302L22.9894 53.2745C22.8395 53.4769 22.6145 53.5893 22.3746 53.5893ZM25.8535 48.7084C25.7036 48.7084 25.5536 48.6634 25.4187 48.5659C25.0813 48.326 25.0063 47.8536 25.2462 47.5237L26.9857 45.0794C27.2256 44.742 27.6905 44.6671 28.0354 44.907C28.3728 45.1469 28.4478 45.6193 28.2078 45.9492L26.4684 48.3935C26.3184 48.5959 26.0935 48.7084 25.8535 48.7084Z" fill="#3395EF"/>
<path d="M0 14.7002H30.9227L34.3167 20.6791L30.1685 25.1634L33.1853 28.9002H0" stroke="#3395EF" stroke-width="1.7"/>
<path d="M71 28.9004L40.0773 28.9004L36.6833 22.9214L40.8315 18.4372L37.8147 14.7004L71 14.7004" stroke="#3395EF" stroke-width="1.7"/>
<rect x="4.39688" y="9.85" width="8.95" height="23.15" fill="transparent" stroke="#3395EF" stroke-width="1.7"/>
<rect x="57.6469" y="9.85" width="8.95" height="23.15" fill="transparent" stroke="#3395EF" stroke-width="1.7"/>
</svg>
