<svg width="70" height="70" viewBox="0 0 70 70" fill="none" xmlns="http://www.w3.org/2000/svg">
<path d="M35 39C34.84 39 34.67 38.96 34.52 38.88L0.52002 20.38C0.20002 20.21 0 19.87 0 19.5C0 19.13 0.20002 18.8 0.52002 18.62L34.52 0.12C34.82 -0.04 35.18 -0.04 35.48 0.12L69.48 18.62C69.8 18.79 70 19.13 70 19.5C70 19.87 69.8 20.2 69.48 20.38L35.48 38.88C35.33 38.96 35.17 39 35 39ZM3.09003 19.5L35 36.86L66.91 19.5L35 2.14002L3.09003 19.5Z" fill="#3395EF"/>
<path d="M35 49.0002C34.84 49.0002 34.67 48.9602 34.52 48.8802L0.52002 30.3802C0.20002 30.2102 0 29.8702 0 29.5002C0 29.1302 0.20002 28.8002 0.52002 28.6202L9.67999 23.6402C10.16 23.3702 10.77 23.5601 11.04 24.0401C11.3 24.5201 11.12 25.1302 10.64 25.4002L3.09003 29.5102L35 46.8702L66.91 29.5102L59.42 25.4301C58.93 25.1701 58.75 24.5601 59.02 24.0701C59.28 23.5801 59.89 23.4001 60.38 23.6701L69.4901 28.6302C69.8101 28.8002 70.01 29.1402 70.01 29.5102C70.01 29.8802 69.8101 30.2102 69.4901 30.3902L35.4901 48.8902C35.34 48.9702 35.18 49.0102 35.01 49.0102L35 49.0002Z" fill="#3395EF"/>
<path d="M35 59.0002C34.84 59.0002 34.67 58.9602 34.52 58.8802L0.52002 40.3802C0.20002 40.2102 0 39.8702 0 39.5002C0 39.1302 0.20002 38.8002 0.52002 38.6202L9.67999 33.6402C10.16 33.3702 10.77 33.5601 11.04 34.0401C11.3 34.5201 11.12 35.1302 10.64 35.4002L3.09003 39.5102L35 56.8702L66.91 39.5102L59.42 35.4301C58.93 35.1701 58.75 34.5601 59.02 34.0701C59.28 33.5801 59.89 33.4001 60.38 33.6701L69.4901 38.6302C69.8101 38.8002 70.01 39.1402 70.01 39.5102C70.01 39.8802 69.8101 40.2102 69.4901 40.3902L35.4901 58.8902C35.34 58.9702 35.18 59.0102 35.01 59.0102L35 59.0002Z" fill="#3395EF"/>
<path d="M35 69.0002C34.84 69.0002 34.67 68.9602 34.52 68.8802L0.52002 50.3802C0.20002 50.2102 0 49.8702 0 49.5002C0 49.1302 0.20002 48.8002 0.52002 48.6202L9.67999 43.6402C10.16 43.3702 10.77 43.5601 11.04 44.0401C11.3 44.5201 11.12 45.1302 10.64 45.4002L3.09003 49.5102L35 66.8702L66.91 49.5102L59.42 45.4301C58.93 45.1701 58.75 44.5601 59.02 44.0701C59.28 43.5801 59.89 43.4001 60.38 43.6701L69.4901 48.6302C69.8101 48.8002 70.01 49.1402 70.01 49.5102C70.01 49.8802 69.8101 50.2102 69.4901 50.3902L35.4901 68.8902C35.34 68.9702 35.18 69.0102 35.01 69.0102L35 69.0002Z" fill="#3395EF"/>
</svg>
