<svg width="81" height="63" viewBox="0 0 81 63" fill="none" xmlns="http://www.w3.org/2000/svg">
<path d="M26.7909 51.1317H6.57768C6.07143 51.1317 5.65723 50.7175 5.65723 50.2112C5.65723 49.705 6.07143 49.2908 6.57768 49.2908H26.7909C27.2971 49.2908 27.7113 49.705 27.7113 50.2112C27.7113 50.7175 27.2971 51.1317 26.7909 51.1317Z" fill="#3395EF"/>
<path d="M26.7909 35.1434H6.57768C6.07143 35.1434 5.65723 34.7292 5.65723 34.2229C5.65723 33.7167 6.07143 33.3025 6.57768 33.3025H26.7909C27.2971 33.3025 27.7113 33.7167 27.7113 34.2229C27.7113 34.7292 27.2971 35.1434 26.7909 35.1434Z" fill="#3395EF"/>
<path d="M50.6853 51.1317H30.4721C29.9658 51.1317 29.5516 50.7175 29.5516 50.2112C29.5516 49.705 29.9658 49.2908 30.4721 49.2908H50.6853C51.1915 49.2908 51.6057 49.705 51.6057 50.2112C51.6057 50.7175 51.1915 51.1317 50.6853 51.1317Z" fill="#3395EF"/>
<path d="M50.6853 35.1434H30.4721C29.9658 35.1434 29.5516 34.7292 29.5516 34.2229C29.5516 33.7167 29.9658 33.3025 30.4721 33.3025H50.6853C51.1915 33.3025 51.6057 33.7167 51.6057 34.2229C51.6057 34.7292 51.1915 35.1434 50.6853 35.1434Z" fill="#3395EF"/>
<path d="M74.5795 51.1317H54.3663C53.8601 51.1317 53.4459 50.7175 53.4459 50.2112C53.4459 49.705 53.8601 49.2908 54.3663 49.2908H74.5795C75.0857 49.2908 75.5 49.705 75.5 50.2112C75.5 50.7175 75.0857 51.1317 74.5795 51.1317Z" fill="#3395EF"/>
<path d="M74.5795 35.1434H54.3663C53.8601 35.1434 53.4459 34.7292 53.4459 34.2229C53.4459 33.7167 53.8601 33.3025 54.3663 33.3025H74.5795C75.0857 33.3025 75.5 33.7167 75.5 34.2229C75.5 34.7292 75.0857 35.1434 74.5795 35.1434Z" fill="#3395EF"/>
<path d="M79.838 23.7198H1.17374C0.528184 23.7198 0 23.3056 0 22.7994C0 22.2931 0.528184 21.8789 1.17374 21.8789H79.8263C80.4718 21.8789 81 22.2931 81 22.7994C81 23.3056 80.4718 23.7198 79.8263 23.7198H79.838Z" fill="#3395EF"/>
<path d="M79.838 45.8104H1.17374C0.528184 45.8104 0 45.3962 0 44.8899C0 44.3837 0.528184 43.9695 1.17374 43.9695H79.8263C80.4718 43.9695 81 44.3837 81 44.8899C81 45.3962 80.4718 45.8104 79.8263 45.8104H79.838Z" fill="#3395EF"/>
<path d="M79.838 29.2425H1.17374C0.528184 29.2425 0 28.8283 0 28.3221C0 27.8158 0.528184 27.4016 1.17374 27.4016H79.8263C80.4718 27.4016 81 27.8158 81 28.3221C81 28.8283 80.4718 29.2425 79.8263 29.2425H79.838Z" fill="#3395EF"/>
<path d="M79.838 51.3331H1.17374C0.528184 51.3331 0 50.9189 0 50.4126C0 49.9064 0.528184 49.4922 1.17374 49.4922H79.8263C80.4718 49.4922 81 49.9064 81 50.4126C81 50.9189 80.4718 51.3331 79.8263 51.3331H79.838Z" fill="#3395EF"/>
<path d="M26.7826 62.4708H6.56944C6.06319 62.4708 5.64899 62.0566 5.64899 61.5503V24.8335C5.64899 18.7401 10.6102 13.7788 16.7036 13.7788C22.7971 13.7788 27.7583 18.7401 27.7583 24.8335C27.7583 24.9439 27.7399 25.0451 27.7031 25.1372V61.5503C27.7031 62.0566 27.2889 62.4708 26.7826 62.4708ZM7.4899 60.6299H25.8622V24.8335C25.8622 24.7322 25.8806 24.6309 25.9082 24.5389C25.7517 19.596 21.6833 15.6197 16.7036 15.6197C11.724 15.6197 7.4899 19.7526 7.4899 24.8335V60.6299Z" fill="#3395EF"/>
<path d="M50.6829 62.4708H30.4697C29.9635 62.4708 29.5493 62.0566 29.5493 61.5503V24.8335C29.5493 18.7401 34.5105 13.7788 40.6039 13.7788C46.6973 13.7788 51.6586 18.7401 51.6586 24.8335C51.6586 24.9439 51.6402 25.0451 51.6033 25.1372V61.5503C51.6033 62.0566 51.1891 62.4708 50.6829 62.4708ZM31.3902 60.6299H49.7624V24.8335C49.7624 24.7322 49.7808 24.6309 49.8085 24.5389C49.652 19.596 45.5836 15.6197 40.6039 15.6197C35.6243 15.6197 31.3902 19.7526 31.3902 24.8335V60.6299Z" fill="#3395EF"/>
<path d="M74.6217 62.4708H54.4086C53.9023 62.4708 53.4881 62.0566 53.4881 61.5503V24.8335C53.4881 18.7401 58.4493 13.7788 64.5428 13.7788C70.6362 13.7788 75.5974 18.7401 75.5974 24.8335C75.5974 24.9439 75.579 25.0451 75.5422 25.1372V61.5503C75.5422 62.0566 75.128 62.4708 74.6217 62.4708ZM55.329 60.6299H73.7013V24.8335C73.7013 24.7322 73.7197 24.6309 73.7473 24.5389C73.5908 19.596 69.5224 15.6197 64.5428 15.6197C59.5631 15.6197 55.329 19.7526 55.329 24.8335V60.6299Z" fill="#3395EF"/>
<path d="M11.0433 10.5047V4.39027C11.0433 2.86521 12.2796 1.62891 13.8047 1.62891V1.62891C15.3298 1.62891 16.5661 2.86521 16.5661 4.39027V15.4357" stroke="#3395EF" stroke-width="2"/>
<path d="M34.9745 10.5047V4.39027C34.9745 2.86521 36.2108 1.62891 37.7359 1.62891V1.62891C39.2609 1.62891 40.4972 2.86521 40.4972 4.39027V15.4357" stroke="#3395EF" stroke-width="2"/>
<path d="M58.9056 10.5047V4.39027C58.9056 2.86521 60.1419 1.62891 61.6669 1.62891V1.62891C63.192 1.62891 64.4283 2.86521 64.4283 4.39027V15.4357" stroke="#3395EF" stroke-width="2"/>
</svg>
