<svg width="70" height="70" viewBox="0 0 70 70" fill="none" xmlns="http://www.w3.org/2000/svg">
<path d="M43.3663 44.3525H25.9062C25.3562 44.3525 24.9062 43.9025 24.9062 43.3525V25.8926C24.9062 25.3426 25.3562 24.8926 25.9062 24.8926H43.3663C43.9163 24.8926 44.3663 25.3426 44.3663 25.8926V43.3525C44.3663 43.9025 43.9163 44.3525 43.3663 44.3525ZM26.9062 42.3525H42.3663V26.8926H26.9062V42.3525Z" fill="#3395EF"/>
<path d="M34.6328 44.3525C34.0828 44.3525 33.6328 43.9025 33.6328 43.3525V25.8926C33.6328 25.3426 34.0828 24.8926 34.6328 24.8926C35.1828 24.8926 35.6328 25.3426 35.6328 25.8926V43.3525C35.6328 43.9025 35.1828 44.3525 34.6328 44.3525Z" fill="#3395EF"/>
<path d="M43.3634 35.623H34.7734C34.2234 35.623 33.7734 35.173 33.7734 34.623C33.7734 34.073 34.2234 33.623 34.7734 33.623H43.3634C43.9134 33.623 44.3634 34.073 44.3634 34.623C44.3634 35.173 43.9134 35.623 43.3634 35.623Z" fill="#3395EF"/>
<path d="M53.3853 16.8826C53.1253 16.8826 52.8753 16.7825 52.6753 16.5925C52.2853 16.2025 52.2853 15.5725 52.6753 15.1825L67.5653 0.2925C67.9553 -0.0975 68.5853 -0.0975 68.9753 0.2925C69.3653 0.6825 69.3653 1.31253 68.9753 1.70253L54.0853 16.5925C53.8853 16.7925 53.6353 16.8826 53.3753 16.8826H53.3853Z" fill="#3395EF"/>
<path d="M15.8925 16.8826C15.6325 16.8826 15.3825 16.7825 15.1825 16.5925L0.2925 1.70253C-0.0975 1.31253 -0.0975 0.6825 0.2925 0.2925C0.6825 -0.0975 1.3125 -0.0975 1.7025 0.2925L16.5925 15.1825C16.9825 15.5725 16.9825 16.2025 16.5925 16.5925C16.3925 16.7925 16.1425 16.8826 15.8825 16.8826H15.8925Z" fill="#3395EF"/>
<path d="M1.00249 69.2625C0.742491 69.2625 0.4925 69.1624 0.2925 68.9724C-0.0975 68.5824 -0.0975 67.9524 0.2925 67.5624L15.1825 52.6724C15.5725 52.2824 16.2025 52.2824 16.5925 52.6724C16.9825 53.0624 16.9825 53.6924 16.5925 54.0824L1.7025 68.9724C1.5025 69.1724 1.2525 69.2625 0.992497 69.2625H1.00249Z" fill="#3395EF"/>
<path d="M68.2753 69.2625C68.0153 69.2625 67.7653 69.1624 67.5653 68.9724L52.6753 54.0824C52.2853 53.6924 52.2853 53.0624 52.6753 52.6724C53.0653 52.2824 53.6953 52.2824 54.0853 52.6724L68.9753 67.5624C69.3653 67.9524 69.3653 68.5824 68.9753 68.9724C68.7753 69.1724 68.5253 69.2625 68.2653 69.2625H68.2753Z" fill="#3395EF"/>
<path d="M53.3806 54.3728H15.8906C15.3406 54.3728 14.8906 53.9228 14.8906 53.3728V15.8828C14.8906 15.3328 15.3406 14.8828 15.8906 14.8828H53.3806C53.9306 14.8828 54.3806 15.3328 54.3806 15.8828V53.3728C54.3806 53.9228 53.9306 54.3728 53.3806 54.3728ZM16.8906 52.3728H52.3806V16.8828H16.8906V52.3728Z" fill="#3395EF"/>
</svg>
