<svg width="62" height="62" viewBox="0 0 62 62" fill="none" xmlns="http://www.w3.org/2000/svg">
<path d="M40.959 9.47H6.78906C6.23906 9.47 5.78906 9.02 5.78906 8.47V1C5.78906 0.45 6.23906 0 6.78906 0H40.959C41.509 0 41.959 0.45 41.959 1V8.47C41.959 9.02 41.509 9.47 40.959 9.47ZM7.78906 7.47H39.959V2H7.78906V7.47Z" fill="#3395EF"/>
<path d="M52.5294 16.93H18.3594C17.8094 16.93 17.3594 16.48 17.3594 15.93V8.45996C17.3594 7.90996 17.8094 7.45996 18.3594 7.45996H52.5294C53.0794 7.45996 53.5294 7.90996 53.5294 8.45996V15.93C53.5294 16.48 53.0794 16.93 52.5294 16.93ZM19.3594 14.93H51.5294V9.45996H19.3594V14.93Z" fill="#3395EF"/>
<path d="M35.17 39.3401H1C0.45 39.3401 0 38.8901 0 38.3401V30.8701C0 30.3201 0.45 29.8701 1 29.8701H35.17C35.72 29.8701 36.17 30.3201 36.17 30.8701V38.3401C36.17 38.8901 35.72 39.3401 35.17 39.3401ZM2 37.3401H34.17V31.8701H2V37.3401Z" fill="#3395EF"/>
<path d="M35.17 46.8101H1C0.45 46.8101 0 46.3601 0 45.8101V38.3401C0 37.7901 0.45 37.3401 1 37.3401H35.17C35.72 37.3401 36.17 37.7901 36.17 38.3401V45.8101C36.17 46.3601 35.72 46.8101 35.17 46.8101ZM2 44.8101H34.17V39.3401H2V44.8101Z" fill="#3395EF"/>
<path d="M40.959 54.2795H6.78906C6.23906 54.2795 5.78906 53.8295 5.78906 53.2795V45.8096C5.78906 45.2596 6.23906 44.8096 6.78906 44.8096H40.959C41.509 44.8096 41.959 45.2596 41.959 45.8096V53.2795C41.959 53.8295 41.509 54.2795 40.959 54.2795ZM7.78906 52.2795H39.959V46.8096H7.78906V52.2795Z" fill="#3395EF"/>
<path d="M40.959 61.7503H6.78906C6.23906 61.7503 5.78906 61.3003 5.78906 60.7503V53.2803C5.78906 52.7303 6.23906 52.2803 6.78906 52.2803H40.959C41.509 52.2803 41.959 52.7303 41.959 53.2803V60.7503C41.959 61.3003 41.509 61.7503 40.959 61.7503ZM7.78906 59.7503H39.959V54.2803H7.78906V59.7503Z" fill="#3395EF"/>
<path d="M46.7403 24.3997H12.5703C12.0203 24.3997 11.5703 23.9497 11.5703 23.3997V15.9297C11.5703 15.3797 12.0203 14.9297 12.5703 14.9297H46.7403C47.2903 14.9297 47.7403 15.3797 47.7403 15.9297V23.3997C47.7403 23.9497 47.2903 24.3997 46.7403 24.3997ZM13.5703 22.3997H45.7403V16.9297H13.5703V22.3997Z" fill="#3395EF"/>
<path d="M40.959 31.8704H6.78906C6.23906 31.8704 5.78906 31.4204 5.78906 30.8704V23.4004C5.78906 22.8504 6.23906 22.4004 6.78906 22.4004H40.959C41.509 22.4004 41.959 22.8504 41.959 23.4004V30.8704C41.959 31.4204 41.509 31.8704 40.959 31.8704ZM7.78906 29.8704H39.959V24.4004H7.78906V29.8704Z" fill="#3395EF"/>
<path d="M43.9612 60.7497C53.0353 60.7497 60.3913 53.3937 60.3913 44.3196C60.3913 35.2456 53.0353 27.8896 43.9612 27.8896C34.8872 27.8896 27.5312 35.2456 27.5312 44.3196C27.5312 53.3937 34.8872 60.7497 43.9612 60.7497Z" fill="#1D2455"/>
<path d="M43.9612 61.7497C34.3512 61.7497 26.5312 53.9296 26.5312 44.3196C26.5312 34.7096 34.3512 26.8896 43.9612 26.8896C53.5712 26.8896 61.3913 34.7096 61.3913 44.3196C61.3913 53.9296 53.5712 61.7497 43.9612 61.7497ZM43.9612 28.8996C35.4512 28.8996 28.5312 35.8196 28.5312 44.3296C28.5312 52.8396 35.4512 59.7596 43.9612 59.7596C52.4712 59.7596 59.3913 52.8396 59.3913 44.3296C59.3913 35.8196 52.4712 28.8996 43.9612 28.8996Z" fill="#3395EF"/>
<path d="M40.9587 53V37H45.1914C47.1576 37 48.6135 37.3959 49.5591 38.1877C50.5197 38.9795 51 40.1298 51 41.6387C51 42.6545 50.7674 43.5285 50.3021 44.2605C49.8368 44.9776 49.1463 45.5303 48.2308 45.9188C47.3302 46.3072 46.212 46.5014 44.8762 46.5014H42.985V53H40.9587ZM39 49.9524V48.4958H46.6998V49.9524H39ZM39 46.5014V44.7983H44.1557V46.5014H39ZM44.5835 44.7983C45.4991 44.7983 46.272 44.7012 46.9024 44.507C47.5478 44.3128 48.0432 43.9916 48.3884 43.5434C48.7336 43.0952 48.9062 42.4827 48.9062 41.7059C48.9062 40.69 48.591 39.9356 47.9606 39.4426C47.3302 38.9496 46.3471 38.7031 45.0113 38.7031H42.985V44.7983H44.5835Z" fill="#3395EF"/>
</svg>
