<svg width="63" height="73" viewBox="0 0 63 73" fill="none" xmlns="http://www.w3.org/2000/svg">
<path d="M31.26 72.105C31.16 72.105 31.06 72.085 30.96 72.055C12.44 66.265 0 49.325 0 29.905V10.065C0 9.51496 0.45 9.06496 1 9.06496C11.6 9.06496 21.88 5.985 30.71 0.165C31.04 -0.055 31.48 -0.055 31.81 0.165C40.64 5.985 50.92 9.06496 61.52 9.06496C62.07 9.06496 62.52 9.51496 62.52 10.065V29.905C62.52 49.325 50.08 66.265 31.56 72.055C31.46 72.085 31.36 72.105 31.26 72.105ZM2 11.055V29.905C2 48.345 13.74 64.435 31.26 70.055C48.78 64.435 60.52 48.345 60.52 29.905V11.055C50.1 10.875 40.02 7.81497 31.26 2.19497C22.5 7.82497 12.42 10.875 2 11.055Z" fill="#3395EF"/>
<path d="M31.2622 60.4953C21.4622 60.4953 13.4922 52.5253 13.4922 42.7253C13.4922 32.9253 21.3922 25.1753 21.7322 24.8453C22.0722 24.5153 22.6022 24.4654 22.9922 24.7354C23.3822 25.0054 23.5322 25.5053 23.3522 25.9453C22.2822 28.5253 22.5522 30.5754 23.0922 31.9854C23.8922 27.3954 26.5022 25.0053 28.6622 23.0153C30.7422 21.0953 32.3922 19.5853 32.3922 16.6653C32.3922 14.2953 31.1722 10.9853 31.1622 10.9453C31.0222 10.5553 31.1322 10.1253 31.4422 9.84534C31.7522 9.57534 32.1922 9.51532 32.5622 9.70532C36.7222 11.8553 39.9422 17.8453 39.9422 21.5553C39.9422 23.4753 39.4822 25.2953 39.0322 27.0553C38.6322 28.6253 38.2622 30.1054 38.2622 31.4854C38.2622 32.6554 38.5722 34.0353 38.9322 35.2753C40.8522 29.8853 45.7522 28.2853 45.9922 28.2053C46.3722 28.0853 46.7822 28.2053 47.0422 28.5053C47.3022 28.8053 47.3622 29.2253 47.1922 29.5853C46.3522 31.3653 46.4522 32.4353 47.8422 36.3153C48.6422 38.5353 49.0222 40.6253 49.0222 42.7053C49.0222 52.5053 41.0522 60.4753 31.2522 60.4753L31.2622 60.4953ZM20.6022 29.2753C18.3822 32.2753 15.4922 37.2353 15.4922 42.7253C15.4922 51.4253 22.5722 58.4953 31.2622 58.4953C39.9522 58.4953 47.0322 51.4153 47.0322 42.7253C47.0322 40.8853 46.6822 39.0153 45.9622 37.0053C45.0222 34.3853 44.5222 32.7153 44.6922 31.0853C42.9122 32.2453 40.4822 34.6253 40.1922 39.0453C40.1622 39.5053 39.8222 39.8853 39.3722 39.9653C38.9122 40.0453 38.4722 39.8053 38.2822 39.3853C38.2022 39.1953 36.2622 34.7653 36.2622 31.4953C36.2622 29.8653 36.6822 28.1953 37.0922 26.5753C37.5122 24.9353 37.9422 23.2353 37.9422 21.5653C37.9422 19.2153 36.2422 15.5954 33.9222 13.2354C34.1822 14.3254 34.3922 15.5653 34.3922 16.6653C34.3922 20.4653 32.1722 22.5153 30.0122 24.4953C27.4722 26.8353 24.8422 29.2453 24.8422 34.9953C24.8422 35.3853 24.6122 35.7453 24.2522 35.9053C23.8922 36.0653 23.4722 35.9954 23.1722 35.7354C23.0322 35.6154 20.5322 33.2953 20.6022 29.2853V29.2753Z" fill="#3395EF"/>
</svg>
