<svg width="74" height="69" viewBox="0 0 74 69" fill="none" xmlns="http://www.w3.org/2000/svg">
<path d="M59.6016 44.79C59.0516 44.79 58.6016 44.34 58.6016 43.79V24.96C58.6016 24.41 59.0516 23.96 59.6016 23.96C60.1516 23.96 60.6016 24.41 60.6016 24.96V43.79C60.6016 44.34 60.1516 44.79 59.6016 44.79Z" fill="#3395EF"/>
<path d="M13.7109 44.79C13.1609 44.79 12.7109 44.34 12.7109 43.79V24.96C12.7109 24.41 13.1609 23.96 13.7109 23.96C14.2609 23.96 14.7109 24.41 14.7109 24.96V43.79C14.7109 44.34 14.2609 44.79 13.7109 44.79Z" fill="#3395EF"/>
<path d="M34.26 44.79H6.65C2.98 44.79 0 41.81 0 38.14V30.61C0 26.94 2.98 23.96 6.65 23.96H31.37C31.75 23.96 32.09 24.17 32.26 24.5L36.6 32.9399C36.8 33.3299 36.72 33.81 36.41 34.11L31.3 39.08L34.99 43.1C35.26 43.39 35.33 43.8199 35.17 44.1799C35.01 44.5399 34.65 44.78 34.25 44.78L34.26 44.79ZM6.65 25.96C4.09 25.96 2 28.04 2 30.61V38.14C2 40.7 4.08 42.79 6.65 42.79H31.98L29.17 39.73C28.8 39.33 28.82 38.71 29.21 38.34L34.48 33.21L30.76 25.97H6.65V25.96Z" fill="#3395EF"/>
<path d="M66.662 44.7898H41.332C41.052 44.7898 40.782 44.6697 40.592 44.4697L36.242 39.7297C35.872 39.3297 35.892 38.7097 36.282 38.3397L41.552 33.2097L37.552 25.4297C37.392 25.1197 37.402 24.7497 37.592 24.4497C37.772 24.1497 38.092 23.9697 38.442 23.9697H66.662C70.332 23.9697 73.312 26.9498 73.312 30.6198V38.1498C73.312 41.8198 70.332 44.7997 66.662 44.7997V44.7898ZM41.772 42.7898H66.662C69.222 42.7898 71.312 40.7098 71.312 38.1398V30.6097C71.312 28.0497 69.232 25.9597 66.662 25.9597H40.082L43.672 32.9397C43.872 33.3297 43.792 33.8097 43.482 34.1097L38.372 39.0797L41.772 42.7798V42.7898Z" fill="#3395EF"/>
<path d="M36.6464 68.7502C36.2264 68.7502 35.8464 68.4802 35.7064 68.0802L31.1064 55.1502L18.7164 61.0402C18.3364 61.2202 17.8764 61.1402 17.5764 60.8402C17.2764 60.5402 17.1964 60.0901 17.3764 59.7001L21.2764 51.4901C21.5164 50.9901 22.1064 50.7802 22.6064 51.0202C23.1064 51.2602 23.3164 51.8501 23.0764 52.3501L20.3864 58.0202L31.2364 52.8601C31.4964 52.7401 31.7864 52.7301 32.0464 52.8401C32.3064 52.9501 32.5064 53.1601 32.6064 53.4301L36.6364 64.7502L40.6664 53.4301C40.7664 53.1601 40.9664 52.9501 41.2264 52.8401C41.4864 52.7301 41.7864 52.7401 42.0364 52.8601L52.8864 58.0202L50.1964 52.3501C49.9564 51.8501 50.1764 51.2502 50.6664 51.0202C51.1664 50.7802 51.7564 51.0001 51.9964 51.4901L55.8964 59.7001C56.0764 60.0801 55.9964 60.5402 55.6964 60.8402C55.3964 61.1402 54.9464 61.2202 54.5564 61.0402L42.1664 55.1502L37.5664 68.0802C37.4264 68.4802 37.0464 68.7502 36.6264 68.7502H36.6464Z" fill="#3395EF"/>
<path d="M22.1999 17.83C21.8299 17.83 21.4699 17.62 21.2999 17.26L17.3999 9.04993C17.2199 8.66993 17.2999 8.21003 17.5999 7.91003C17.8999 7.61003 18.3499 7.52996 18.7399 7.70996L31.1299 13.6L35.7299 0.669922C35.8699 0.269922 36.2499 0 36.6699 0C37.0899 0 37.4699 0.269922 37.6099 0.669922L42.2099 13.6L54.5999 7.70996C54.9799 7.52996 55.4399 7.61003 55.7399 7.91003C56.0399 8.21003 56.1199 8.65993 55.9399 9.04993L52.0399 17.26C51.7999 17.76 51.2099 17.97 50.7099 17.73C50.2099 17.49 49.9999 16.9 50.2399 16.4L52.9299 10.73L42.0799 15.89C41.8199 16.01 41.5299 16.02 41.2699 15.91C41.0099 15.8 40.8099 15.5899 40.7099 15.3199L36.6799 4L32.6499 15.3199C32.5499 15.5899 32.3499 15.8 32.0899 15.91C31.8299 16.02 31.5299 16.01 31.2799 15.89L20.4299 10.73L23.1199 16.4C23.3599 16.9 23.1399 17.5 22.6499 17.73C22.5099 17.8 22.3699 17.83 22.2199 17.83H22.1999Z" fill="#3395EF"/>
</svg>
