<svg width="74" height="70" viewBox="0 0 74 70" fill="none" xmlns="http://www.w3.org/2000/svg">
<path d="M38.5992 69.7732C32.4592 69.7732 26.4091 68.1431 20.9791 64.9431C12.9491 60.2231 7.22915 52.6532 4.88915 43.6332C4.27915 41.2732 3.90916 38.8531 3.79916 36.4331H0.999154C0.619154 36.4231 0.279154 36.2132 0.109154 35.8732C-0.0608456 35.5432 -0.0308437 35.1331 0.189156 34.8331L7.95915 24.0831C8.14915 23.8231 8.44916 23.6731 8.76916 23.6731C9.08916 23.6731 9.38916 23.8331 9.57916 24.0931L17.2492 34.7931C17.4692 35.1031 17.4991 35.5031 17.3191 35.8431C17.1491 36.1831 16.8192 36.3732 16.4192 36.3832L13.8991 36.3431C14.0191 38.2931 14.3692 40.2332 14.9492 42.1232C18.9492 55.1832 32.8291 62.5631 45.8891 58.5631C52.2191 56.6231 57.4091 52.3432 60.5191 46.4932C63.6291 40.6532 64.2691 33.9431 62.3291 27.6131C60.3891 21.2831 56.1091 16.0831 50.2691 12.9831C44.4291 9.87315 37.7192 9.23309 31.3892 11.1731C27.7792 12.2831 24.5491 14.1331 21.7891 16.6931C19.5091 18.8031 17.6692 21.2831 16.3292 24.0831C16.0892 24.5831 15.4892 24.7831 14.9892 24.5531C14.4892 24.3131 14.2792 23.7131 14.5192 23.2231C15.9792 20.2031 17.9592 17.5132 20.4192 15.2432C23.3992 12.4732 26.8891 10.4632 30.7891 9.27318C37.6291 7.18318 44.8692 7.87315 51.1892 11.2331C57.5092 14.5931 62.1392 20.2031 64.2292 27.0431C66.3192 33.8831 65.6291 41.1231 62.2691 47.4431C58.9091 53.7631 53.2991 58.3931 46.4591 60.4831C32.3391 64.8031 17.3392 56.8331 13.0192 42.7131C12.2892 40.3131 11.8892 37.8331 11.8492 35.3531C11.8492 35.0831 11.9492 34.8232 12.1392 34.6332C12.3292 34.4432 12.5892 34.3531 12.8592 34.3431L14.4492 34.3632L8.73916 26.4032L2.91915 34.4531H4.73916C5.27916 34.4531 5.72916 34.9031 5.73916 35.4431C5.78916 38.0331 6.13916 40.6232 6.79916 43.1532C9.00916 51.6532 14.3892 58.7831 21.9692 63.2331C29.5392 67.6831 38.3891 68.9131 46.8991 66.7131C64.4491 62.1531 75.0191 44.1732 70.4591 26.6232C68.2491 18.1232 62.8692 10.9931 55.2892 6.54308C47.7192 2.09308 38.8592 0.863102 30.3592 3.0631C25.0692 4.4331 20.1692 7.13314 16.1892 10.8531L16.0691 10.9631C14.1291 12.7831 12.3992 14.8632 10.9492 17.1332C10.6492 17.6032 10.0291 17.7331 9.56915 17.4331C9.10915 17.1331 8.96916 16.5131 9.26916 16.0531C10.8092 13.6531 12.6491 11.4331 14.7291 9.48315L14.8592 9.37316C19.0592 5.45316 24.2592 2.59317 29.8592 1.13317C38.8792 -1.20683 48.2691 0.103112 56.2991 4.82311C64.3291 9.54311 70.0491 17.1132 72.3891 26.1332C77.2191 44.7532 66.0091 63.8331 47.3891 68.6631C44.4691 69.4231 41.5092 69.7931 38.5592 69.7931L38.5992 69.7732Z" fill="#3395EF"/>
</svg>
