<svg width="63" height="73" viewBox="0 0 63 73" fill="none" xmlns="http://www.w3.org/2000/svg">
<path d="M31.26 72.1049C31.16 72.1049 31.06 72.085 30.96 72.055C12.44 66.265 0 49.325 0 29.905V10.065C0 9.51502 0.45 9.06502 1 9.06502C11.6 9.06502 21.88 5.985 30.71 0.165C31.04 -0.055 31.48 -0.055 31.81 0.165C40.64 5.985 50.92 9.06502 61.52 9.06502C62.07 9.06502 62.52 9.51502 62.52 10.065V29.905C62.52 49.325 50.08 66.265 31.56 72.055C31.46 72.085 31.36 72.1049 31.26 72.1049ZM2 11.055V29.905C2 48.345 13.75 64.435 31.26 70.055C48.78 64.435 60.52 48.345 60.52 29.905V11.055C50.1 10.875 40.02 7.81503 31.26 2.19503C22.5 7.82503 12.42 10.875 2 11.055Z" fill="#3395EF"/>
<path d="M31.6767 50C31.3045 50 31 49.6955 31 49.3233V36.6767C31 36.3045 31.3045 36 31.6767 36H44.3233C44.6955 36 45 36.3045 45 36.6767C45 37.0488 44.6955 37.3533 44.3233 37.3533H32.3533V49.3233C32.3533 49.6955 32.0488 50 31.6767 50Z" fill="#3395EF"/>
<circle cx="32" cy="36" r="18" stroke="#3395EF" stroke-width="2"/>
</svg>
