<svg width="71" height="71" viewBox="0 0 71 71" fill="none" xmlns="http://www.w3.org/2000/svg">
<path d="M2.35152 26.91C2.26152 26.91 2.17149 26.9 2.07149 26.87C1.54149 26.72 1.23155 26.16 1.38155 25.63C5.71155 10.54 19.6815 0 35.3715 0H35.3915C35.8015 0 36.1615 0.239995 36.3115 0.619995C36.4715 0.989995 36.3815 1.41996 36.0915 1.70996L31.0915 6.70996C30.7015 7.09996 30.0715 7.09996 29.6815 6.70996C29.2915 6.31996 29.2915 5.69005 29.6815 5.30005L32.8816 2.09998C19.1216 3.13998 7.16154 12.7499 3.31154 26.1799C3.18154 26.6199 2.78152 26.9 2.35152 26.9V26.91Z" fill="#3395EF"/>
<path d="M69.7828 36.3903C69.5228 36.3903 69.2628 36.2903 69.0728 36.1003L64.0728 31.1003C63.6828 30.7103 63.6828 30.0803 64.0728 29.6903C64.4628 29.3003 65.0928 29.3003 65.4828 29.6903L68.6828 32.8903C67.6428 19.1303 58.0328 7.17027 44.6028 3.32027C44.0728 3.17027 43.7628 2.61028 43.9128 2.08028C44.0628 1.55028 44.6228 1.24034 45.1528 1.39034C60.2528 5.72034 70.7828 19.7003 70.7828 35.3903C70.7828 35.8003 70.5428 36.1603 70.1628 36.3103C70.0428 36.3603 69.9128 36.3903 69.7828 36.3903Z" fill="#3395EF"/>
<path d="M35.4091 70.7799H35.3891C34.9791 70.7799 34.6191 70.5399 34.4691 70.1599C34.3091 69.7899 34.3992 69.3598 34.6892 69.0698L39.6892 64.0698C40.0792 63.6798 40.7091 63.6798 41.0991 64.0698C41.4891 64.4598 41.4891 65.0898 41.0991 65.4798L37.8991 68.6798C51.6591 67.6398 63.6191 58.0298 67.4691 44.5998C67.6191 44.0698 68.1691 43.7599 68.7091 43.9099C69.2391 44.0599 69.5491 44.6199 69.3991 45.1499C65.0691 60.2399 51.0991 70.7799 35.4091 70.7799Z" fill="#3395EF"/>
<path d="M25.91 69.4301C25.82 69.4301 25.73 69.4202 25.63 69.3902C10.53 65.0602 0 51.0802 0 35.3902C0 34.9802 0.239995 34.6201 0.619995 34.4701C0.989995 34.3101 1.41996 34.4001 1.70996 34.6901L6.70996 39.6901C7.09996 40.0801 7.09996 40.7101 6.70996 41.1001C6.31996 41.4901 5.68999 41.4901 5.29999 41.1001L2.09998 37.9002C3.13998 51.6602 12.75 63.6201 26.18 67.4701C26.71 67.6201 27.02 68.1801 26.87 68.7101C26.74 69.1501 26.34 69.4301 25.91 69.4301Z" fill="#3395EF"/>
<path d="M16.5182 40.2007C16.5182 40.6507 16.1583 40.8707 15.4383 40.8707C14.7183 40.8707 14.3582 40.6507 14.3582 40.2007V30.0308L11.9182 30.3607C11.7182 30.3807 11.5582 30.3207 11.4282 30.2007C11.2982 30.0807 11.2282 29.8608 11.1982 29.5308C11.1082 28.9008 11.2483 28.5607 11.6283 28.5007L14.0982 28.1407C14.6382 28.0507 15.1582 28.0107 15.6682 28.0107C16.2282 28.0107 16.4983 28.2407 16.4983 28.7007L16.5182 40.2107V40.2007Z" fill="#3395EF"/>
<path d="M28.4606 36.9703C28.4606 38.1803 28.1007 39.1304 27.3607 39.8604C26.6207 40.5904 25.6807 40.9403 24.5507 40.9403C23.4207 40.9403 22.4807 40.5804 21.7407 39.8604C21.0007 39.1404 20.6406 38.1603 20.6406 36.9603V31.8004C20.6406 30.5904 21.0206 29.6204 21.7606 28.9004C22.5006 28.1804 23.4406 27.8203 24.5706 27.8203C25.7006 27.8203 26.6407 28.1804 27.3807 28.9004C28.1207 29.6204 28.5007 30.5804 28.5007 31.7904L28.4606 36.9803V36.9703ZM22.7407 36.8303C22.7407 38.3603 23.3306 39.1204 24.5306 39.1204C25.7306 39.1204 26.3206 38.3603 26.3206 36.8303V31.9603C26.3206 30.4303 25.7206 29.6704 24.5306 29.6704C23.3406 29.6704 22.7407 30.4303 22.7407 31.9603V36.8303Z" fill="#3395EF"/>
<path d="M35.9891 32.1907C35.9891 31.6907 36.209 31.4307 36.639 31.4307H41.759C42.189 31.4307 42.4091 31.6807 42.4091 32.1907V40.2007C42.4091 40.6307 42.069 40.8507 41.399 40.8507C40.729 40.8507 40.389 40.6307 40.389 40.2007V33.1708H38.009V36.2207C38.009 38.4007 37.199 39.9007 35.579 40.7107C35.379 40.8007 35.1791 40.8507 34.9791 40.8507C34.7491 40.8507 34.529 40.7408 34.329 40.5208C34.129 40.3008 34.0391 40.0507 34.0391 39.7607C34.0391 39.4507 34.1791 39.2207 34.4891 39.0607C35.4591 38.5407 35.949 37.5608 35.949 36.1608L35.9891 32.1907Z" fill="#3395EF"/>
<path d="M46.4019 37.9108C46.4019 38.3408 46.5319 38.6708 46.7819 38.9008C47.0319 39.1308 47.3619 39.2407 47.7719 39.2407C48.1819 39.2407 48.5519 39.1308 48.8019 38.9008C49.0519 38.6708 49.1819 38.4007 49.1819 38.0707V38.0208C49.1819 37.5908 49.5219 37.3707 50.1919 37.3707C50.8619 37.3707 51.2018 37.5908 51.2018 38.0208V38.1508C51.2018 38.9308 50.8918 39.5908 50.2618 40.1508C49.6318 40.7108 48.8218 40.9807 47.8318 40.9807C46.7818 40.9807 45.9519 40.6707 45.3419 40.0807C44.7319 39.4807 44.4219 38.7107 44.4219 37.7507V34.5607C44.4219 33.5107 44.7518 32.7007 45.3918 32.1307C46.0418 31.5507 46.8719 31.2607 47.8619 31.2607C48.8519 31.2607 49.6819 31.5507 50.3119 32.1107C50.9419 32.6707 51.2519 33.3707 51.2519 34.2207C51.2519 35.5707 50.4719 36.4207 48.9119 36.7607L47.0019 37.1907C46.6419 37.2607 46.4619 37.4107 46.4619 37.6007L46.4119 37.9108H46.4019ZM47.8218 32.9707C47.4018 32.9707 47.0818 33.0807 46.8318 33.3107C46.5818 33.5407 46.4518 33.8708 46.4518 34.3008V35.6307C46.5218 35.5807 46.6719 35.5207 46.8719 35.4907L48.0219 35.2207C48.4519 35.1107 48.7619 34.9708 48.9419 34.7908C49.1219 34.6108 49.2119 34.3707 49.2119 34.0907C49.2119 33.7707 49.0818 33.4908 48.8318 33.2808C48.5818 33.0608 48.2418 32.9507 47.8218 32.9507V32.9707Z" fill="#3395EF"/>
<path d="M59.06 31.4307C59.44 31.4307 59.62 31.7208 59.62 32.3008C59.62 32.8808 59.42 33.1708 59.04 33.1708H57.0699V40.2007C57.0699 40.6307 56.73 40.8507 56.06 40.8507C55.39 40.8507 55.05 40.6307 55.05 40.2007V33.1708H53.08C52.7 33.1708 52.5 32.8808 52.5 32.3008C52.5 31.7208 52.68 31.4307 53.06 31.4307H59.05H59.06Z" fill="#3395EF"/>
</svg>
