<svg width="69" height="68" viewBox="0 0 69 68" fill="none" xmlns="http://www.w3.org/2000/svg">
<path d="M14.91 27.4102H1C0.45 27.4102 0 26.9602 0 26.4102C0 25.8602 0.45 25.4102 1 25.4102H14.91C15.46 25.4102 15.91 25.8602 15.91 26.4102C15.91 26.9602 15.46 27.4102 14.91 27.4102Z" fill="#3395EF"/>
<path d="M6.91 17.4102H1C0.45 17.4102 0 16.9602 0 16.4102C0 15.8602 0.45 15.4102 1 15.4102H6.91C7.46 15.4102 7.91 15.8602 7.91 16.4102C7.91 16.9602 7.46 17.4102 6.91 17.4102Z" fill="#3395EF"/>
<path d="M14.91 7.41016H1C0.45 7.41016 0 6.96016 0 6.41016C0 5.86016 0.45 5.41016 1 5.41016H14.91C15.46 5.41016 15.91 5.86016 15.91 6.41016C15.91 6.96016 15.46 7.41016 14.91 7.41016Z" fill="#3395EF"/>
<path d="M6.91 37.4102H1C0.45 37.4102 0 36.9602 0 36.4102C0 35.8602 0.45 35.4102 1 35.4102H6.91C7.46 35.4102 7.91 35.8602 7.91 36.4102C7.91 36.9602 7.46 37.4102 6.91 37.4102Z" fill="#3395EF"/>
<path d="M14.91 47.4102H1C0.45 47.4102 0 46.9602 0 46.4102C0 45.8602 0.45 45.4102 1 45.4102H14.91C15.46 45.4102 15.91 45.8602 15.91 46.4102C15.91 46.9602 15.46 47.4102 14.91 47.4102Z" fill="#3395EF"/>
<path d="M6.91 57.4102H1C0.45 57.4102 0 56.9602 0 56.4102C0 55.8602 0.45 55.4102 1 55.4102H6.91C7.46 55.4102 7.91 55.8602 7.91 56.4102C7.91 56.9602 7.46 57.4102 6.91 57.4102Z" fill="#3395EF"/>
<path d="M67.2578 37.4102H65.2578C64.7078 37.4102 64.2578 36.9602 64.2578 36.4102C64.2578 35.8602 64.7078 35.4102 65.2578 35.4102H67.2578C67.8078 35.4102 68.2578 35.8602 68.2578 36.4102C68.2578 36.9602 67.8078 37.4102 67.2578 37.4102Z" fill="#3395EF"/>
<path d="M61.3856 37.4102H57.5156C56.9656 37.4102 56.5156 36.9602 56.5156 36.4102C56.5156 35.8602 56.9656 35.4102 57.5156 35.4102H61.3856C61.9356 35.4102 62.3856 35.8602 62.3856 36.4102C62.3856 36.9602 61.9356 37.4102 61.3856 37.4102ZM53.6356 37.4102H49.7656C49.2156 37.4102 48.7656 36.9602 48.7656 36.4102C48.7656 35.8602 49.2156 35.4102 49.7656 35.4102H53.6356C54.1856 35.4102 54.6356 35.8602 54.6356 36.4102C54.6356 36.9602 54.1856 37.4102 53.6356 37.4102ZM45.8856 37.4102H42.0156C41.4656 37.4102 41.0156 36.9602 41.0156 36.4102C41.0156 35.8602 41.4656 35.4102 42.0156 35.4102H45.8856C46.4356 35.4102 46.8856 35.8602 46.8856 36.4102C46.8856 36.9602 46.4356 37.4102 45.8856 37.4102ZM38.1356 37.4102H34.2656C33.7156 37.4102 33.2656 36.9602 33.2656 36.4102C33.2656 35.8602 33.7156 35.4102 34.2656 35.4102H38.1356C38.6856 35.4102 39.1356 35.8602 39.1356 36.4102C39.1356 36.9602 38.6856 37.4102 38.1356 37.4102ZM30.3856 37.4102H26.5156C25.9656 37.4102 25.5156 36.9602 25.5156 36.4102C25.5156 35.8602 25.9656 35.4102 26.5156 35.4102H30.3856C30.9356 35.4102 31.3856 35.8602 31.3856 36.4102C31.3856 36.9602 30.9356 37.4102 30.3856 37.4102ZM22.6356 37.4102H18.7656C18.2156 37.4102 17.7656 36.9602 17.7656 36.4102C17.7656 35.8602 18.2156 35.4102 18.7656 35.4102H22.6356C23.1856 35.4102 23.6356 35.8602 23.6356 36.4102C23.6356 36.9602 23.1856 37.4102 22.6356 37.4102Z" fill="#3395EF"/>
<path d="M14.9062 37.4102H12.9062C12.3562 37.4102 11.9062 36.9602 11.9062 36.4102C11.9062 35.8602 12.3562 35.4102 12.9062 35.4102H14.9062C15.4562 35.4102 15.9062 35.8602 15.9062 36.4102C15.9062 36.9602 15.4562 37.4102 14.9062 37.4102Z" fill="#3395EF"/>
<path d="M67.2578 27.4102H65.2578C64.7078 27.4102 64.2578 26.9602 64.2578 26.4102C64.2578 25.8602 64.7078 25.4102 65.2578 25.4102H67.2578C67.8078 25.4102 68.2578 25.8602 68.2578 26.4102C68.2578 26.9602 67.8078 27.4102 67.2578 27.4102Z" fill="#3395EF"/>
<path d="M61.4078 27.4102H57.5578C57.0078 27.4102 56.5578 26.9602 56.5578 26.4102C56.5578 25.8602 57.0078 25.4102 57.5578 25.4102H61.4078C61.9578 25.4102 62.4078 25.8602 62.4078 26.4102C62.4078 26.9602 61.9578 27.4102 61.4078 27.4102ZM53.7078 27.4102H49.8578C49.3078 27.4102 48.8578 26.9602 48.8578 26.4102C48.8578 25.8602 49.3078 25.4102 49.8578 25.4102H53.7078C54.2578 25.4102 54.7078 25.8602 54.7078 26.4102C54.7078 26.9602 54.2578 27.4102 53.7078 27.4102ZM46.0078 27.4102H42.1578C41.6078 27.4102 41.1578 26.9602 41.1578 26.4102C41.1578 25.8602 41.6078 25.4102 42.1578 25.4102H46.0078C46.5578 25.4102 47.0078 25.8602 47.0078 26.4102C47.0078 26.9602 46.5578 27.4102 46.0078 27.4102ZM38.3078 27.4102H34.4578C33.9078 27.4102 33.4578 26.9602 33.4578 26.4102C33.4578 25.8602 33.9078 25.4102 34.4578 25.4102H38.3078C38.8578 25.4102 39.3078 25.8602 39.3078 26.4102C39.3078 26.9602 38.8578 27.4102 38.3078 27.4102ZM30.6078 27.4102H26.7578C26.2078 27.4102 25.7578 26.9602 25.7578 26.4102C25.7578 25.8602 26.2078 25.4102 26.7578 25.4102H30.6078C31.1578 25.4102 31.6078 25.8602 31.6078 26.4102C31.6078 26.9602 31.1578 27.4102 30.6078 27.4102Z" fill="#3395EF"/>
<path d="M22.9062 27.4102H20.9062C20.3562 27.4102 19.9062 26.9602 19.9062 26.4102C19.9062 25.8602 20.3562 25.4102 20.9062 25.4102H22.9062C23.4562 25.4102 23.9062 25.8602 23.9062 26.4102C23.9062 26.9602 23.4562 27.4102 22.9062 27.4102Z" fill="#3395EF"/>
<path d="M67.2578 7.41016H65.2578C64.7078 7.41016 64.2578 6.96016 64.2578 6.41016C64.2578 5.86016 64.7078 5.41016 65.2578 5.41016H67.2578C67.8078 5.41016 68.2578 5.86016 68.2578 6.41016C68.2578 6.96016 67.8078 7.41016 67.2578 7.41016Z" fill="#3395EF"/>
<path d="M61.4078 7.41016H57.5578C57.0078 7.41016 56.5578 6.96016 56.5578 6.41016C56.5578 5.86016 57.0078 5.41016 57.5578 5.41016H61.4078C61.9578 5.41016 62.4078 5.86016 62.4078 6.41016C62.4078 6.96016 61.9578 7.41016 61.4078 7.41016ZM53.7078 7.41016H49.8578C49.3078 7.41016 48.8578 6.96016 48.8578 6.41016C48.8578 5.86016 49.3078 5.41016 49.8578 5.41016H53.7078C54.2578 5.41016 54.7078 5.86016 54.7078 6.41016C54.7078 6.96016 54.2578 7.41016 53.7078 7.41016ZM46.0078 7.41016H42.1578C41.6078 7.41016 41.1578 6.96016 41.1578 6.41016C41.1578 5.86016 41.6078 5.41016 42.1578 5.41016H46.0078C46.5578 5.41016 47.0078 5.86016 47.0078 6.41016C47.0078 6.96016 46.5578 7.41016 46.0078 7.41016ZM38.3078 7.41016H34.4578C33.9078 7.41016 33.4578 6.96016 33.4578 6.41016C33.4578 5.86016 33.9078 5.41016 34.4578 5.41016H38.3078C38.8578 5.41016 39.3078 5.86016 39.3078 6.41016C39.3078 6.96016 38.8578 7.41016 38.3078 7.41016ZM30.6078 7.41016H26.7578C26.2078 7.41016 25.7578 6.96016 25.7578 6.41016C25.7578 5.86016 26.2078 5.41016 26.7578 5.41016H30.6078C31.1578 5.41016 31.6078 5.86016 31.6078 6.41016C31.6078 6.96016 31.1578 7.41016 30.6078 7.41016Z" fill="#3395EF"/>
<path d="M22.9062 7.41016H20.9062C20.3562 7.41016 19.9062 6.96016 19.9062 6.41016C19.9062 5.86016 20.3562 5.41016 20.9062 5.41016H22.9062C23.4562 5.41016 23.9062 5.86016 23.9062 6.41016C23.9062 6.96016 23.4562 7.41016 22.9062 7.41016Z" fill="#3395EF"/>
<path d="M61.61 67.41H6.64999C2.97999 67.41 0 64.43 0 60.76V1C0 0.45 0.45 0 1 0C1.55 0 2 0.45 2 1V60.76C2 63.32 4.07999 65.41 6.64999 65.41H61.61C64.17 65.41 66.26 63.33 66.26 60.76V1C66.26 0.45 66.71 0 67.26 0C67.81 0 68.26 0.45 68.26 1V60.76C68.26 64.43 65.28 67.41 61.61 67.41Z" fill="#3395EF"/>
</svg>
