<svg width="47" height="47" viewBox="0 0 47 47" fill="none" xmlns="http://www.w3.org/2000/svg">
<path d="M44.6927 46.0995H2.00545C1.08846 45.7801 0.718749 45.1307 0.773476 44.1871C0.808745 43.5736 0.728475 42.9505 0.800228 42.3443C0.846442 41.9505 0.989953 41.5063 1.24535 41.2158C1.48128 40.9469 1.5579 40.7164 1.5579 40.3923C1.55304 29.9346 1.55425 19.477 1.55425 9.01941C1.55425 8.84173 1.55425 8.66406 1.55425 8.46477C0.750367 8.41195 0.294311 7.95336 0 7.29308V4.86205C0.318634 4.09253 0.906038 3.70837 1.73911 3.64234C2.08571 3.61473 2.42745 3.53189 2.77163 3.47307C8.33434 2.52587 13.8971 1.57987 19.4586 0.627865C20.6066 0.430982 21.7498 0.210089 22.8942 0C23.1983 0 23.5023 0 23.8063 0C23.8599 0.0252106 23.9109 0.0636267 23.9669 0.0732308C25.7911 0.382961 27.6166 0.68789 29.4408 0.997621C34.6144 1.87639 39.7867 2.76717 44.9639 3.62913C45.7775 3.76479 46.3856 4.08773 46.7006 4.86205V7.29308C46.405 7.96656 45.9222 8.41195 45.1463 8.47798V8.88375C45.1463 19.4314 45.1463 29.9791 45.1463 40.5267C45.1463 40.5711 45.1329 40.6227 45.1487 40.6612C45.2083 40.8004 45.2448 40.9721 45.3506 41.0669C45.7349 41.4139 45.9198 41.8329 45.9186 42.3419C45.9173 42.9565 45.8906 43.5736 45.9259 44.1871C45.9794 45.1295 45.6109 45.7801 44.6939 46.1007L44.6927 46.0995ZM6.24255 40.6864H22.5403V11.5645H6.24255V40.6864ZM40.4483 40.6948V11.5549H24.1663V40.6948H40.4483ZM43.5702 8.49479H3.14621V40.6852H4.66276C4.66276 40.4655 4.66276 40.2734 4.66276 40.0813C4.66276 30.6429 4.66276 21.2058 4.66276 11.7674C4.66276 10.6257 5.26598 9.99182 6.36295 9.99182C17.6866 9.99062 29.0115 9.99062 40.3352 9.99182C40.5152 9.99182 40.7025 10.0014 40.8751 10.047C41.6389 10.2487 42.0354 10.8418 42.0354 11.7662C42.0354 21.219 42.0354 30.6717 42.0354 40.1245V40.684H43.5677V8.49479H43.5702ZM45.1317 5.23421C43.8949 5.02052 42.686 4.80803 41.4747 4.60274C36.0458 3.67715 30.6168 2.74796 25.1842 1.83557C24.4436 1.71072 23.6604 1.51024 22.9429 1.62549C17.2342 2.54748 11.5365 3.53549 5.83514 4.5055C4.41709 4.7468 3.00026 4.99171 1.57736 5.23541V6.88851H45.1305V5.23421H45.1317ZM44.3351 42.2794H2.37637V44.5316H44.3351V42.2794Z" fill="#00B9E4"/>
<path d="M18.3051 34.5757C18.3805 34.5757 18.4571 34.5745 18.5325 34.5757C19.1139 34.5853 19.4459 34.8675 19.4422 35.3489C19.4386 35.8291 19.109 36.1016 18.5204 36.1088C18.3234 36.1112 18.1263 36.116 17.9293 36.1064C17.4489 36.0848 17.1425 35.793 17.134 35.3597C17.1254 34.9071 17.4392 34.6009 17.9415 34.5769C18.0619 34.5709 18.1835 34.5769 18.3051 34.5757Z" fill="#00B9E4"/>
<path d="M14.3944 17.6633C14.2728 17.6633 14.1512 17.6681 14.0308 17.6621C13.5553 17.6369 13.2354 17.3367 13.2293 16.9141C13.2233 16.4988 13.5431 16.1686 14.0077 16.135C14.2485 16.117 14.4929 16.1206 14.7349 16.1326C15.2324 16.1578 15.5668 16.4808 15.5607 16.9129C15.5546 17.3475 15.219 17.6453 14.7131 17.6633C14.6072 17.6669 14.5002 17.6633 14.3944 17.6633Z" fill="#00B9E4"/>
<path d="M10.494 14.59C9.70956 14.5924 9.33985 14.3487 9.33863 13.8313C9.3362 13.3115 9.71321 13.0582 10.4891 13.0594C10.6411 13.0594 10.7944 13.0498 10.944 13.0666C11.3745 13.1134 11.6785 13.4483 11.6676 13.8493C11.6566 14.2551 11.3465 14.56 10.905 14.59C10.7688 14.5996 10.6326 14.5912 10.4952 14.5912L10.494 14.59Z" fill="#00B9E4"/>
<path d="M14.3726 14.5924C13.5991 14.5924 13.2209 14.3354 13.2294 13.8168C13.2379 13.3054 13.6186 13.0581 14.3957 13.0581C15.1765 13.0581 15.5547 13.3042 15.5632 13.8168C15.5717 14.3414 15.1874 14.5936 14.3726 14.5924Z" fill="#00B9E4"/>
<path d="M10.494 17.6578C9.70592 17.6638 9.33985 17.4237 9.33863 16.9051C9.3362 16.3841 9.71443 16.126 10.4879 16.1296C10.6837 16.1296 10.8856 16.1248 11.0753 16.1668C11.456 16.2532 11.7102 16.6014 11.6615 16.9651C11.608 17.3685 11.3721 17.6158 10.95 17.6554C10.7992 17.6698 10.6472 17.6578 10.4952 17.6578H10.494Z" fill="#00B9E4"/>
<path d="M14.4145 31.5097C15.1868 31.5073 15.5699 31.7654 15.5626 32.2792C15.5553 32.7931 15.1746 33.0416 14.3975 33.0416C14.2613 33.0416 14.1239 33.0488 13.9877 33.0368C13.534 32.9959 13.2117 32.6538 13.23 32.2396C13.2482 31.8362 13.562 31.5373 14.0059 31.5109C14.1421 31.5025 14.2783 31.5097 14.4157 31.5097H14.4145Z" fill="#00B9E4"/>
<path d="M18.2976 14.5867C18.1455 14.5867 17.9935 14.5987 17.8427 14.5855C17.4414 14.5483 17.1641 14.2722 17.1361 13.894C17.1069 13.4943 17.3538 13.1353 17.7588 13.0837C18.1018 13.0405 18.4581 13.0417 18.801 13.0801C19.2085 13.1257 19.4626 13.4751 19.4407 13.876C19.4201 14.2578 19.1501 14.5423 18.7524 14.5843C18.6028 14.5999 18.4496 14.5867 18.2976 14.5879V14.5867Z" fill="#00B9E4"/>
<path d="M10.4977 20.7278C9.70839 20.7374 9.34353 20.4985 9.33867 19.9811C9.3338 19.4504 9.7169 19.1971 10.5281 19.2007C10.6947 19.2007 10.8637 19.1983 11.0255 19.2295C11.4353 19.31 11.7078 19.6497 11.6603 20.0339C11.6105 20.4384 11.3745 20.6858 10.9525 20.7266C10.8029 20.741 10.6497 20.729 10.4977 20.729V20.7278Z" fill="#00B9E4"/>
<path d="M14.3822 20.729C13.5977 20.7374 13.228 20.4925 13.2293 19.9739C13.2293 19.4577 13.6136 19.1984 14.3834 19.2008C14.5646 19.2008 14.7495 19.1972 14.9258 19.2308C15.315 19.3064 15.5716 19.6306 15.5594 19.9955C15.546 20.3845 15.2542 20.6846 14.8358 20.7254C14.6862 20.7398 14.533 20.7278 14.381 20.7278L14.3822 20.729Z" fill="#00B9E4"/>
<path d="M10.5043 33.0294C10.3377 33.0294 10.1675 33.0498 10.0045 33.0258C9.59831 32.9646 9.32346 32.626 9.33927 32.2395C9.3563 31.8493 9.65304 31.542 10.0678 31.5144C10.339 31.4964 10.6138 31.4988 10.8862 31.512C11.3338 31.5324 11.6451 31.8289 11.6646 32.2347C11.6852 32.6512 11.3666 32.9946 10.913 33.0366C10.778 33.0486 10.6406 33.039 10.5031 33.039C10.5031 33.0366 10.5031 33.033 10.5031 33.0306L10.5043 33.0294Z" fill="#00B9E4"/>
<path d="M18.2685 33.0368C18.1323 33.0368 17.9948 33.0488 17.8599 33.0344C17.4196 32.9887 17.1314 32.6766 17.1338 32.2612C17.1375 31.8423 17.4293 31.5397 17.8757 31.5121C18.1323 31.4965 18.3913 31.5001 18.6479 31.5097C19.1307 31.5289 19.4336 31.8195 19.4409 32.2552C19.4482 32.6886 19.1453 33.0008 18.6759 33.0368C18.5409 33.0476 18.4035 33.038 18.2673 33.038C18.2673 33.038 18.2673 33.0368 18.2673 33.0356L18.2685 33.0368Z" fill="#00B9E4"/>
<path d="M10.4807 36.107C9.70722 36.1082 9.33143 35.8524 9.33873 35.3314C9.34602 34.8152 9.71574 34.5739 10.5026 34.5751C10.6388 34.5751 10.7762 34.5679 10.9124 34.5787C11.3478 34.6135 11.6616 34.9293 11.6677 35.3302C11.675 35.7516 11.3539 36.0745 10.8905 36.1046C10.7543 36.113 10.6181 36.1057 10.4807 36.1057V36.107Z" fill="#00B9E4"/>
<path d="M14.392 39.1761C14.2703 39.1761 14.1487 39.1809 14.0283 39.1749C13.5577 39.1509 13.2342 38.8447 13.2293 38.4233C13.2244 38.0092 13.5479 37.6778 14.0101 37.6478C14.2521 37.6322 14.4953 37.6346 14.7373 37.6454C15.2311 37.6694 15.5692 37.996 15.5607 38.427C15.5522 38.8615 15.2153 39.1581 14.7106 39.1761C14.6048 39.1797 14.4978 39.1761 14.392 39.1761Z" fill="#00B9E4"/>
<path d="M14.3822 36.1085C13.6075 36.1085 13.228 35.8552 13.2293 35.3401C13.2305 34.8275 13.6123 34.5742 14.387 34.5742C15.1763 34.5742 15.5473 34.8095 15.5631 35.3209C15.5789 35.8492 15.1909 36.1073 14.3834 36.1073L14.3822 36.1085Z" fill="#00B9E4"/>
<path d="M10.4879 39.1743C9.70713 39.1767 9.3362 38.9294 9.33863 38.4096C9.34107 37.8909 9.71686 37.6412 10.4952 37.6412C10.6472 37.6412 10.8005 37.6316 10.95 37.6496C11.3806 37.7013 11.681 38.0398 11.6664 38.4396C11.6518 38.8477 11.3441 39.1431 10.8978 39.1719C10.7615 39.1803 10.6253 39.1731 10.4879 39.1731V39.1743Z" fill="#00B9E4"/>
<path d="M18.2514 39.1713C18.1152 39.1713 17.9777 39.1821 17.8427 39.1689C17.439 39.1317 17.1641 38.8592 17.1362 38.4798C17.107 38.0788 17.3502 37.7235 17.7576 37.6707C18.0993 37.6262 18.4557 37.6262 18.7986 37.6659C19.2097 37.7139 19.4602 38.0596 19.4396 38.4606C19.4177 38.8616 19.1367 39.1389 18.7062 39.1713C18.5554 39.1821 18.4034 39.1737 18.2514 39.1737C18.2514 39.1737 18.2514 39.1725 18.2514 39.1713Z" fill="#00B9E4"/>
<path d="M18.277 17.6635C18.1712 17.6635 18.0642 17.6671 17.9583 17.6635C17.4427 17.6431 17.1338 17.3562 17.1338 16.9036C17.1338 16.4582 17.45 16.1569 17.9583 16.1317C18.17 16.1209 18.3828 16.1221 18.5944 16.1317C19.1295 16.1533 19.453 16.4606 19.4408 16.9252C19.4287 17.3802 19.1259 17.6467 18.5944 17.6635C18.4886 17.6671 18.3828 17.6635 18.2758 17.6635H18.277Z" fill="#00B9E4"/>
<path d="M18.2626 20.7378C18.1872 20.7378 18.1105 20.739 18.0351 20.7378C17.4489 20.7222 17.1254 20.4425 17.134 19.9611C17.1412 19.5025 17.466 19.2204 18.0181 19.2024C18.2443 19.1952 18.4742 19.188 18.6992 19.2108C19.1735 19.2576 19.458 19.5745 19.441 20.0115C19.424 20.4281 19.137 20.7006 18.6712 20.733C18.5362 20.7426 18.3988 20.7342 18.2626 20.7342C18.2626 20.7354 18.2626 20.7366 18.2626 20.739V20.7378Z" fill="#00B9E4"/>
<path d="M32.2927 28.4362C30.8187 28.4362 29.346 28.4398 27.872 28.4362C26.1085 28.4302 25.1563 26.8707 26.0039 25.3449C27.5132 22.6257 29.0383 19.9162 30.5731 17.2102C31.3891 15.772 33.2036 15.7588 34.0184 17.1898C35.5557 19.8934 37.0795 22.6041 38.59 25.3232C39.4571 26.8839 38.5134 28.4314 36.7147 28.4374C35.2407 28.4422 33.7679 28.4374 32.2939 28.4374L32.2927 28.4362ZM32.266 26.8995C33.7399 26.8995 35.2152 26.9019 36.6891 26.8995C37.3252 26.8983 37.521 26.5862 37.2145 26.0375C35.7162 23.3616 34.213 20.6881 32.7074 18.017C32.4435 17.5476 32.1614 17.5548 31.8926 18.0326C30.3931 20.6905 28.896 23.3508 27.4037 26.0123C27.0827 26.585 27.2736 26.8983 27.9352 26.8995C29.3788 26.9031 30.8236 26.8995 32.2672 26.8995H32.266Z" fill="#00B9E4"/>
<path d="M32.8699 22.1216C33.2067 22.3365 33.5521 22.4613 33.7333 22.7062C33.8562 22.8719 33.8148 23.2296 33.7285 23.4565C33.5533 23.9151 33.3016 24.3461 33.0742 24.7855C32.8127 25.2897 32.3931 25.4746 31.9723 25.2801C31.5442 25.0832 31.4323 24.6618 31.6634 24.1264C31.6963 24.0484 31.7242 23.9692 31.7656 23.8575C31.616 23.8323 31.4992 23.8179 31.3849 23.7927C30.8607 23.6774 30.6041 23.2284 30.8206 22.7386C31.0505 22.2188 31.3119 21.7122 31.5807 21.2116C31.813 20.777 32.2545 20.6329 32.6509 20.8322C33.0231 21.0195 33.1581 21.4397 32.9805 21.8755C32.9355 21.9859 32.882 22.0916 32.8674 22.1228L32.8699 22.1216Z" fill="#00B9E4"/>
</svg>
