<svg width="44" height="44" viewBox="0 0 44 44" fill="none" xmlns="http://www.w3.org/2000/svg">
<path d="M38.4138 35.0268H23.0915C23.0799 35.135 23.0589 35.2431 23.0589 35.35C23.0554 36.039 23.0647 36.728 23.0554 37.417C23.0449 38.1151 23.0927 38.7558 23.4725 39.4171C24.1262 40.557 23.6729 41.9982 22.5788 42.77C21.48 43.544 19.9898 43.4313 19.0168 42.5008C18.0579 41.583 17.9064 40.1395 18.623 39.0272C18.7605 38.8144 18.8514 38.5361 18.8572 38.2853C18.8805 37.2387 18.8642 36.1908 18.8607 35.143C18.8607 35.1177 18.8432 35.0913 18.8246 35.0418H6.33485C6.32553 35.135 6.30456 35.2431 6.30456 35.3512C6.30106 36.0689 6.30222 36.7866 6.30339 37.5032C6.30455 38.1542 6.32786 38.7546 6.70072 39.3792C7.3812 40.5202 6.93026 41.9901 5.82449 42.77C4.72571 43.544 3.23543 43.4313 2.26366 42.4997C1.3047 41.5807 1.1544 40.1395 1.87216 39.0261C2.00965 38.8133 2.09937 38.5349 2.10519 38.2842C2.13083 37.2801 2.10869 36.2748 2.12151 35.2707C2.125 35.0176 2.0714 34.8704 1.81739 34.7381C1.10779 34.3655 0.725604 33.7513 0.724439 32.9553C0.717448 26.5269 0.716282 20.0973 0.724439 13.6688C0.725604 12.4749 1.64494 11.5996 2.87655 11.5962C5.23258 11.5893 7.58743 11.5939 9.94346 11.5939C10.0973 11.5939 10.2511 11.5939 10.4923 11.5939C9.71741 10.5725 8.99732 9.6236 8.27723 8.67583C7.22273 7.28755 6.16473 5.90041 5.11489 4.50867C5.024 4.3879 4.9203 4.23493 4.91914 4.0969C4.90399 2.9375 4.90982 1.77811 4.90982 0.595703H23.0577C23.0577 0.863699 23.0601 1.1432 23.0577 1.42269C23.0507 2.36816 23.2581 3.38493 22.9715 4.23953C22.6895 5.07917 21.9077 5.75664 21.3414 6.50311C20.1657 8.05358 18.9865 9.60174 17.8097 11.1511C17.7165 11.273 17.6302 11.4007 17.5126 11.5674H25.8507C25.8507 10.9394 25.8484 10.3011 25.8507 9.66155C25.8554 8.54471 26.4927 7.72232 27.5321 7.50608C27.729 7.46468 27.9364 7.46238 28.138 7.46123C32.6601 7.45893 37.1822 7.45893 41.7043 7.46008C43.1503 7.46008 43.9974 8.30317 43.9974 9.74322C43.9974 17.4058 43.9951 25.0696 44.0021 32.7322C44.0021 33.6662 43.6432 34.3609 42.8019 34.8129C42.7052 34.8647 42.612 35.0234 42.6108 35.1338C42.5969 36.2668 42.5957 37.4008 42.6108 38.5349C42.6132 38.6753 42.7029 38.8282 42.788 38.9525C43.4941 39.9819 43.4708 41.2345 42.718 42.2029C41.9735 43.161 40.7058 43.5256 39.5534 43.1127C38.4138 42.7044 37.6285 41.6071 37.7427 40.4063C37.7904 39.9014 38.0736 39.4183 38.2542 38.926C38.2973 38.8087 38.4068 38.7006 38.408 38.5867C38.4196 37.4135 38.415 36.2391 38.415 35.0257L38.4138 35.0268ZM27.2781 11.6157V33.6397H27.7418C32.3513 33.6397 36.9608 33.6397 41.5703 33.6397C42.4069 33.6397 42.6039 33.4476 42.6039 32.6344C42.6039 25.7885 42.6039 18.9436 42.6039 12.0977V11.6157H27.2781ZM6.30572 1.96444C6.30572 2.52343 6.2929 3.03757 6.31388 3.55171C6.32087 3.70929 6.38845 3.88642 6.48516 4.01409C8.33432 6.46171 10.1893 8.90472 12.056 11.3385C12.1573 11.4708 12.3799 11.5812 12.5477 11.5847C13.5055 11.6077 14.4656 11.6077 15.4234 11.5847C15.5923 11.5801 15.8125 11.4685 15.9151 11.3362C17.7817 8.90242 19.6344 6.45826 21.4882 4.01524C21.5558 3.92552 21.6478 3.82201 21.6502 3.72194C21.6653 3.13994 21.6572 2.55794 21.6572 1.96559H6.30456L6.30572 1.96444ZM20.2345 33.6213V28.1625H7.72492V33.6213H20.2345ZM21.6513 33.6086H25.8286V24.0206H20.2962V26.7604H21.6513V33.6086ZM2.11801 24.0114C2.11801 27.0192 2.11335 29.9844 2.12267 32.9496C2.12384 33.3729 2.41048 33.6248 2.85558 33.6363C3.37759 33.6489 3.90076 33.6397 4.42393 33.6397C5.04265 33.6397 5.66137 33.6397 6.3232 33.6397V26.7397H7.67366V24.0114H2.11801ZM25.8414 12.9994H16.775C16.775 13.4238 16.8041 13.8253 16.7668 14.2209C16.7307 14.5982 16.8589 14.7523 17.2329 14.8777C19.7124 15.7058 21.6234 17.1769 22.6359 19.6395C22.679 19.743 22.862 19.8465 22.9843 19.8523C23.462 19.8764 23.9433 19.8626 24.4222 19.8626C24.8941 19.8626 25.3671 19.8626 25.8414 19.8626V12.9994ZM2.11685 19.8626C3.11891 19.8626 4.0499 19.8534 4.97973 19.8684C5.22325 19.8718 5.27569 19.7453 5.37473 19.5693C5.75458 18.8965 6.09832 18.188 6.58071 17.591C7.67832 16.2292 9.1453 15.3746 10.8139 14.8409C10.9548 14.796 11.1657 14.6672 11.1727 14.566C11.2089 14.0438 11.1902 13.5182 11.1902 12.9753C8.42521 12.9753 5.72312 12.9753 3.01987 12.9753C2.34639 12.9753 2.11801 13.2088 2.11801 13.892C2.11684 15.7426 2.11801 17.5933 2.11801 19.444C2.11801 19.5693 2.11801 19.6947 2.11801 19.8626H2.11685ZM42.5829 10.201C42.6575 8.99329 42.5153 8.84031 41.3641 8.84031C38.3276 8.84031 35.2911 8.84031 32.2546 8.84031C30.8599 8.84031 29.4651 8.84376 28.0704 8.83801C27.6544 8.83686 27.348 8.99214 27.2687 9.40621C27.2198 9.66155 27.2594 9.93415 27.2594 10.201H42.5829ZM11.9208 24.016V26.719H16.0549V24.016H11.9208ZM12.6176 15.7944V19.8304H15.3558V15.7944H12.6176ZM16.8064 16.1717V19.8316H21.2109C20.2694 17.9361 18.7465 16.8307 16.8064 16.1717ZM11.1692 19.8465V16.1659C9.21288 16.8491 7.67948 17.943 6.75549 19.8465H11.1692ZM2.13665 22.5898H7.6655V21.2647H2.13665V22.5898ZM25.8274 22.6024V21.2682H20.2974V22.6024H25.8274ZM5.60544 40.5409C5.6101 39.7933 4.98789 39.1652 4.23167 39.1549C3.47197 39.1445 2.83344 39.7519 2.81713 40.5006C2.80081 41.2655 3.43818 41.9085 4.21303 41.9085C4.97041 41.9085 5.60194 41.2874 5.6066 40.5409H5.60544ZM22.3586 40.5374C22.3621 39.7898 21.7387 39.1641 20.9813 39.1549C20.2216 39.1457 19.5843 39.7553 19.5703 40.5029C19.5551 41.2678 20.1948 41.9096 20.9685 41.9073C21.7247 41.905 22.3551 41.2839 22.3586 40.5374ZM40.5123 41.9073C41.2685 41.905 41.9001 41.2839 41.9036 40.5374C41.9071 39.7898 41.2837 39.1629 40.5263 39.1537C39.7491 39.1445 39.1071 39.7772 39.1141 40.5443C39.1211 41.292 39.755 41.9085 40.5123 41.9062V41.9073ZM11.9091 22.5898H16.0421V21.2636H11.9091V22.5898ZM15.3604 13.0063H12.6083V14.3923H15.3604V13.0063ZM3.53489 37.8115H4.88651V35.0464H3.53489V37.8115ZM20.2962 35.0372V37.8115H21.6327V35.0372H20.2962ZM39.8354 35.0372V37.8115H41.1835V35.0372H39.8354ZM9.12083 24.016V26.7259H10.4631V24.016H9.12083ZM17.4928 26.7293H18.8444V24.0264H17.4928V26.7293ZM9.12316 21.2624V22.5898H10.4608V21.2624H9.12316ZM17.4974 21.2601V22.5921H18.8386V21.2601H17.4974Z" fill="#00B9E4"/>
<path d="M41.1751 22.5983H28.6655V13.0068H41.1751V22.5983ZM39.7908 17.794C38.8726 17.794 37.9882 17.7917 37.105 17.794C36.5096 17.7951 35.8082 17.6122 35.3491 17.8618C34.8725 18.1195 34.629 18.7969 34.2864 19.2938C34.0149 19.6872 33.7469 20.084 33.4393 20.5337C32.887 19.4445 32.3802 18.4323 31.8593 17.4282C31.7941 17.3028 31.6671 17.128 31.5587 17.1211C31.0588 17.0877 30.5566 17.1061 30.0591 17.1061V21.2146H39.7908V17.7928V17.794ZM33.6153 17.794C33.8879 17.3914 34.1256 17.0682 34.3319 16.7266C34.474 16.4908 34.6418 16.4045 34.9261 16.408C36.3931 16.4241 37.8612 16.416 39.3282 16.416C39.4809 16.416 39.6347 16.416 39.7745 16.416V14.3721H30.0673V15.7271C30.82 15.7271 31.5447 15.7132 32.2683 15.7386C32.414 15.7443 32.6144 15.8674 32.6854 15.9939C33.0024 16.554 33.2809 17.136 33.6164 17.794H33.6153Z" fill="#00B9E4"/>
<path d="M33.5156 23.9963C34.675 23.9894 35.6269 24.9233 35.6246 26.0666C35.6223 27.1915 34.6866 28.1197 33.5482 28.1266C32.39 28.1347 31.4369 27.1984 31.4392 26.0551C31.4415 24.9302 32.3772 24.0032 33.5156 23.9951V23.9963ZM32.8374 26.0287C32.8188 26.399 33.1218 26.728 33.4981 26.7475C33.8721 26.7659 34.2077 26.4669 34.2264 26.0954C34.245 25.725 33.9421 25.3961 33.5657 25.3765C33.1905 25.3581 32.8573 25.656 32.8374 26.0287Z" fill="#00B9E4"/>
<path d="M39.1216 28.127C37.9645 28.1316 37.0137 27.1918 37.0196 26.0497C37.0254 24.926 37.9634 24.0012 39.1029 23.9966C40.2623 23.992 41.2108 24.9294 41.2049 26.0739C41.1991 27.1976 40.2611 28.1235 39.1216 28.1281V28.127ZM39.8067 26.0658C39.809 25.6931 39.4956 25.378 39.1169 25.3757C38.7382 25.3734 38.4201 25.6828 38.4178 26.0566C38.4143 26.4293 38.7289 26.7444 39.1076 26.7467C39.4839 26.7502 39.8044 26.4385 39.8067 26.0658Z" fill="#00B9E4"/>
</svg>
