<svg width="40" height="51" viewBox="0 0 40 51" fill="none" xmlns="http://www.w3.org/2000/svg">
<path d="M1.20001 50.7194C0.276204 50.329 0 49.6182 0 48.6613C0.0160896 33.1256 0.0107264 17.5886 0.0107264 2.05288C0.0107264 1.90465 0.00670399 1.75509 0.013408 1.60685C0.0683807 0.305812 1.2818 -0.394341 2.43891 0.233017C4.11088 1.13964 5.78152 2.04891 7.41863 3.0151C8.15205 3.44789 8.88278 3.63319 9.73553 3.61731C11.9975 3.57495 14.2594 3.60275 16.5226 3.60407C16.6902 3.60407 16.8592 3.59878 17.0241 3.62525C17.4478 3.69142 17.6918 3.94819 17.6811 4.36775C17.669 4.78599 17.4143 5.04143 16.9866 5.07452C16.6366 5.10099 16.284 5.08908 15.9314 5.08908C13.8196 5.08908 11.7078 5.08908 9.59608 5.08908C9.41642 5.08908 9.23675 5.08908 8.99541 5.08908C8.99541 6.32791 8.99004 7.51116 9.00747 8.69308C9.00747 8.77382 9.16167 8.88235 9.26625 8.9247C10.473 9.41573 11.142 10.2999 11.142 11.4196C11.142 12.5406 10.485 13.3969 9.26625 13.9144C9.1429 13.9674 9.05843 14.1553 8.99943 14.2969C8.95787 14.3962 8.99139 14.5246 8.99139 14.6411C8.99139 21.7895 8.99139 28.9393 8.99139 36.0877V36.6952C9.14826 36.7534 9.28636 36.8037 9.42446 36.8553C10.4421 37.2392 11.1273 38.1987 11.142 39.2589C11.1581 40.3296 10.4824 41.3342 9.42848 41.7021C9.07451 41.8252 8.97664 41.988 8.98468 42.3335C9.00747 43.3566 8.99541 44.381 8.99809 45.4041C8.99809 45.4504 9.01954 45.4981 9.04368 45.596C9.21262 45.6039 9.3896 45.6198 9.56793 45.6198C18.9696 45.6198 28.3713 45.6198 37.7716 45.6198C38.2507 45.6198 38.4907 45.3798 38.4916 44.8998C38.4916 31.8735 38.4916 18.8459 38.4916 5.81968C38.4916 5.33173 38.2391 5.08776 37.7341 5.08776C31.9861 5.08776 26.2381 5.08776 20.4901 5.08776C20.3064 5.08776 20.12 5.09438 19.9377 5.07717C19.4912 5.03482 19.2056 4.74364 19.2069 4.34525C19.2069 3.94951 19.4925 3.65966 19.9403 3.61069C20.0892 3.59481 20.242 3.60142 20.3922 3.60142C26.2072 3.60142 32.0223 3.60142 37.8373 3.60142C39.3604 3.60142 40 4.23672 40 5.74423C40 18.8208 40 31.896 40 44.9726C40 46.4709 39.3551 47.1062 37.8266 47.1062C28.2238 47.1062 18.621 47.1035 9.01954 47.1181C8.65753 47.1181 8.25663 47.2279 7.93886 47.4026C5.9518 48.4893 3.98217 49.6076 2.00717 50.7168H1.2027L1.20001 50.7194ZM1.56873 1.452V49.2172C1.66661 49.1841 1.71622 49.1748 1.75778 49.1523C3.57591 48.1319 5.39671 47.1167 7.2041 46.0764C7.34757 45.9931 7.46422 45.7416 7.46824 45.5656C7.49237 44.4273 7.49372 43.2864 7.46824 42.1482C7.46422 41.9602 7.3288 41.7233 7.17863 41.6002C6.70935 41.2204 6.42108 40.7704 6.41974 40.1629C6.41974 39.5845 6.41706 39.0074 6.41974 38.429C6.42242 37.8242 6.69594 37.3689 7.17192 36.989C7.33282 36.8606 7.46824 36.5959 7.46958 36.3934C7.48433 29.0293 7.48433 21.6651 7.46958 14.3022C7.46958 14.1024 7.31941 13.8456 7.15718 13.7133C6.70264 13.3413 6.42912 12.9006 6.42242 12.3156C6.41571 11.7372 6.42242 11.1602 6.4184 10.5818C6.41571 9.95441 6.7013 9.4872 7.19606 9.10338C7.33818 8.99352 7.46556 8.76984 7.46958 8.59646C7.49371 7.44101 7.49774 6.28424 7.4669 5.13011C7.46154 4.93423 7.30064 4.66952 7.12902 4.56496C6.34599 4.08849 5.53615 3.65701 4.73435 3.21098C3.70194 2.63656 2.66819 2.06347 1.57007 1.45332L1.56873 1.452ZM7.92411 11.4143C7.92411 11.4143 7.92411 11.4143 7.92545 11.4143C7.92545 11.6763 7.89595 11.9437 7.93886 12.1991C7.95897 12.3222 8.09573 12.4943 8.21238 12.5234C8.81842 12.6783 9.47005 12.2388 9.60145 11.6207C9.72748 11.0318 9.30513 10.4415 8.67093 10.3197C8.06221 10.2046 7.92679 10.3131 7.92411 10.9206C7.92411 11.0847 7.92411 11.2488 7.92411 11.413V11.4143ZM7.92411 39.2933H7.92679C7.92679 39.5554 7.90266 39.8214 7.93752 40.0795C7.95361 40.1946 8.06624 40.3561 8.17082 40.3918C8.72188 40.5745 9.40301 40.1682 9.57463 39.5805C9.74894 38.9836 9.3829 38.3734 8.75943 38.2212C8.08367 38.0558 7.92411 38.1749 7.92411 38.8512C7.92411 38.9995 7.92411 39.1464 7.92411 39.2946V39.2933Z" fill="#00B9E4"/>
<path d="M33.1579 40.9773V36.7538H14.3184V40.9534C14.4887 40.9614 14.667 40.9759 14.8453 40.9759C16.7224 40.9773 18.5996 40.9759 20.4753 40.9773C20.6429 40.9773 20.8119 40.9733 20.9768 40.9971C21.3576 41.0514 21.5802 41.2843 21.6097 41.6562C21.6405 42.052 21.4407 42.3233 21.0452 42.4212C20.8856 42.4609 20.714 42.4609 20.5464 42.4623C18.318 42.4649 16.0896 42.4649 13.8598 42.4623C13.0111 42.4623 12.7725 42.2306 12.7725 41.4127C12.7725 30.7145 12.7725 20.0164 12.7725 9.3182C12.7725 8.48569 13.0044 8.25142 13.8397 8.2501C20.4418 8.2501 27.0439 8.24878 33.6473 8.2501C34.4585 8.2501 34.6878 8.48172 34.6878 9.28775C34.6878 20.0018 34.6878 30.7172 34.6878 41.4312C34.6878 42.228 34.4531 42.4609 33.6393 42.4609C30.4884 42.4636 27.3389 42.4623 24.188 42.4596C24.0057 42.4596 23.763 42.4887 23.6544 42.3908C23.4412 42.1976 23.1985 41.9395 23.1583 41.6801C23.106 41.332 23.3674 41.0646 23.7482 41.0011C23.9279 40.9706 24.1156 40.9773 24.2993 40.9773C27.0479 40.9773 29.7952 40.9773 32.5439 40.9773C32.7396 40.9773 32.9367 40.9773 33.1539 40.9773H33.1579ZM33.1579 20.3896H14.313V24.5865H33.1579V20.3896ZM19.5582 18.8411V13.4423H17.8072C17.8072 14.304 17.8367 15.1285 17.7897 15.9478C17.775 16.2059 17.6235 16.5421 17.421 16.689C16.933 17.0424 16.3189 16.6427 16.3041 15.9809C16.2853 15.1431 16.3001 14.304 16.3001 13.437H14.3197V18.8411H19.5582ZM27.9047 13.4265V18.8397H33.1539V13.4503H31.2795C31.2795 14.3556 31.2835 15.2132 31.2781 16.0709C31.2755 16.4243 31.0958 16.7221 30.7458 16.7485C30.4857 16.7684 30.1626 16.6572 29.9601 16.4931C29.818 16.3766 29.7885 16.0762 29.7818 15.8552C29.7617 15.0531 29.7738 14.251 29.7738 13.4265H27.9047ZM31.2808 29.7894C31.2808 30.6934 31.2902 31.5338 31.2768 32.3729C31.2688 32.8759 30.9 33.2147 30.4562 33.1631C30.0339 33.1141 29.7805 32.7938 29.7751 32.2697C29.7671 31.4504 29.7724 30.6311 29.7724 29.7933H27.9114V35.2079H33.1526V29.7894H31.2795H31.2808ZM19.5757 35.2093V29.7947H17.6932C17.6932 30.0356 17.6932 30.2486 17.6932 30.4604C17.6932 31.1195 17.7053 31.78 17.6851 32.4378C17.6717 32.8573 17.413 33.1154 16.996 33.1565C16.6232 33.1935 16.3484 32.9976 16.229 32.6456C16.1781 32.4947 16.1861 32.3213 16.1861 32.1572C16.1821 31.3723 16.1848 30.5875 16.1848 29.8066H14.309V35.2079H19.5743L19.5757 35.2093ZM21.1216 18.8371H26.3266V13.4331H24.4964C24.4964 14.251 24.5004 15.0399 24.4964 15.8274C24.4924 16.4468 24.2175 16.8002 23.7496 16.8094C23.2789 16.8187 22.996 16.4653 22.992 15.8499C22.9867 15.1577 23.0014 14.4654 22.9799 13.7732C22.9759 13.6488 22.8499 13.4278 22.7694 13.4225C22.2264 13.3907 21.6794 13.4066 21.1229 13.4066V18.8358L21.1216 18.8371ZM26.3346 35.2172V29.7867H24.4977C24.4977 29.9892 24.4977 30.1653 24.4977 30.3413C24.4977 31.0176 24.5111 31.6939 24.4897 32.3703C24.4736 32.8587 24.1317 33.1829 23.7107 33.167C23.3017 33.1512 23.0188 32.8388 22.9947 32.3663C22.9853 32.185 22.9907 32.0037 22.9907 31.8223C22.9907 31.1526 22.9907 30.4829 22.9907 29.7947H21.139V35.2185H26.3346V35.2172ZM14.313 11.8885H19.5556V9.77217H14.313V11.8885ZM33.1553 9.77349H27.9087V11.8872H33.1553V9.77349ZM27.9074 26.1391V28.2448H33.1526V26.1391H27.9074ZM14.3238 26.1338V28.2501H19.5649V26.1338H14.3238ZM26.3413 9.78011H21.139V11.8819H26.3413V9.78011ZM26.3252 28.2541V26.147H21.1377V28.2541H26.3252Z" fill="#00B9E4"/>
</svg>
