<svg width="75" height="73" viewBox="0 0 75 73" fill="none" xmlns="http://www.w3.org/2000/svg">
<path d="M71.4257 62.1826H5.01562C4.46562 62.1826 4.01562 61.7326 4.01562 61.1826C4.01562 60.6326 4.46562 60.1826 5.01562 60.1826H71.4257C71.9757 60.1826 72.4257 60.6326 72.4257 61.1826C72.4257 61.7326 71.9757 62.1826 71.4257 62.1826Z" fill="#01A674"/>
<path d="M8.98756 37.3725C8.72756 37.3725 8.47754 37.2725 8.27754 37.0825L2.33754 31.1425C2.13754 30.9425 2.03756 30.6725 2.04756 30.3925C2.05756 30.1125 2.18754 29.8526 2.40754 29.6726L37.5775 0.2325C37.9475 -0.0775 38.4876 -0.0775 38.8576 0.2325L74.0376 29.6726C74.2576 29.8526 74.3775 30.1125 74.3975 30.3925C74.4175 30.6725 74.3076 30.9425 74.1076 31.1425L68.1676 37.0825C67.7976 37.4525 67.2175 37.4725 66.8175 37.1425L38.2175 13.2026L9.61757 37.1425C9.42757 37.3025 9.20755 37.3725 8.97755 37.3725H8.98756ZM38.2276 10.8925C38.4576 10.8925 38.6876 10.9725 38.8676 11.1225L67.4075 35.0125L71.9276 30.4925L38.2276 2.28255L4.52754 30.4925L9.04756 35.0125L37.5875 11.1225C37.7775 10.9625 37.9976 10.8925 38.2276 10.8925Z" fill="#01A674"/>
<path d="M63.1713 62.183H13.2812C12.7312 62.183 12.2812 61.733 12.2812 61.183V33.7129C12.2812 33.1629 12.7312 32.7129 13.2812 32.7129C13.8312 32.7129 14.2812 33.1629 14.2812 33.7129V60.183H62.1713V33.7129C62.1713 33.1629 62.6213 32.7129 63.1713 32.7129C63.7213 32.7129 64.1713 33.1629 64.1713 33.7129V61.183C64.1713 61.733 63.7213 62.183 63.1713 62.183Z" fill="#01A674"/>
<path d="M34.0385 51.5521H21.6484C21.0984 51.5521 20.6484 51.1021 20.6484 50.5521V38.1621C20.6484 37.6121 21.0984 37.1621 21.6484 37.1621H34.0385C34.5885 37.1621 35.0385 37.6121 35.0385 38.1621V50.5521C35.0385 51.1021 34.5885 51.5521 34.0385 51.5521ZM22.6484 49.5521H33.0385V39.1621H22.6484V49.5521Z" fill="#01A674"/>
<path d="M54.7963 62.0221C54.2463 62.0221 53.7963 61.5721 53.7963 61.0221V39.1621H43.4062V61.0221C43.4062 61.5721 42.9562 62.0221 42.4062 62.0221C41.8562 62.0221 41.4062 61.5721 41.4062 61.0221V38.1621C41.4062 37.6121 41.8562 37.1621 42.4062 37.1621H54.7963C55.3463 37.1621 55.7963 37.6121 55.7963 38.1621V61.0221C55.7963 61.5721 55.3463 62.0221 54.7963 62.0221Z" fill="#01A674"/>
<path d="M63.1713 22.9326C62.6213 22.9326 62.1713 22.4826 62.1713 21.9326V6.85254H55.7812V14.5925C55.7812 15.1425 55.3312 15.5925 54.7812 15.5925C54.2312 15.5925 53.7812 15.1425 53.7812 14.5925V5.85254C53.7812 5.30254 54.2312 4.85254 54.7812 4.85254H63.1713C63.7213 4.85254 64.1713 5.30254 64.1713 5.85254V21.9326C64.1713 22.4826 63.7213 22.9326 63.1713 22.9326Z" fill="#01A674"/>
<path d="M17.43 71.1022C26.504 71.1022 33.86 63.7463 33.86 54.6722C33.86 45.5982 26.504 38.2422 17.43 38.2422C8.35595 38.2422 1 45.5982 1 54.6722C1 63.7463 8.35595 71.1022 17.43 71.1022Z" fill="#1D2455"/>
<path d="M17.43 72.1022C7.81999 72.1022 0 64.2822 0 54.6722C0 45.0622 7.81999 37.2422 17.43 37.2422C27.04 37.2422 34.86 45.0622 34.86 54.6722C34.86 64.2822 27.04 72.1022 17.43 72.1022ZM17.43 39.2522C8.91999 39.2522 2 46.1723 2 54.6823C2 63.1923 8.91999 70.1122 17.43 70.1122C25.94 70.1122 32.86 63.1923 32.86 54.6823C32.86 46.1723 25.94 39.2522 17.43 39.2522Z" fill="#01A674"/>
<path d="M21.5386 49.4511C17.8844 46.7179 13.7233 46.1906 12.2442 48.2738L9.63086 51.687C9.59369 51.7327 9.55764 51.7789 9.52329 51.8269C8.04425 53.9102 9.80772 57.8154 13.4619 60.5492C16.9117 63.1297 20.8126 63.7432 22.4826 62.0514C22.5817 61.9513 22.673 61.8432 22.7558 61.7264C22.7969 61.6686 22.8346 61.609 22.8707 61.5483L25.332 58.3595C25.3827 58.2994 25.4311 58.2381 25.4767 58.1733C26.9557 56.09 25.1928 52.1848 21.5386 49.4511Z" stroke="#01A674" stroke-width="2" stroke-miterlimit="10"/>
</svg>
