<svg width="76" height="57" viewBox="0 0 76 57" fill="none" xmlns="http://www.w3.org/2000/svg">
<circle cx="47.901" cy="28.5007" r="27.1042" fill="#1D2455" stroke="#01A674" stroke-width="2"/>
<circle cx="38.401" cy="28.5007" r="27.1042" fill="#1D2455" stroke="#01A674" stroke-width="2"/>
<circle cx="28.1042" cy="28.4997" r="27.1042" fill="#1D2455" stroke="#01A674" stroke-width="2"/>
<path d="M8.66467 23.6505H16.1855V25.028H10.2163V35.1455H8.66467V23.6505ZM25.0576 32.7705C25.7754 31.905 26.1343 30.7808 26.1343 29.398C26.1343 28.0152 25.7754 26.8911 25.0576 26.0255C24.3398 25.16 23.3687 24.7272 22.1443 24.7272C20.9093 24.7272 19.9329 25.1547 19.2151 26.0097C18.5079 26.8647 18.1543 27.9836 18.1543 29.3663C18.1543 30.7491 18.5132 31.8786 19.2309 32.7547C19.9487 33.6308 20.9198 34.0688 22.1443 34.0688C23.3687 34.0688 24.3398 33.6361 25.0576 32.7705ZM27.5593 27.8147C27.6754 28.3425 27.7334 28.8702 27.7334 29.398C27.7334 29.9258 27.6754 30.4536 27.5593 30.9813C27.4537 31.5091 27.2637 32.0475 26.9893 32.5963C26.7148 33.1452 26.3718 33.6255 25.9601 34.0372C25.559 34.4488 25.0259 34.7866 24.3609 35.0505C23.7065 35.3144 22.9676 35.4463 22.1443 35.4463C21.3209 35.4463 20.5768 35.3144 19.9118 35.0505C19.2573 34.7866 18.7243 34.4488 18.3126 34.0372C17.9115 33.6255 17.5737 33.1452 17.2993 32.5963C17.0248 32.0475 16.8296 31.5091 16.7134 30.9813C16.6079 30.4536 16.5551 29.9258 16.5551 29.398C16.5551 28.8702 16.6079 28.3425 16.7134 27.8147C16.8296 27.2869 17.0248 26.7486 17.2993 26.1997C17.5737 25.6508 17.9115 25.1705 18.3126 24.7588C18.7243 24.3472 19.2573 24.0094 19.9118 23.7455C20.5768 23.4816 21.3209 23.3497 22.1443 23.3497C22.9676 23.3497 23.7065 23.4816 24.3609 23.7455C25.0259 24.0094 25.559 24.3472 25.9601 24.7588C26.3718 25.1705 26.7148 25.6508 26.9893 26.1997C27.2637 26.7486 27.4537 27.2869 27.5593 27.8147ZM33.8807 25.028V35.1455H32.3291V25.028H28.4341V23.6505H37.7757V25.028H33.8807ZM40.7079 24.9805V28.5113H43.5104C44.302 28.5113 44.8984 28.3741 45.2995 28.0997C45.7006 27.8147 45.9012 27.3344 45.9012 26.6588C45.9012 25.54 45.1095 24.9805 43.5262 24.9805H40.7079ZM39.1562 35.1455V23.6505H44.207C45.2415 23.6505 46.0384 23.9302 46.5979 24.4897C47.1679 25.0386 47.4529 25.7247 47.4529 26.548C47.4529 27.6669 46.9409 28.4691 45.917 28.9547C46.1387 29.0391 46.3129 29.113 46.4395 29.1763C46.5662 29.2291 46.7404 29.3347 46.962 29.493C47.1943 29.6513 47.3737 29.8202 47.5004 29.9997C47.627 30.1791 47.7431 30.4219 47.8487 30.728C47.9543 31.0341 48.007 31.3719 48.007 31.7413C48.007 32.7125 47.6587 33.5252 46.962 34.1797C46.2759 34.8236 45.3206 35.1455 44.0962 35.1455H39.1562ZM40.7079 29.778V33.8155H44.017C44.8087 33.8155 45.4104 33.6308 45.822 33.2613C46.2443 32.8813 46.4554 32.3641 46.4554 31.7097C46.4554 30.4219 45.5581 29.778 43.7637 29.778H40.7079Z" fill="#01A674"/>
</svg>
