<svg width="70" height="70" viewBox="0 0 70 70" fill="none" xmlns="http://www.w3.org/2000/svg">
<path d="M34.9399 69.88C15.6799 69.88 0 54.2101 0 34.9401C0 15.6701 15.6699 0 34.9399 0C54.2099 0 69.88 15.6701 69.88 34.9401C69.88 54.2101 54.2099 69.88 34.9399 69.88ZM34.9399 2C16.7799 2 2 16.7801 2 34.9401C2 53.1001 16.7799 67.88 34.9399 67.88C53.0999 67.88 67.88 53.1001 67.88 34.9401C67.88 16.7801 53.0999 2 34.9399 2Z" fill="#01A674"/>
<path d="M58.8172 59.82C58.5572 59.82 58.3072 59.7199 58.1072 59.5299L10.3472 11.7699C9.95719 11.3799 9.95719 10.7499 10.3472 10.3599C10.7372 9.96988 11.3672 9.96988 11.7572 10.3599L59.5172 58.1199C59.9072 58.5099 59.9072 59.1399 59.5172 59.5299C59.3172 59.7299 59.0673 59.82 58.8073 59.82H58.8172Z" fill="#01A674"/>
<path d="M30.41 39.9902H1C0.45 39.9902 0 39.5402 0 38.9902C0 38.4402 0.45 37.9902 1 37.9902H30.41C30.96 37.9902 31.41 38.4402 31.41 38.9902C31.41 39.5402 30.96 39.9902 30.41 39.9902Z" fill="#01A674"/>
<path d="M68.76 31.0498H1C0.45 31.0498 0 30.5998 0 30.0498C0 29.4998 0.45 29.0498 1 29.0498H68.76C69.31 29.0498 69.76 29.4998 69.76 30.0498C69.76 30.5998 69.31 31.0498 68.76 31.0498Z" fill="#01A674"/>
<path d="M68.7616 39.9902H39.3516C38.8016 39.9902 38.3516 39.5402 38.3516 38.9902C38.3516 38.4402 38.8016 37.9902 39.3516 37.9902H68.7616C69.3116 37.9902 69.7616 38.4402 69.7616 38.9902C69.7616 39.5402 69.3116 39.9902 68.7616 39.9902Z" fill="#01A674"/>
<path d="M37.3619 59.5902H32.4219C32.0219 59.5902 31.6619 59.3602 31.5019 58.9902L29.5019 54.4403C29.4419 54.3103 29.4219 54.1803 29.4219 54.0403V38.9902C29.4219 38.4402 29.8719 37.9902 30.4219 37.9902C30.9719 37.9902 31.4219 38.4402 31.4219 38.9902V53.8303L33.0719 57.5902H36.7119L38.3619 53.8303V38.9902C38.3619 38.4402 38.8119 37.9902 39.3619 37.9902C39.9119 37.9902 40.3619 38.4402 40.3619 38.9902V54.0403C40.3619 54.1803 40.3319 54.3203 40.2819 54.4403L38.2819 58.9902C38.1219 59.3502 37.7619 59.5902 37.3619 59.5902Z" fill="#01A674"/>
<path d="M41.4072 46.9902H28.3672V54.0403H41.4072V46.9902Z" fill="#1D2455"/>
<path d="M41.3994 55.0403H28.3594C27.8094 55.0403 27.3594 54.5903 27.3594 54.0403V46.9902C27.3594 46.4402 27.8094 45.9902 28.3594 45.9902H41.3994C41.9494 45.9902 42.3994 46.4402 42.3994 46.9902V54.0403C42.3994 54.5903 41.9494 55.0403 41.3994 55.0403ZM29.3594 53.0403H40.3994V47.9902H29.3594V53.0403Z" fill="#01A674"/>
<path d="M22.4094 28H15.3594V41.04H22.4094V28Z" fill="#1D2455"/>
<path d="M22.4094 42.04H15.3594C14.8094 42.04 14.3594 41.59 14.3594 41.04V28C14.3594 27.45 14.8094 27 15.3594 27H22.4094C22.9594 27 23.4094 27.45 23.4094 28V41.04C23.4094 41.59 22.9594 42.04 22.4094 42.04ZM16.3594 40.04H21.4094V29H16.3594V40.04Z" fill="#01A674"/>
<path d="M54.4094 28H47.3594V41.04H54.4094V28Z" fill="#1D2455"/>
<path d="M54.4094 42.04H47.3594C46.8094 42.04 46.3594 41.59 46.3594 41.04V28C46.3594 27.45 46.8094 27 47.3594 27H54.4094C54.9594 27 55.4094 27.45 55.4094 28V41.04C55.4094 41.59 54.9594 42.04 54.4094 42.04ZM48.3594 40.04H53.4094V29H48.3594V40.04Z" fill="#01A674"/>
</svg>
