<svg width="47" height="37" viewBox="0 0 47 37" fill="none" xmlns="http://www.w3.org/2000/svg">
<path d="M0 18.3895C0.979783 16.378 1.94225 14.3584 2.94241 12.3571C4.31023 9.61961 5.72186 6.90444 7.08459 4.16385C7.77411 2.77678 8.84555 2.0924 10.3957 2.14731C10.7094 2.1585 11.0251 2.14934 11.3806 2.14934C11.3806 1.75681 11.3785 1.42632 11.3806 1.09684C11.3867 0.304661 11.6902 0.00263613 12.4887 0.00263613C19.4602 0.00263613 26.4317 0.00263613 33.4043 0.00263613C33.7231 0.00263613 34.0429 -0.00448029 34.3607 0.00467195C34.928 0.0219595 35.2661 0.348388 35.2865 0.911759C35.3007 1.30327 35.2895 1.69478 35.2895 2.15036C35.7203 2.15036 36.1104 2.14934 36.5005 2.15036C37.8581 2.15443 38.8613 2.75441 39.4745 3.96251C41.7569 8.46032 44.0414 12.9581 46.2922 17.4722C46.5265 17.942 46.6517 18.5156 46.6548 19.0413C46.6823 23.6663 46.6731 28.2922 46.6701 32.9182C46.668 34.8869 45.3196 36.2303 43.3478 36.2303C30.0576 36.2313 16.7673 36.2303 3.47711 36.2303C1.63162 36.2303 0.578503 35.4381 0.0539827 33.6595C0.0458348 33.6331 0.0193522 33.6117 0.00101948 33.5883C0.00101948 28.522 0.00101948 23.4558 0.00101948 18.3895H0ZM23.3345 34.229C29.9863 34.229 36.639 34.229 43.2907 34.229C44.2186 34.229 44.6606 33.7897 44.6606 32.8673C44.6626 28.2881 44.6626 23.708 44.6606 19.1288C44.6606 18.2319 44.2114 17.7732 43.3243 17.7722C39.9379 17.7682 36.5504 17.7743 33.1639 17.7631C32.8665 17.7631 32.7382 17.88 32.6302 18.1302C32.2748 18.9498 31.899 19.7603 31.5323 20.5759C31.1229 21.489 30.4171 21.9375 29.4159 21.9375C25.3613 21.9365 21.3057 21.9365 17.2511 21.9375C16.2499 21.9375 15.5452 21.489 15.1347 20.5759C14.7752 19.7745 14.3953 18.9824 14.0582 18.1709C13.9258 17.8515 13.7475 17.761 13.4124 17.7621C10.1166 17.7743 6.82081 17.7692 3.52499 17.7702C2.39549 17.7702 2.0054 18.1658 2.0054 19.3098C2.0054 23.768 2.0054 28.2261 2.0054 32.6843C2.0054 33.8517 2.3853 34.23 3.55859 34.23C10.1502 34.23 16.7409 34.23 23.3325 34.23L23.3345 34.229ZM9.06656 15.7618C9.25192 15.7618 9.41386 15.7618 9.5758 15.7618C10.8978 15.7618 12.2188 15.778 13.5408 15.7567C14.6601 15.7384 15.4158 16.2255 15.8497 17.2536C16.1736 18.0203 16.5433 18.7688 16.8651 19.5366C16.9873 19.8284 17.1401 19.9383 17.4691 19.9372C21.3729 19.924 25.2768 19.924 29.1806 19.9372C29.5259 19.9383 29.6878 19.8213 29.8162 19.5152C30.138 18.7474 30.5057 17.998 30.8326 17.2322C31.2634 16.2245 32.009 15.7414 33.1089 15.7567C34.4452 15.775 35.7825 15.7618 37.1187 15.7597C37.2786 15.7597 37.4385 15.7455 37.6025 15.7374V13.3283H9.0686V15.7618H9.06656ZM35.5676 7.56849H11.1127V11.4572H35.5676V7.56849ZM33.4562 1.8341H13.2118V5.7177H33.4562V1.8341ZM43.1298 15.7364C43.1227 15.6621 43.1278 15.6286 43.1156 15.6042C41.2914 11.9992 39.4734 8.39016 37.6249 4.79841C37.4905 4.53707 37.1544 4.27267 36.8722 4.21775C36.3793 4.12318 35.8558 4.19131 35.3262 4.19131V5.74211C35.6796 5.74211 35.9974 5.74007 36.3151 5.74211C37.0729 5.74821 37.3927 6.06142 37.3957 6.82309C37.4018 8.20203 37.3978 9.57995 37.3978 10.9589C37.3978 11.1206 37.3978 11.2823 37.3978 11.4836C37.7573 11.4836 38.0588 11.4734 38.3592 11.4877C38.5385 11.4968 38.7289 11.5131 38.8909 11.5812C39.3319 11.7683 39.4337 12.1538 39.4327 12.59C39.4297 13.6303 39.4327 14.6716 39.4327 15.7364H43.1308H43.1298ZM9.27128 11.4836C9.27128 11.268 9.27128 11.1053 9.27128 10.9426C9.27128 9.60944 9.27026 8.27626 9.27128 6.94309C9.27229 6.02481 9.55238 5.74414 10.4599 5.74211C10.7562 5.74211 11.0526 5.74211 11.3459 5.74211V4.15165C10.9976 4.15165 10.6798 4.16691 10.3651 4.1486C9.66136 4.10691 9.20915 4.40283 8.88832 5.04247C7.1681 8.47964 5.42038 11.9036 3.68387 15.3326C3.62174 15.4557 3.5698 15.5858 3.50461 15.7313H7.23634C7.23634 15.5381 7.23634 15.3743 7.23634 15.2106C7.23634 14.332 7.22922 13.4534 7.23838 12.5748C7.24653 11.8222 7.57958 11.4948 8.32511 11.4846C8.62455 11.4806 8.92295 11.4846 9.27128 11.4846V11.4836Z" fill="#01A674"/>
<path d="M23.3587 25.1078C24.9985 25.1078 26.6393 25.1058 28.279 25.1078C29.3321 25.1098 29.8862 25.6569 29.8903 26.6952C29.8933 27.6348 29.8954 28.5755 29.8903 29.5151C29.8841 30.4741 29.3219 31.0517 28.3656 31.0527C25.0097 31.0588 21.6528 31.0588 18.2968 31.0527C17.3446 31.0507 16.7813 30.469 16.7773 29.51C16.7722 28.5551 16.7722 27.5993 16.7773 26.6444C16.7823 25.6844 17.3466 25.1119 18.3019 25.1088C19.9875 25.1027 21.6731 25.1068 23.3587 25.1068V25.1078ZM28.0519 26.9474H18.6258V29.2253H28.0519V26.9474Z" fill="#01A674"/>
</svg>
