<svg width="32" height="43" viewBox="0 0 32 43" fill="none" xmlns="http://www.w3.org/2000/svg">
<path d="M2.72038 42.1808C2.0966 41.8019 1.99429 41.4979 2.26823 40.8149C6.36239 30.6118 10.4565 20.4095 14.5507 10.2063C14.5862 10.1173 14.6208 10.0275 14.6712 9.89737C13.6373 9.45662 12.8914 8.73 12.5713 7.63183C12.3617 6.91262 12.3922 6.19342 12.662 5.49069C13.1959 4.09924 14.6241 3.18891 16.0681 3.3166C17.5929 3.45089 18.8503 4.54493 19.1408 5.98911C19.4733 7.64254 18.7521 8.9722 16.9872 9.90725C17.0384 10.0366 17.0912 10.1717 17.1448 10.3068C21.2142 20.4457 25.2845 30.5838 29.3539 40.7227C29.6649 41.4971 29.5965 41.7467 28.9595 42.1808H28.4644C28.2507 41.9106 27.9644 41.6709 27.8357 41.3644C27.1971 39.8494 26.5865 38.322 25.999 36.7864C25.8571 36.4148 25.669 36.311 25.2861 36.3185C23.9948 36.3432 22.7019 36.3308 21.4098 36.3267C20.8141 36.3242 20.4485 35.9955 20.4551 35.4864C20.4609 34.9888 20.8116 34.6807 21.3933 34.679C22.4932 34.6749 23.5922 34.679 24.6921 34.6766C24.8208 34.6766 24.9487 34.6609 25.1285 34.6486C24.1929 32.3196 23.2778 30.0417 22.3578 27.7498C17.8924 30.0499 13.4847 32.3212 9.07698 34.5917C9.08523 34.6205 9.09265 34.6486 9.1009 34.6774C9.25932 34.6774 9.41692 34.6774 9.57534 34.6774C11.2247 34.6774 12.8741 34.6749 14.5235 34.679C15.1299 34.6807 15.4872 35.0432 15.4385 35.5852C15.3964 36.0532 15.0491 36.3267 14.4723 36.3267C11.7371 36.3292 9.00189 36.3333 6.26667 36.3201C5.95891 36.3185 5.80957 36.4025 5.6957 36.6941C5.0942 38.2388 4.48445 39.781 3.84252 41.31C3.70803 41.6313 3.42832 41.8917 3.21544 42.18H2.72038V42.1808ZM18.6911 18.6102C16.1184 21.0051 13.5969 23.3522 11.0201 25.7503H21.5567C20.5979 23.3612 19.6548 21.0117 18.6911 18.6102ZM6.89705 33.7357L6.98039 33.8099C11.0589 31.7091 15.1365 29.6075 19.215 27.5068C16.0111 27.4293 12.8386 27.426 9.66693 27.4417C9.54646 27.4417 9.36989 27.604 9.31708 27.7317C8.75189 29.0976 8.20649 30.4725 7.65615 31.8442C7.40284 32.4753 7.15036 33.1055 6.89705 33.7366V33.7357ZM15.828 11.4824C15.0879 13.3278 14.389 15.0702 13.6819 16.8324H17.9774C17.262 15.0513 16.5648 13.3171 15.828 11.4824ZM15.8478 8.41776C16.8008 8.41035 17.5772 7.62277 17.564 6.67619C17.5516 5.73207 16.7471 4.94614 15.8082 4.96097C14.8543 4.9758 14.0936 5.75761 14.1002 6.71491C14.1068 7.6722 14.8791 8.42518 15.8469 8.41776H15.8478ZM11.0415 23.4659C12.837 21.7943 14.5466 20.2035 16.3478 18.527C15.2504 18.527 14.2817 18.5394 13.3139 18.5188C13.0564 18.513 12.9574 18.6086 12.8716 18.8269C12.3205 20.2274 11.7561 21.6238 11.1983 23.021C11.1546 23.1306 11.1199 23.2434 11.0415 23.4659Z" fill="#01A674"/>
<path d="M28.6267 0.00195312C29.5904 0.694795 30.2125 1.6595 30.7274 2.69506C32.4221 6.10407 31.748 10.3147 29.0994 13.0284C28.828 13.306 28.5111 13.5037 28.1514 13.3315C27.9212 13.2211 27.7025 12.9724 27.6002 12.7343C27.4558 12.3957 27.6803 12.1131 27.9179 11.8627C28.9559 10.7703 29.6324 9.48919 29.8759 7.99723C30.2711 5.57023 29.6432 3.43651 27.9897 1.6109C27.3758 0.932882 27.4063 0.521791 28.1316 0.00195312H28.6267Z" fill="#01A674"/>
<path d="M3.54245 0.000823831C4.24049 0.558558 4.26442 0.943287 3.64394 1.61965C0.953278 4.55496 0.983807 8.93198 3.7149 11.8426C3.75285 11.8829 3.79246 11.9208 3.82794 11.962C4.16788 12.3616 4.15963 12.8608 3.80813 13.1755C3.46902 13.4803 2.97808 13.4622 2.62576 13.0964C0.676868 11.0748 -0.197741 8.65599 0.0374135 5.86238C0.212335 3.78386 1.04156 1.97884 2.47394 0.457226C2.63979 0.280926 2.85514 0.151585 3.04739 0C3.21241 0 3.37743 0 3.54245 0V0.000823831Z" fill="#01A674"/>
<path d="M27.3611 6.4298C27.3248 8.53305 26.7027 10.1173 25.4485 11.4445C25.0896 11.8243 24.6696 11.8959 24.3066 11.6578C23.8478 11.3571 23.7967 10.7953 24.2175 10.3447C24.9081 9.60485 25.3957 8.76042 25.5863 7.76276C25.9197 6.01624 25.4956 4.47403 24.3066 3.14519C24.2068 3.03315 24.097 2.92275 24.0261 2.79259C23.8322 2.43752 23.9402 2.00748 24.2662 1.76362C24.5978 1.51483 25.0319 1.53954 25.3536 1.85754C26.2431 2.73739 26.8479 3.7886 27.1359 5.00375C27.2679 5.56066 27.3166 6.13817 27.3611 6.4298Z" fill="#01A674"/>
<path d="M4.28207 6.9086C4.32498 4.87292 4.94051 3.27139 6.21282 1.93761C6.60804 1.52322 7.09403 1.48367 7.4546 1.81733C7.82672 2.16251 7.81517 2.65187 7.39849 3.09097C6.76068 3.76404 6.31018 4.54091 6.10308 5.44301C5.6864 7.25873 6.11875 8.85944 7.34651 10.2624C7.52391 10.4651 7.67242 10.7493 7.7013 11.0105C7.73761 11.3425 7.51895 11.6094 7.19056 11.7321C6.84897 11.8607 6.54203 11.7849 6.2846 11.5254C5.34068 10.5747 4.7235 9.44353 4.45287 8.13364C4.35633 7.6657 4.3192 7.18459 4.28125 6.90778L4.28207 6.9086Z" fill="#01A674"/>
<path d="M8.58594 6.68131C8.61564 5.48429 9.01664 4.40424 9.87557 3.51039C10.2419 3.12978 10.7386 3.09188 11.0844 3.40823C11.4424 3.73529 11.4713 4.22218 11.091 4.61597C9.97706 5.76768 9.97376 7.62872 11.0984 8.78373C11.4771 9.1734 11.4375 9.66605 11.0753 9.989C10.7139 10.3111 10.2419 10.2716 9.86815 9.87695C9.02819 8.98969 8.61977 7.92612 8.58594 6.68131Z" fill="#01A674"/>
<path d="M23.043 6.71015C23.0322 7.91377 22.6222 8.96168 21.802 9.84483C21.4051 10.2724 20.9455 10.3235 20.5693 9.99065C20.198 9.66194 20.1955 9.18164 20.5627 8.75161C21.6741 7.45242 21.6782 5.95799 20.5742 4.65469C20.2021 4.21559 20.1947 3.74271 20.5536 3.41153C20.9158 3.07788 21.4291 3.1372 21.8202 3.56641C22.6321 4.45615 23.0397 5.50489 23.0421 6.70933L23.043 6.71015Z" fill="#01A674"/>
<path d="M17.9323 34.6798C18.3944 34.6716 18.7772 35.0464 18.7723 35.5037C18.7682 35.9477 18.4068 36.3151 17.9653 36.325C17.5033 36.3349 17.1312 35.965 17.1328 35.4962C17.1345 35.044 17.4827 34.6881 17.9332 34.6806L17.9323 34.6798Z" fill="#01A674"/>
</svg>
