<svg width="48" height="48" viewBox="0 0 48 48" fill="none" xmlns="http://www.w3.org/2000/svg">
<g clip-path="url(#clip0_68_682)">
<path d="M42.5882 43.4537H5.41346C5.41346 44.5912 5.41346 45.6965 5.41346 46.803C5.41346 47.7856 5.2043 47.9977 4.23676 47.9977C3.16967 47.9977 2.1037 48 1.03661 47.9977C0.276 47.9954 0.000838907 47.7237 0.000838907 46.9623C-0.000279636 31.6541 -0.000279636 16.3459 0.000838907 1.03767C0.000838907 0.290089 0.273763 0.00687958 0.988512 0.00343979C2.13837 -0.0011466 3.28823 -0.0011466 4.4381 0.00343979C5.13607 0.00687958 5.40899 0.283209 5.41235 0.992953C5.41794 2.20147 5.41346 3.40998 5.41346 4.64945H42.5871C42.5871 3.47763 42.5871 2.33791 42.5871 1.19819C42.5871 0.213267 42.794 0.00343979 43.7616 0.00343979C44.8287 0.00343979 45.8946 0.0011466 46.9617 0.00343979C47.7234 0.00573299 47.9986 0.27633 47.9986 1.03767C47.9997 16.3459 47.9997 31.6541 47.9986 46.9623C47.9986 47.7076 47.7246 47.9931 47.012 47.9966C45.8622 48.0023 44.7123 48.0023 43.5625 47.9966C42.8645 47.9931 42.5916 47.7168 42.5882 47.007C42.5826 45.8329 42.5871 44.6588 42.5871 43.4537H42.5882ZM42.5558 37.6932V10.4203H5.45709V37.6829H7.51744V37.0397C7.51744 33.6228 7.51744 30.2048 7.51744 26.788C7.51744 25.9234 7.78142 25.654 8.6248 25.654C11.0084 25.6528 13.3909 25.654 15.7745 25.654H16.317C16.317 25.3616 16.317 25.1575 16.317 24.9522C16.317 21.5526 16.317 18.1518 16.317 14.7521C16.317 13.8738 16.5609 13.6216 17.4143 13.6216C21.7979 13.6204 26.1803 13.6204 30.5639 13.6216C31.4464 13.6216 31.6824 13.8669 31.6824 14.7819C31.6824 18.1988 31.6824 21.6168 31.6824 25.0337C31.6824 25.2309 31.6824 25.4269 31.6824 25.6551C31.9397 25.6551 32.1209 25.6551 32.3021 25.6551C34.6354 25.6551 36.9687 25.6551 39.3019 25.6551C40.2426 25.6551 40.4809 25.9005 40.4809 26.8717C40.4809 30.2713 40.4809 33.6721 40.4809 37.0718C40.4809 37.2713 40.4809 37.4697 40.4809 37.6944H42.5524L42.5558 37.6932ZM9.14492 37.6852H21.2464V27.3372H17.6156C17.6156 28.5755 17.6212 29.7702 17.6134 30.965C17.6089 31.6163 17.3326 31.9018 16.6996 31.9098C15.8998 31.9201 15.1 31.9132 14.3003 31.9132C12.8473 31.9132 12.7858 31.8502 12.7858 30.3493C12.7858 29.3472 12.7858 28.345 12.7858 27.3337H9.14492V37.6864V37.6852ZM35.2148 27.32C35.2148 28.595 35.2215 29.8069 35.2114 31.0177C35.207 31.5865 34.9296 31.896 34.3971 31.9041C33.3312 31.9201 32.2641 31.9201 31.1981 31.9041C30.6847 31.896 30.4017 31.5933 30.3916 31.0625C30.3771 30.2942 30.3872 29.5249 30.386 28.7567C30.386 28.2843 30.386 27.8119 30.386 27.3337H26.7631V37.6841H38.8456V27.32H35.2148ZM30.0561 25.6253V15.2933H26.4152C26.4152 16.5167 26.4197 17.708 26.413 18.8982C26.4096 19.5678 26.1255 19.8671 25.4678 19.8763C24.4857 19.8889 23.5025 19.89 22.5204 19.8763C21.8683 19.8671 21.5965 19.5644 21.5853 18.8879C21.582 18.6827 21.5853 18.4786 21.5853 18.2733C21.5853 17.2884 21.5853 16.3023 21.5853 15.2956H17.9467V25.6253H30.0549H30.0561ZM3.77927 46.3374V1.68091H1.63391V46.3374H3.77927ZM44.2202 1.66142V46.3214H46.3689V1.66142H44.2202ZM5.43472 8.70955H42.5491V6.36476H5.43472V8.70955ZM5.45149 39.3799V41.7465H42.5524V39.3799H5.45261H5.45149ZM25.0875 37.6898V27.3211H22.9119V37.6898H25.0875ZM23.2162 15.2818V18.208H24.7754V15.2818H23.2162ZM15.9893 27.3349H14.4289V30.2312H15.9893V27.3349ZM32.0169 27.3177V30.2438H33.5828V27.3177H32.0169Z" fill="#01A674"/>
</g>
<defs>
<clipPath id="clip0_68_682">
<rect width="48" height="48" fill="white"/>
</clipPath>
</defs>
</svg>
