<svg width="41" height="46" viewBox="0 0 41 46" fill="none" xmlns="http://www.w3.org/2000/svg">
<path d="M39.4721 13.9433H0.679499C0.305775 13.9433 0 13.6375 0 13.2638V0.679499C0 0.305775 0.305775 0 0.679499 0H39.4721C39.8458 0 40.1516 0.305775 40.1516 0.679499V13.2638C40.1516 13.6375 39.8458 13.9433 39.4721 13.9433ZM1.359 12.5843H38.7926V1.359H1.359V12.5843Z" fill="#01A674"/>
<path d="M32.6501 10.0913C30.931 10.0913 29.5312 8.69155 29.5312 6.97241C29.5312 5.25328 30.931 3.85352 32.6501 3.85352C34.3693 3.85352 35.769 5.25328 35.769 6.97241C35.769 8.69155 34.3693 10.0913 32.6501 10.0913ZM32.6501 5.21251C31.6784 5.21251 30.8902 6.00073 30.8902 6.97241C30.8902 7.9441 31.6784 8.73231 32.6501 8.73231C33.6218 8.73231 34.41 7.9441 34.41 6.97241C34.41 6.00073 33.6218 5.21251 32.6501 5.21251Z" fill="#01A674"/>
<path d="M5.43731 17.26C5.06359 17.26 4.75781 16.9543 4.75781 16.5805V13.285C4.75781 12.9112 5.06359 12.6055 5.43731 12.6055C5.81104 12.6055 6.11681 12.9112 6.11681 13.285V16.5805C6.11681 16.9543 5.81104 17.26 5.43731 17.26Z" fill="#01A674"/>
<path d="M34.7186 17.2585C34.3448 17.2585 34.0391 16.9527 34.0391 16.579V13.3514C34.0391 12.9776 34.3448 12.6719 34.7186 12.6719C35.0923 12.6719 35.3981 12.9776 35.3981 13.3514V16.579C35.3981 16.9527 35.0923 17.2585 34.7186 17.2585Z" fill="#01A674"/>
<path d="M34.7186 33.1411C34.3448 33.1411 34.0391 32.8353 34.0391 32.4616V29.1932C34.0391 28.8194 34.3448 28.5137 34.7186 28.5137C35.0923 28.5137 35.3981 28.8194 35.3981 29.1932V32.4616C35.3981 32.8353 35.0923 33.1411 34.7186 33.1411Z" fill="#01A674"/>
<path d="M5.43731 33.1388C5.06359 33.1388 4.75781 32.833 4.75781 32.4593V29.1365C4.75781 28.7628 5.06359 28.457 5.43731 28.457C5.81104 28.457 6.11681 28.7628 6.11681 29.1365V32.4593C6.11681 32.833 5.81104 33.1388 5.43731 33.1388Z" fill="#01A674"/>
<path d="M39.4721 29.871H0.679499C0.305775 29.871 0 29.5653 0 29.1915V16.6072C0 16.2335 0.305775 15.9277 0.679499 15.9277H39.4721C39.8458 15.9277 40.1516 16.2335 40.1516 16.6072V29.1915C40.1516 29.5653 39.8458 29.871 39.4721 29.871ZM1.359 28.512H38.7926V17.2867H1.359V28.512Z" fill="#01A674"/>
<path d="M32.6501 25.8355C30.931 25.8355 29.5312 24.4357 29.5312 22.7166C29.5312 20.9974 30.931 19.5977 32.6501 19.5977C34.3693 19.5977 35.769 20.9974 35.769 22.7166C35.769 24.4357 34.3693 25.8355 32.6501 25.8355ZM32.6501 20.9634C31.6784 20.9634 30.8902 21.7517 30.8902 22.7234C30.8902 23.695 31.6784 24.4833 32.6501 24.4833C33.6218 24.4833 34.41 23.695 34.41 22.7234C34.41 21.7517 33.6218 20.9634 32.6501 20.9634Z" fill="#01A674"/>
<path d="M5.34356 25.5103C4.96984 25.5103 4.66406 25.2045 4.66406 24.8308V20.7674C4.66406 20.3937 4.96984 20.0879 5.34356 20.0879C5.71729 20.0879 6.02306 20.3937 6.02306 20.7674V24.8308C6.02306 25.2045 5.71729 25.5103 5.34356 25.5103Z" fill="#01A674"/>
<path d="M8.37481 25.5103C8.00109 25.5103 7.69531 25.2045 7.69531 24.8308V20.7674C7.69531 20.3937 8.00109 20.0879 8.37481 20.0879C8.74854 20.0879 9.05431 20.3937 9.05431 20.7674V24.8308C9.05431 25.2045 8.74854 25.5103 8.37481 25.5103Z" fill="#01A674"/>
<path d="M11.3982 25.5103C11.0245 25.5103 10.7188 25.2045 10.7188 24.8308V20.7674C10.7188 20.3937 11.0245 20.0879 11.3982 20.0879C11.772 20.0879 12.0777 20.3937 12.0777 20.7674V24.8308C12.0777 25.2045 11.772 25.5103 11.3982 25.5103Z" fill="#01A674"/>
<path d="M14.4295 25.5103C14.0558 25.5103 13.75 25.2045 13.75 24.8308V20.7674C13.75 20.3937 14.0558 20.0879 14.4295 20.0879C14.8032 20.0879 15.109 20.3937 15.109 20.7674V24.8308C15.109 25.2045 14.8032 25.5103 14.4295 25.5103Z" fill="#01A674"/>
<path d="M20.492 23.4773C20.4037 23.4773 20.3153 23.457 20.2338 23.423C20.1522 23.389 20.0775 23.3414 20.0095 23.2803C19.9484 23.2123 19.9008 23.1376 19.8668 23.056C19.8329 22.9745 19.8125 22.8862 19.8125 22.7978C19.8125 22.6212 19.8872 22.4445 20.0095 22.3154C20.0775 22.2542 20.1522 22.2067 20.2338 22.1727C20.3969 22.0979 20.5871 22.1047 20.7502 22.1727C20.8385 22.2067 20.9065 22.2542 20.9744 22.3154C21.0967 22.4445 21.1715 22.6212 21.1715 22.7978C21.1715 22.8862 21.1579 22.9745 21.1171 23.056C21.0832 23.1376 21.0356 23.2123 20.9744 23.2803C20.8453 23.4026 20.6687 23.4773 20.492 23.4773Z" fill="#01A674"/>
<path d="M23.5232 23.4759C23.3466 23.4759 23.1699 23.4012 23.0408 23.2789C22.9185 23.1498 22.8438 22.9731 22.8438 22.7964C22.8438 22.6198 22.9185 22.4431 23.0408 22.314C23.0748 22.2868 23.1088 22.2528 23.1495 22.2325C23.1835 22.2053 23.2243 22.1849 23.265 22.1713C23.3058 22.1509 23.3466 22.1373 23.3941 22.1305C23.4757 22.1101 23.5708 22.1101 23.6592 22.1305C23.6999 22.1373 23.7407 22.1509 23.7815 22.1713C23.8222 22.1849 23.863 22.2053 23.9038 22.2325C23.9377 22.2528 23.9717 22.2868 24.0057 22.314C24.0669 22.382 24.1144 22.4499 24.1484 22.5382C24.1824 22.6198 24.2027 22.7081 24.2027 22.7964C24.2027 22.8848 24.1824 22.9731 24.1484 23.0547C24.1144 23.1362 24.0669 23.2109 24.0057 23.2789C23.9717 23.3061 23.9377 23.3332 23.9038 23.3604C23.863 23.3876 23.8222 23.408 23.7815 23.4216C23.7407 23.442 23.6999 23.4556 23.6592 23.4624C23.6116 23.4692 23.5708 23.4759 23.5232 23.4759Z" fill="#01A674"/>
<path d="M39.4721 45.7988H0.679499C0.305775 45.7988 0 45.493 0 45.1193V32.535C0 32.1612 0.305775 31.8555 0.679499 31.8555H39.4721C39.8458 31.8555 40.1516 32.1612 40.1516 32.535V45.1193C40.1516 45.493 39.8458 45.7988 39.4721 45.7988ZM1.359 44.4398H38.7926V33.2145H1.359V44.4398Z" fill="#01A674"/>
<path d="M32.6501 41.7612C30.931 41.7612 29.5312 40.3615 29.5312 38.6423C29.5312 36.9232 30.931 35.5234 32.6501 35.5234C34.3693 35.5234 35.769 36.9232 35.769 38.6423C35.769 40.3615 34.3693 41.7612 32.6501 41.7612ZM32.6501 36.8892C31.6784 36.8892 30.8902 37.6774 30.8902 38.6491C30.8902 39.6208 31.6784 40.409 32.6501 40.409C33.6218 40.409 34.41 39.6208 34.41 38.6491C34.41 37.6774 33.6218 36.8892 32.6501 36.8892Z" fill="#01A674"/>
<path d="M5.34356 41.4361C4.96984 41.4361 4.66406 41.1303 4.66406 40.7566V36.6932C4.66406 36.3194 4.96984 36.0137 5.34356 36.0137C5.71729 36.0137 6.02306 36.3194 6.02306 36.6932V40.7566C6.02306 41.1303 5.71729 41.4361 5.34356 41.4361Z" fill="#01A674"/>
<path d="M8.37481 41.4361C8.00109 41.4361 7.69531 41.1303 7.69531 40.7566V36.6932C7.69531 36.3194 8.00109 36.0137 8.37481 36.0137C8.74854 36.0137 9.05431 36.3194 9.05431 36.6932V40.7566C9.05431 41.1303 8.74854 41.4361 8.37481 41.4361Z" fill="#01A674"/>
<path d="M11.3982 41.4361C11.0245 41.4361 10.7188 41.1303 10.7188 40.7566V36.6932C10.7188 36.3194 11.0245 36.0137 11.3982 36.0137C11.772 36.0137 12.0777 36.3194 12.0777 36.6932V40.7566C12.0777 41.1303 11.772 41.4361 11.3982 41.4361Z" fill="#01A674"/>
<path d="M14.4295 41.4361C14.0558 41.4361 13.75 41.1303 13.75 40.7566V36.6932C13.75 36.3194 14.0558 36.0137 14.4295 36.0137C14.8032 36.0137 15.109 36.3194 15.109 36.6932V40.7566C15.109 41.1303 14.8032 41.4361 14.4295 41.4361Z" fill="#01A674"/>
<path d="M20.492 39.4037C20.4037 39.4037 20.3153 39.3833 20.2338 39.3493C20.1522 39.3153 20.0775 39.2678 20.0095 39.2066C19.9824 39.1726 19.9552 39.1387 19.928 39.0979C19.9008 39.0639 19.8804 39.0232 19.8668 38.9824C19.8464 38.9416 19.8329 38.9008 19.8261 38.8533C19.8261 38.8125 19.8125 38.7649 19.8125 38.7242C19.8125 38.6766 19.8125 38.6358 19.8261 38.5883C19.8261 38.5475 19.8464 38.5067 19.8668 38.466C19.8804 38.4252 19.9008 38.3844 19.928 38.3437C19.9552 38.3097 19.9824 38.2757 20.0095 38.2417C20.0775 38.1806 20.1522 38.133 20.2338 38.099C20.3969 38.0243 20.5871 38.0243 20.7502 38.099C20.8385 38.133 20.9065 38.1806 20.9744 38.2417C21.0016 38.2757 21.0356 38.3097 21.056 38.3437C21.0831 38.3844 21.1035 38.4252 21.1171 38.466C21.1375 38.5067 21.1511 38.5475 21.1579 38.5883C21.1579 38.6358 21.1715 38.6766 21.1715 38.7242C21.1715 38.7649 21.1647 38.8125 21.1579 38.8533C21.1579 38.9008 21.1375 38.9416 21.1171 38.9824C21.1035 39.0232 21.0831 39.0639 21.056 39.0979C21.0356 39.1387 21.0016 39.1726 20.9744 39.2066C20.9065 39.2678 20.8385 39.3153 20.7502 39.3493C20.6686 39.3833 20.5803 39.4037 20.492 39.4037Z" fill="#01A674"/>
<path d="M23.5232 39.4037C23.3466 39.4037 23.1699 39.3289 23.0408 39.1998C23.0137 39.1727 22.9864 39.1387 22.9593 39.0979C22.9321 39.0639 22.9117 39.0232 22.8981 38.9824C22.8777 38.9416 22.8641 38.9008 22.8574 38.8533C22.8574 38.8125 22.8438 38.7649 22.8438 38.7242C22.8438 38.5475 22.9185 38.3708 23.0408 38.2417C23.0748 38.2078 23.1088 38.1806 23.1495 38.1602C23.1835 38.133 23.2243 38.1126 23.265 38.0922C23.3058 38.0787 23.3466 38.0651 23.3941 38.0583C23.4757 38.0379 23.5708 38.0379 23.6592 38.0583C23.6999 38.0583 23.7407 38.0787 23.7815 38.0922C23.8222 38.1126 23.863 38.133 23.9038 38.1602C23.9377 38.1806 23.9717 38.2078 24.0057 38.2417C24.0669 38.3029 24.1144 38.3776 24.1484 38.466C24.1824 38.5475 24.2027 38.6358 24.2027 38.7242C24.2027 38.7649 24.1959 38.8125 24.1891 38.8533C24.1891 38.9008 24.1688 38.9416 24.1484 38.9824C24.1348 39.0232 24.1144 39.0639 24.0872 39.0979C24.0601 39.1387 24.0329 39.1727 24.0057 39.1998C23.9717 39.2338 23.9377 39.261 23.9038 39.2881C23.863 39.3153 23.8222 39.3357 23.7815 39.3493C23.7407 39.3697 23.6999 39.3833 23.6592 39.3901C23.6116 39.3901 23.5708 39.4037 23.5232 39.4037Z" fill="#01A674"/>
<path d="M5.34356 9.68218C4.96984 9.68218 4.66406 9.3764 4.66406 9.00268V4.93926C4.66406 4.56554 4.96984 4.25977 5.34356 4.25977C5.71729 4.25977 6.02306 4.56554 6.02306 4.93926V9.00268C6.02306 9.3764 5.71729 9.68218 5.34356 9.68218Z" fill="#01A674"/>
<path d="M8.37481 9.68218C8.00109 9.68218 7.69531 9.3764 7.69531 9.00268V4.93926C7.69531 4.56554 8.00109 4.25977 8.37481 4.25977C8.74854 4.25977 9.05431 4.56554 9.05431 4.93926V9.00268C9.05431 9.3764 8.74854 9.68218 8.37481 9.68218Z" fill="#01A674"/>
<path d="M11.3982 9.68218C11.0245 9.68218 10.7188 9.3764 10.7188 9.00268V4.93926C10.7188 4.56554 11.0245 4.25977 11.3982 4.25977C11.772 4.25977 12.0777 4.56554 12.0777 4.93926V9.00268C12.0777 9.3764 11.772 9.68218 11.3982 9.68218Z" fill="#01A674"/>
<path d="M14.4295 9.68218C14.0558 9.68218 13.75 9.3764 13.75 9.00268V4.93926C13.75 4.56554 14.0558 4.25977 14.4295 4.25977C14.8032 4.25977 15.109 4.56554 15.109 4.93926V9.00268C15.109 9.3764 14.8032 9.68218 14.4295 9.68218Z" fill="#01A674"/>
<path d="M20.492 7.65051C20.4037 7.65051 20.3153 7.63694 20.2338 7.60296C20.1522 7.56899 20.0775 7.51463 20.0095 7.45347C19.9484 7.39232 19.9008 7.31757 19.8668 7.23603C19.8329 7.14769 19.8125 7.05935 19.8125 6.97101C19.8125 6.79434 19.8872 6.61768 20.0095 6.49537C20.0775 6.42742 20.1522 6.37986 20.2338 6.34588C20.3969 6.27793 20.5871 6.27793 20.7502 6.34588C20.8385 6.37986 20.9065 6.42742 20.9744 6.49537C21.0967 6.61768 21.1715 6.79434 21.1715 6.97101C21.1715 7.05935 21.1579 7.14769 21.1171 7.23603C21.0832 7.31757 21.0356 7.39232 20.9744 7.45347C20.8453 7.58258 20.6687 7.65051 20.492 7.65051Z" fill="#01A674"/>
<path d="M23.5232 7.65187C23.3466 7.65187 23.1699 7.58394 23.0408 7.45483C23.0137 7.42086 22.9864 7.38687 22.9593 7.35289C22.9321 7.31212 22.9117 7.27816 22.8981 7.23739C22.8777 7.18983 22.8641 7.14905 22.8574 7.10828C22.8574 7.06072 22.8438 7.01994 22.8438 6.97238C22.8438 6.93161 22.8438 6.88404 22.8574 6.84327C22.8574 6.7957 22.8777 6.75493 22.8981 6.71416C22.9117 6.67339 22.9321 6.63263 22.9593 6.59866C22.9864 6.55789 23.0137 6.52392 23.0408 6.49674C23.1971 6.33366 23.4349 6.26571 23.6592 6.30648C23.6999 6.32007 23.7407 6.32686 23.7815 6.34725C23.8222 6.36084 23.863 6.38802 23.9038 6.4084C23.9377 6.43558 23.9717 6.46276 24.0057 6.49674C24.0329 6.52392 24.0601 6.55789 24.0872 6.59866C24.1144 6.63263 24.1348 6.67339 24.1484 6.71416C24.1688 6.75493 24.1823 6.7957 24.1891 6.84327C24.1891 6.88404 24.2027 6.93161 24.2027 6.97238C24.2027 7.01994 24.1959 7.06072 24.1891 7.10828C24.1891 7.14905 24.1688 7.18983 24.1484 7.23739C24.1348 7.27816 24.1144 7.31212 24.0872 7.35289C24.0601 7.38687 24.0329 7.42086 24.0057 7.45483C23.9717 7.48881 23.9377 7.51597 23.9038 7.54315L23.7815 7.60433C23.7407 7.61792 23.6999 7.6315 23.6592 7.63829C23.6116 7.65188 23.5708 7.65187 23.5232 7.65187Z" fill="#01A674"/>
</svg>
