<svg width="71" height="71" viewBox="0 0 71 71" fill="none" xmlns="http://www.w3.org/2000/svg">
<path d="M48.6484 33.373H54.3463V34.3379H52.0776V40.2705H50.9171V34.3379H48.6484V33.373Z" fill="#00B9E4"/>
<path d="M46.8584 38.1063H48.0188C47.6363 39.6796 46.602 40.4663 44.9156 40.4663C43.9682 40.4663 43.2206 40.1447 42.673 39.5014C42.1254 38.8582 41.8516 38.0281 41.8516 37.0111C41.8516 35.8724 42.1254 34.951 42.673 34.2469C43.2293 33.5341 44.0551 33.1777 45.1503 33.1777C46.1152 33.1777 46.8497 33.5385 47.3538 34.2599C47.858 34.9727 48.1101 35.955 48.1101 37.2067H43.0902C43.0902 37.9281 43.2597 38.4844 43.5987 38.8756C43.9377 39.2668 44.4332 39.4623 45.0851 39.4623C45.5806 39.4623 45.9978 39.3102 46.3368 39.006C46.6845 38.7017 46.8584 38.4019 46.8584 38.1063ZM43.0902 36.2809H46.9236C46.8366 34.9075 46.1891 34.2208 44.9808 34.2208C44.4593 34.2208 44.0116 34.4294 43.6378 34.8467C43.2728 35.2552 43.0902 35.7333 43.0902 36.2809Z" fill="#00B9E4"/>
<path d="M35.4862 33.373H40.5322V40.2705H39.3717V34.3379H36.6467V37.4802C36.6467 39.4099 36.0512 40.3748 34.8604 40.3748C34.6083 40.3748 34.3606 40.34 34.1172 40.2705V39.3708C34.2389 39.3882 34.3953 39.3969 34.5866 39.3969C34.8213 39.3969 34.9951 39.3447 35.1081 39.2404C35.2298 39.1361 35.3211 38.9188 35.3819 38.5885C35.4515 38.2582 35.4862 37.7584 35.4862 37.089V33.373Z" fill="#00B9E4"/>
<path d="M26.6371 39.4751C27.9236 39.4751 28.5668 38.2364 28.5668 35.7591C28.5668 33.2818 27.9236 32.0431 26.6371 32.0431C25.3507 32.0431 24.7074 33.2818 24.7074 35.7591C24.7074 38.2364 25.3507 39.4751 26.6371 39.4751ZM29.7273 34.5204C29.7794 34.9203 29.8055 35.3332 29.8055 35.7591C29.8055 36.185 29.7794 36.5979 29.7273 36.9977C29.6838 37.3976 29.5925 37.8192 29.4535 38.2625C29.3144 38.6971 29.1318 39.0752 28.9058 39.3968C28.6798 39.7185 28.3713 39.9879 27.9801 40.2052C27.5976 40.4139 27.15 40.5182 26.6371 40.5182C26.1243 40.5182 25.6723 40.4139 25.2811 40.2052C24.8986 39.9879 24.5944 39.7185 24.3684 39.3968C24.1424 39.0752 23.9599 38.6971 23.8208 38.2625C23.6817 37.8192 23.5861 37.3976 23.5339 36.9977C23.4905 36.5979 23.4688 36.185 23.4688 35.7591C23.4688 35.3332 23.4905 34.9203 23.5339 34.5204C23.5861 34.1206 23.6817 33.7033 23.8208 33.2687C23.9599 32.8254 24.1424 32.4429 24.3684 32.1213C24.5944 31.7997 24.8986 31.5346 25.2811 31.326C25.6723 31.1087 26.1243 31 26.6371 31C27.15 31 27.5976 31.1087 27.9801 31.326C28.3713 31.5346 28.6798 31.7997 28.9058 32.1213C29.1318 32.4429 29.3144 32.8254 29.4535 33.2687C29.5925 33.7033 29.6838 34.1206 29.7273 34.5204Z" fill="#00B9E4"/>
<path d="M17.3951 34.3248H16.2347C16.2347 33.7511 16.3129 33.2513 16.4694 32.8254C16.6345 32.3995 16.8301 32.0735 17.0561 31.8475C17.2908 31.6215 17.5646 31.4433 17.8776 31.3129C18.1905 31.1738 18.4643 31.0869 18.699 31.0522C18.9337 31.0174 19.1771 31 19.4291 31C20.2549 31 20.9416 31.2521 21.4892 31.7562C22.0456 32.2604 22.3237 32.9341 22.3237 33.7772C22.3237 34.1858 22.2672 34.5421 22.1542 34.8464C22.0412 35.1419 21.8282 35.4331 21.5153 35.72C21.2111 35.9981 20.8895 36.2415 20.5505 36.4501C20.2115 36.6587 19.716 36.9412 19.0641 37.2976C18.5078 37.6019 18.0818 37.9322 17.7863 38.2886C17.4994 38.645 17.3386 38.9405 17.3039 39.1752H22.3237V40.2704H16C16.0608 39.2534 16.2955 38.4494 16.7041 37.8583C17.1213 37.2585 17.9254 36.6501 19.1162 36.0329C19.8116 35.6765 20.3114 35.3418 20.6157 35.0289C20.9286 34.7073 21.085 34.2727 21.085 33.7251C21.085 33.2904 20.9329 32.9036 20.6287 32.5646C20.3332 32.2169 19.8768 32.0431 19.2596 32.0431C18.9293 32.0431 18.6425 32.1083 18.3991 32.2387C18.1557 32.3604 17.9732 32.4994 17.8515 32.6559C17.7385 32.8037 17.6429 33.0079 17.5646 33.2687C17.4951 33.5208 17.4516 33.7077 17.4342 33.8294C17.4169 33.9511 17.4038 34.1162 17.3951 34.3248Z" fill="#00B9E4"/>
<path d="M2.35152 26.91C2.26152 26.91 2.17149 26.9 2.07149 26.87C1.54149 26.72 1.23155 26.16 1.38155 25.63C5.71155 10.54 19.6815 0 35.3715 0H35.3915C35.8015 0 36.1615 0.239995 36.3115 0.619995C36.4715 0.989995 36.3815 1.41996 36.0915 1.70996L31.0915 6.70996C30.7015 7.09996 30.0715 7.09996 29.6815 6.70996C29.2915 6.31996 29.2915 5.69005 29.6815 5.30005L32.8816 2.09998C19.1216 3.13998 7.16154 12.7499 3.31154 26.1799C3.18154 26.6199 2.78152 26.9 2.35152 26.9V26.91Z" fill="#01B9E4"/>
<path d="M69.7828 36.3894C69.5228 36.3894 69.2628 36.2893 69.0728 36.0993L64.0728 31.0993C63.6828 30.7093 63.6828 30.0793 64.0728 29.6893C64.4628 29.2993 65.0928 29.2993 65.4828 29.6893L68.6828 32.8894C67.6428 19.1294 58.0328 7.1693 44.6028 3.3193C44.0728 3.1693 43.7628 2.60931 43.9128 2.07931C44.0628 1.54931 44.6228 1.23936 45.1528 1.38936C60.2528 5.71936 70.7828 19.6994 70.7828 35.3894C70.7828 35.7994 70.5428 36.1593 70.1628 36.3093C70.0428 36.3593 69.9128 36.3894 69.7828 36.3894Z" fill="#01B9E4"/>
<path d="M35.4091 70.7808H35.3891C34.9791 70.7808 34.6191 70.5408 34.4691 70.1608C34.3091 69.7908 34.3992 69.3608 34.6892 69.0708L39.6892 64.0708C40.0792 63.6808 40.7091 63.6808 41.0991 64.0708C41.4891 64.4608 41.4891 65.0908 41.0991 65.4808L37.8991 68.6807C51.6591 67.6407 63.6191 58.0308 67.4691 44.6008C67.6191 44.0708 68.1691 43.7608 68.7091 43.9108C69.2391 44.0608 69.5491 44.6208 69.3991 45.1508C65.0691 60.2408 51.0991 70.7808 35.4091 70.7808Z" fill="#01B9E4"/>
<path d="M25.91 69.4291C25.82 69.4291 25.73 69.4192 25.63 69.3892C10.53 65.0592 0 51.0792 0 35.3892C0 34.9792 0.239995 34.6192 0.619995 34.4692C0.989995 34.3092 1.41996 34.3991 1.70996 34.6891L6.70996 39.6891C7.09996 40.0791 7.09996 40.7092 6.70996 41.0992C6.31996 41.4892 5.68999 41.4892 5.29999 41.0992L2.09998 37.8992C3.13998 51.6592 12.75 63.6192 26.18 67.4692C26.71 67.6192 27.02 68.1791 26.87 68.7091C26.74 69.1491 26.34 69.4291 25.91 69.4291Z" fill="#01B9E4"/>
</svg>
