<svg width="60" height="72" viewBox="0 0 60 72" fill="none" xmlns="http://www.w3.org/2000/svg">
<path d="M29.7849 71.495C22.1549 71.495 14.525 68.595 8.715 62.785C-2.905 51.165 -2.905 32.265 8.715 20.645L29.075 0.285C29.455 -0.095 30.115 -0.095 30.485 0.285L50.845 20.645C62.465 32.265 62.465 51.165 50.845 62.785C45.035 68.595 37.4051 71.495 29.7751 71.495H29.7849ZM9.42496 21.355L10.135 22.065C-0.704956 32.905 -0.704956 50.535 10.135 61.375C20.975 72.215 38.605 72.215 49.445 61.375C60.285 50.535 60.285 32.905 49.445 22.065L29.795 2.415L10.1451 22.065L9.43497 21.355H9.42496Z" fill="#01B9E4"/>
<path d="M19.0665 55.1462H10.2266C9.67656 55.1462 9.22656 54.6962 9.22656 54.1462V34.5762C9.22656 34.0262 9.67656 33.5762 10.2266 33.5762H19.0665C19.6165 33.5762 20.0665 34.0262 20.0665 34.5762V54.1462C20.0665 54.6962 19.6165 55.1462 19.0665 55.1462ZM11.2266 53.1462H18.0665V35.5762H11.2266V53.1462Z" fill="#01B9E4"/>
<path d="M44.4803 55.1457H19.0703C18.8003 55.1457 18.5504 55.0357 18.3604 54.8557C18.1704 54.6757 18.0703 54.4157 18.0703 54.1457V36.7657C18.0703 36.5257 18.1703 36.2957 18.3203 36.1057L27.0004 26.1457C27.5804 25.3357 27.9104 24.3057 27.9104 23.2257V20.1057C27.9104 18.0257 29.6003 16.3457 31.6703 16.3457C33.7403 16.3457 35.4303 18.0357 35.4303 20.1057V27.6057C35.4303 28.8157 35.1303 29.9857 34.5503 31.0357H46.6003C48.6803 31.0357 50.3604 32.7257 50.3604 34.7957C50.3604 35.8857 49.8904 36.8757 49.1504 37.5557C49.8904 38.2457 50.3604 39.2257 50.3604 40.3157C50.3604 41.6857 49.6204 42.8957 48.5204 43.5457C49.0104 44.1857 49.3003 44.9757 49.3003 45.8357C49.3003 47.2057 48.5603 48.4157 47.4603 49.0657C47.9503 49.7057 48.2404 50.4957 48.2404 51.3557C48.2404 53.4357 46.5503 55.1157 44.4803 55.1157V55.1457ZM20.0703 53.1457H44.4803C45.4503 53.1457 46.2404 52.3557 46.2404 51.3857C46.2404 50.4157 45.4503 49.6257 44.4803 49.6257C43.9303 49.6257 43.4803 49.1757 43.4803 48.6257C43.4803 48.0757 43.9303 47.6257 44.4803 47.6257H45.5403C46.5103 47.6257 47.3003 46.8357 47.3003 45.8657C47.3003 44.8957 46.5103 44.1057 45.5403 44.1057C44.9903 44.1057 44.5403 43.6557 44.5403 43.1057C44.5403 42.5557 44.9903 42.1057 45.5403 42.1057H46.6003C47.5703 42.1057 48.3604 41.3157 48.3604 40.3457C48.3604 39.3757 47.5703 38.5857 46.6003 38.5857C46.0503 38.5857 45.6003 38.1357 45.6003 37.5857C45.6003 37.0357 46.0503 36.5857 46.6003 36.5857C47.5703 36.5857 48.3604 35.7957 48.3604 34.8257C48.3604 33.8557 47.5703 33.0657 46.6003 33.0657H32.6204C32.2404 33.0657 31.8903 32.8457 31.7203 32.5057C31.5503 32.1657 31.5903 31.7557 31.8203 31.4557L32.4803 30.6057C33.0903 29.7557 33.4303 28.7157 33.4303 27.6357V20.1357C33.4303 19.1657 32.6403 18.3757 31.6703 18.3757C30.7003 18.3757 29.9104 19.1657 29.9104 20.1357V23.2557C29.9104 24.7557 29.4503 26.1957 28.5703 27.4157L20.0803 37.1657V53.1657L20.0703 53.1457Z" fill="#01B9E4"/>
</svg>
