<svg width="72" height="72" viewBox="0 0 72 72" fill="none" xmlns="http://www.w3.org/2000/svg">
<path d="M35.611 57.8535C35.291 57.8535 34.971 57.8536 34.641 57.8336C22.331 57.3036 12.741 46.8635 13.271 34.5535C13.801 22.2435 24.231 12.6735 36.551 13.1835C40.351 13.3435 44.051 14.4736 47.271 16.4536C47.741 16.7436 47.891 17.3536 47.601 17.8336C47.311 18.3136 46.691 18.4535 46.221 18.1635C43.291 16.3635 39.921 15.3335 36.461 15.1835C25.271 14.7035 15.741 23.4336 15.261 34.6436C14.781 45.8536 23.511 55.3635 34.721 55.8435C45.931 56.3135 55.441 47.5935 55.921 36.3835C56.001 34.4735 55.821 32.5835 55.381 30.7435C55.251 30.2035 55.581 29.6635 56.121 29.5335C56.661 29.4135 57.201 29.7336 57.331 30.2736C57.821 32.2936 58.021 34.3735 57.931 36.4635C57.421 48.4535 47.501 57.8535 35.621 57.8535H35.611Z" fill="#01B9E4"/>
<path d="M33.8037 47.9445C33.5437 47.9445 33.2937 47.8445 33.0938 47.6545L20.5737 35.1345C20.1838 34.7445 20.1838 34.1145 20.5737 33.7245L25.2937 29.0045C25.6737 28.6245 26.3337 28.6245 26.7037 29.0045L33.7938 36.0945L50.0837 19.8045C50.4637 19.4245 51.1237 19.4245 51.4937 19.8045L56.2137 24.5246C56.6037 24.9146 56.6037 25.5445 56.2137 25.9345L34.4937 47.6545C34.2937 47.8545 34.0437 47.9445 33.7837 47.9445H33.8037ZM22.7037 34.4245L33.8037 45.5246L54.1037 25.2245L50.8037 21.9245L34.5137 38.2145C34.1337 38.5945 33.4737 38.5945 33.1037 38.2145L26.0138 31.1245L22.7137 34.4245H22.7037Z" fill="#01B9E4"/>
<path d="M27.9628 71.2643C27.8928 71.2643 27.8228 71.2643 27.7428 71.2443C23.6028 70.3243 19.6628 68.6943 16.0528 66.3843C15.8128 66.2343 15.6528 65.9843 15.6028 65.7043C15.5528 65.4243 15.6328 65.1343 15.8028 64.9143C17.9528 62.2243 17.7428 58.3643 15.3228 55.9443C12.9028 53.5243 9.05282 53.3243 6.35282 55.4643C6.13282 55.6443 5.84282 55.7143 5.56282 55.6643C5.28282 55.6143 5.03282 55.4543 4.88282 55.2143C2.57282 51.5943 0.942823 47.6643 0.0228227 43.5243C-0.0371773 43.2444 0.0228228 42.9543 0.182823 42.7243C0.342823 42.4943 0.602823 42.3443 0.882823 42.3143C4.31282 41.9343 6.89282 39.0643 6.89282 35.6343C6.89282 32.2043 4.30282 29.3343 0.882823 28.9543C0.602823 28.9243 0.342823 28.7743 0.182823 28.5443C0.0228228 28.3143 -0.0371773 28.0243 0.0228227 27.7443C0.932823 23.6043 2.57282 19.6643 4.88282 16.0543C5.03282 15.8143 5.28282 15.6543 5.56282 15.6043C5.84282 15.5643 6.13282 15.6343 6.35282 15.8043C9.04282 17.9543 12.9028 17.7443 15.3228 15.3243C17.7428 12.9043 17.9428 9.05431 15.8028 6.35431C15.6228 6.13431 15.5528 5.84433 15.6028 5.56433C15.6528 5.28433 15.8128 5.03434 16.0528 4.88434C19.6728 2.57434 23.6028 0.944351 27.7428 0.0243511C28.0228 -0.0356489 28.3128 0.0243242 28.5428 0.184324C28.7728 0.354324 28.9228 0.604336 28.9528 0.884336C29.3328 4.31434 32.2028 6.89435 35.6328 6.89435C39.0628 6.89435 41.9328 4.31434 42.3128 0.884336C42.3428 0.604336 42.4928 0.344324 42.7228 0.184324C42.9528 0.0143242 43.2428 -0.0356489 43.5228 0.0243511C47.6628 0.944351 51.6028 2.57434 55.2128 4.88434C55.4528 5.03434 55.6128 5.28433 55.6628 5.56433C55.7128 5.84433 55.6328 6.13431 55.4628 6.35431C53.3128 9.04431 53.5228 12.9043 55.9428 15.3243C58.3628 17.7443 62.2128 17.9443 64.9128 15.8043C65.1328 15.6243 65.4228 15.5543 65.7028 15.6043C65.9828 15.6543 66.2328 15.8143 66.3828 16.0543C68.6928 19.6643 70.3228 23.6043 71.2428 27.7443C71.3028 28.0243 71.2428 28.3143 71.0828 28.5443C70.9128 28.7743 70.6628 28.9243 70.3828 28.9543C66.9528 29.3343 64.3628 32.2043 64.3628 35.6343C64.3628 39.0643 66.9528 41.9343 70.3828 42.3143C70.6628 42.3443 70.9228 42.4943 71.0828 42.7243C71.2528 42.9543 71.3028 43.2444 71.2428 43.5243C70.3228 47.6643 68.6928 51.6043 66.3828 55.2143C66.2328 55.4543 65.9828 55.6143 65.7028 55.6643C65.4228 55.7043 65.1328 55.6343 64.9128 55.4643C62.2228 53.3143 58.3628 53.5243 55.9428 55.9443C53.5228 58.3643 53.3228 62.2143 55.4628 64.9143C55.6428 65.1343 55.7128 65.4243 55.6628 65.7043C55.6128 65.9843 55.4528 66.2343 55.2128 66.3843C51.6028 68.6943 47.6628 70.3243 43.5228 71.2443C43.2428 71.3043 42.9528 71.2444 42.7228 71.0844C42.4928 70.9144 42.3428 70.6643 42.3128 70.3843C41.9328 66.9543 39.0628 64.3743 35.6328 64.3743C32.2028 64.3743 29.3328 66.9543 28.9528 70.3843C28.9228 70.6643 28.7728 70.9243 28.5428 71.0844C28.3728 71.2044 28.1628 71.2744 27.9628 71.2744V71.2643ZM35.6328 62.3643C39.7028 62.3643 43.1628 65.1743 44.1028 69.0543C47.3128 68.2443 50.3828 66.9643 53.2528 65.2543C51.1828 61.8443 51.6528 57.4143 54.5228 54.5443C57.3928 51.6743 61.8228 51.2043 65.2328 53.2743C66.9428 50.4044 68.2228 47.3343 69.0328 44.1243C65.1528 43.1843 62.3428 39.7243 62.3428 35.6543C62.3428 31.5843 65.1528 28.1243 69.0328 27.1843C68.2228 23.9743 66.9428 20.9043 65.2328 18.0343C61.8328 20.1043 57.3928 19.6343 54.5228 16.7643C51.6528 13.8943 51.1828 9.46432 53.2528 6.05432C50.3828 4.34432 47.3128 3.06433 44.1028 2.25433C43.1628 6.13433 39.7028 8.94433 35.6328 8.94433C31.5628 8.94433 28.1028 6.13433 27.1628 2.25433C23.9528 3.06433 20.8828 4.34432 18.0128 6.05432C20.0828 9.46432 19.6128 13.8943 16.7428 16.7643C13.8728 19.6343 9.44282 20.1043 6.03282 18.0343C4.32282 20.9043 3.04282 23.9743 2.23282 27.1843C6.11282 28.1243 8.92282 31.5843 8.92282 35.6543C8.92282 39.7243 6.11282 43.1843 2.23282 44.1243C3.04282 47.3343 4.32282 50.4044 6.03282 53.2743C9.44282 51.2043 13.8728 51.6743 16.7428 54.5443C19.6128 57.4143 20.0828 61.8443 18.0128 65.2543C20.8828 66.9643 23.9528 68.2443 27.1628 69.0543C28.1028 65.1743 31.5628 62.3643 35.6328 62.3643Z" fill="#01B9E4"/>
</svg>
