<svg width="76" height="57" viewBox="0 0 76 57" fill="none" xmlns="http://www.w3.org/2000/svg">
<circle cx="47.901" cy="28.1042" r="27.1042" fill="#d7ebf2" stroke="#00B9E4" stroke-width="2"/>
<circle cx="38.401" cy="28.1042" r="27.1042" fill="#d7ebf2" stroke="#00B9E4" stroke-width="2"/>
<circle cx="28.1042" cy="28.1042" r="27.1042" fill="#d7ebf2" stroke="#00B9E4" stroke-width="2"/>
<path d="M8.66467 23.255H16.1855V24.6325H10.2163V34.75H8.66467V23.255ZM25.0576 32.375C25.7754 31.5094 26.1343 30.3853 26.1343 29.0025C26.1343 27.6197 25.7754 26.4956 25.0576 25.63C24.3398 24.7644 23.3687 24.3317 22.1443 24.3317C20.9093 24.3317 19.9329 24.7592 19.2151 25.6142C18.5079 26.4692 18.1543 27.5881 18.1543 28.9708C18.1543 30.3536 18.5132 31.4831 19.2309 32.3592C19.9487 33.2353 20.9198 33.6733 22.1443 33.6733C23.3687 33.6733 24.3398 33.2406 25.0576 32.375ZM27.5593 27.4192C27.6754 27.9469 27.7334 28.4747 27.7334 29.0025C27.7334 29.5303 27.6754 30.0581 27.5593 30.5858C27.4537 31.1136 27.2637 31.6519 26.9893 32.2008C26.7148 32.7497 26.3718 33.23 25.9601 33.6417C25.559 34.0533 25.0259 34.3911 24.3609 34.655C23.7065 34.9189 22.9676 35.0508 22.1443 35.0508C21.3209 35.0508 20.5768 34.9189 19.9118 34.655C19.2573 34.3911 18.7243 34.0533 18.3126 33.6417C17.9115 33.23 17.5737 32.7497 17.2993 32.2008C17.0248 31.6519 16.8296 31.1136 16.7134 30.5858C16.6079 30.0581 16.5551 29.5303 16.5551 29.0025C16.5551 28.4747 16.6079 27.9469 16.7134 27.4192C16.8296 26.8914 17.0248 26.3531 17.2993 25.8042C17.5737 25.2553 17.9115 24.775 18.3126 24.3633C18.7243 23.9517 19.2573 23.6139 19.9118 23.35C20.5768 23.0861 21.3209 22.9542 22.1443 22.9542C22.9676 22.9542 23.7065 23.0861 24.3609 23.35C25.0259 23.6139 25.559 23.9517 25.9601 24.3633C26.3718 24.775 26.7148 25.2553 26.9893 25.8042C27.2637 26.3531 27.4537 26.8914 27.5593 27.4192ZM33.8807 24.6325V34.75H32.3291V24.6325H28.4341V23.255H37.7757V24.6325H33.8807ZM40.7079 24.585V28.1158H43.5104C44.302 28.1158 44.8984 27.9786 45.2995 27.7042C45.7006 27.4192 45.9012 26.9389 45.9012 26.2633C45.9012 25.1444 45.1095 24.585 43.5262 24.585H40.7079ZM39.1562 34.75V23.255H44.207C45.2415 23.255 46.0384 23.5347 46.5979 24.0942C47.1679 24.6431 47.4529 25.3292 47.4529 26.1525C47.4529 27.2714 46.9409 28.0736 45.917 28.5592C46.1387 28.6436 46.3129 28.7175 46.4395 28.7808C46.5662 28.8336 46.7404 28.9392 46.962 29.0975C47.1943 29.2558 47.3737 29.4247 47.5004 29.6042C47.627 29.7836 47.7431 30.0264 47.8487 30.3325C47.9543 30.6386 48.007 30.9764 48.007 31.3458C48.007 32.3169 47.6587 33.1297 46.962 33.7842C46.2759 34.4281 45.3206 34.75 44.0962 34.75H39.1562ZM40.7079 29.3825V33.42H44.017C44.8087 33.42 45.4104 33.2353 45.822 32.8658C46.2443 32.4858 46.4554 31.9686 46.4554 31.3142C46.4554 30.0264 45.5581 29.3825 43.7637 29.3825H40.7079Z" fill="#00B9E4"/>
</svg>
