<svg width="228" height="42" viewBox="0 0 228 42" fill="none" xmlns="http://www.w3.org/2000/svg">
<path d="M223.148 16.9198C220.474 16.9198 218.296 14.7411 218.296 12.0667C218.296 9.39234 220.474 7.21826 223.148 7.21826C225.822 7.21826 228 9.39234 228 12.0667C228 14.7411 225.822 16.9198 223.148 16.9198ZM223.148 8.15521C220.988 8.15521 219.237 9.91085 219.237 12.0667C219.237 14.2226 220.993 15.9828 223.148 15.9828C225.303 15.9828 227.063 14.2272 227.063 12.0667C227.063 9.9063 225.308 8.15521 223.148 8.15521Z" fill="white"/>
<path d="M220.941 9.61523H223.524C224.097 9.61523 224.679 9.64252 225.066 10.0064C225.325 10.252 225.402 10.5385 225.402 10.866C225.402 11.1617 225.339 11.4573 225.093 11.6984C224.925 11.8712 224.675 11.9849 224.434 12.0304V12.044C224.625 12.0759 224.857 12.1759 224.989 12.3078C225.193 12.5171 225.211 12.8036 225.225 13.0265L225.261 13.6223C225.275 13.8543 225.307 14.0407 225.457 14.2727H224.538C224.42 14.0726 224.366 13.8815 224.361 13.6678L224.343 13.1902C224.338 12.9901 224.325 12.7445 224.143 12.5716C223.929 12.3715 223.556 12.3624 223.338 12.3624H221.796V14.2727H220.951V9.61523H220.941ZM221.787 11.7256H223.447C223.693 11.7256 224.02 11.6756 224.22 11.5437C224.452 11.3891 224.502 11.1571 224.502 10.957C224.502 10.6568 224.366 10.4976 224.256 10.4203C224.084 10.2929 223.797 10.2565 223.352 10.2565H221.792V11.7302L221.787 11.7256Z" fill="white"/>
<path d="M192.729 20.2443V24.588H175.249V31.2649H192.729V35.7904H169.946V9.56494H192.729V14.1906H175.249V20.2443H192.729Z" fill="white"/>
<path d="M89.7218 36.5045C82.1412 36.5045 75.9658 30.3279 75.9658 22.7368C75.9658 15.1457 82.1412 8.97363 89.7218 8.97363C97.3024 8.97363 103.487 15.1502 103.487 22.7368C103.487 30.3233 97.3115 36.5045 89.7218 36.5045ZM89.7218 14.1359C84.9879 14.1359 81.1226 17.9974 81.1226 22.7368C81.1226 27.4761 84.9834 31.3421 89.7218 31.3421C94.4603 31.3421 98.3256 27.4761 98.3256 22.7368C98.3256 17.9974 94.4648 14.1359 89.7218 14.1359Z" fill="white"/>
<path d="M66.7293 21.9681C68.1026 21.2723 70.0489 19.2119 70.0489 15.9508C70.0489 11.9164 66.6565 9.56494 62.7912 9.56494H45.7383V35.895H63.8917C68.712 35.895 71.8406 32.7749 71.8406 28.9179C71.8406 25.2657 69.4714 22.6458 66.7293 21.9727M51.0633 14.1633H61.0632C63.1595 14.1633 65.0012 15.032 65.0012 16.9332C65.0012 19.3074 63.1595 20.1716 61.0632 20.1716H51.0633V14.1633ZM62.7775 31.2694H51.0633V24.5698H62.7775C65.1013 24.5698 66.7747 25.9161 66.7747 28.0219C66.7747 30.1278 65.0558 31.2694 62.7775 31.2694Z" fill="white"/>
<path d="M221.05 35.8723H198.204V9.56494H203.493V31.2694H221.05V35.8723Z" fill="white"/>
<path d="M139.42 14.1633V9.56494H164.153V14.1633H154.472V35.9041H149.101V14.1633H139.42Z" fill="white"/>
<path d="M134 35.9132H128.265L114.041 17.2925V35.9132H108.702V9.56494H114.191L128.629 28.454V9.56494H134V35.9132Z" fill="white"/>
<path fill-rule="evenodd" clip-rule="evenodd" d="M13.9788 0.277446C13.9788 0.277446 14.0743 0 14.3017 0C14.5336 0 14.6246 0.277446 14.6246 0.277446C18.4771 7.37737 21.447 12.0586 23.6382 15.5125C27.083 20.9422 28.6034 23.3387 28.6034 27.3307C28.6034 35.2174 22.2006 41.6123 14.3017 41.6123C6.4028 41.6123 0 35.2174 0 27.3307C0 23.3413 1.52059 20.9441 4.96575 15.5128C7.15694 12.0585 10.1267 7.37675 13.9788 0.277446ZM13.9336 11.1798C13.9927 11.1298 14.0791 11.0706 14.1291 11.0706L14.1337 11.0843C14.1882 11.0843 14.2064 11.1525 14.1155 11.3663C13.1969 13.5222 13.7971 15.6326 14.9613 16.9561C17.1682 19.4702 17.511 21.3057 17.725 22.4512C17.7395 22.5284 17.7533 22.6024 17.7671 22.6733C17.7853 22.7688 17.808 22.8098 17.8307 22.8098C17.8535 22.8098 17.8853 22.7688 17.9217 22.7006C18.0717 22.4368 18.2764 21.9001 18.2991 20.6175C18.3128 19.7169 18.7857 18.357 19.4542 17.6111C19.4951 17.5656 19.5269 17.5383 19.5497 17.5383C19.5724 17.5383 19.586 17.5701 19.586 17.6475C19.6315 18.6936 20.009 19.485 20.2909 20.0035C20.4703 20.3348 20.7182 20.6739 20.9932 21.05C21.945 22.3518 23.2212 24.0972 23.1012 27.4991C22.9239 32.6386 18.8357 36.1181 14.3428 36.1181C9.84997 36.1181 5.72089 32.5022 5.72089 27.5082C5.72089 25.6888 6.21376 24.5177 6.57568 23.6577C6.60553 23.5868 6.63449 23.518 6.66221 23.4511C7.09877 22.4004 6.98963 21.5272 6.93506 21.1633C6.89868 20.9222 6.91232 20.8222 7.00327 20.8222C7.06693 20.8222 7.17153 20.8722 7.32159 20.9541C9.42251 22.1093 9.64988 24.3016 9.63169 24.9065C9.63169 25.0066 9.66807 25.0384 9.66807 25.0384L9.73628 24.9793C11.0323 23.1554 10.9414 21.3088 10.7913 20.4083C10.7809 20.3454 10.7707 20.2835 10.7605 20.2225C10.5883 19.1844 10.4565 18.3907 10.6412 17.0289C11.1248 13.4616 13.6033 11.4482 13.9143 11.1955C13.9221 11.1891 13.9286 11.1839 13.9336 11.1798Z" fill="white"/>
</svg>
