<svg width="21" height="15" viewBox="0 0 21 15" fill="none" xmlns="http://www.w3.org/2000/svg">
<path d="M20.475 2.27679C20.2125 1.33929 19.5563 0.669643 18.6375 0.401786C17.0625 2.39483e-07 10.3687 0 10.3687 0C10.3687 0 3.80626 2.39483e-07 2.10001 0.401786C1.18126 0.669643 0.524996 1.33929 0.262496 2.27679C-4.00934e-06 4.01786 0 7.5 0 7.5C0 7.5 3.98979e-06 10.9821 0.393754 12.7232C0.656254 13.6607 1.3125 14.3304 2.23125 14.5982C3.80625 15 10.5 15 10.5 15C10.5 15 17.0625 15 18.7687 14.5982C19.6875 14.3304 20.3438 13.6607 20.6063 12.7232C21 10.9821 21 7.5 21 7.5C21 7.5 21 4.01786 20.475 2.27679ZM8.39999 10.7143V4.28572L13.9125 7.5L8.39999 10.7143Z" fill="#EF3340"/>
</svg>
