<svg width="12" height="8" viewBox="0 0 12 8" fill="none" xmlns="http://www.w3.org/2000/svg">
<path d="M10.3043 2.95508H1.43449C1.02648 2.95508 0.695312 3.28624 0.695312 3.69426C0.695312 4.10227 1.02648 4.43343 1.43449 4.43343H10.3043C10.7124 4.43343 11.0435 4.10227 11.0435 3.69426C11.0435 3.28624 10.7124 2.95508 10.3043 2.95508Z" fill="#A3BFCE"/>
<path d="M10.8289 3.17284L7.87222 0.216203C7.58395 -0.0720675 7.1153 -0.0720675 6.82703 0.216203C6.53876 0.504473 6.53876 0.973119 6.82703 1.26139L9.26035 3.69471L6.82558 6.12948C6.53731 6.41775 6.53731 6.8864 6.82558 7.17467C6.97048 7.31804 7.15965 7.39052 7.3489 7.39052C7.53815 7.39052 7.72732 7.31811 7.87222 7.17467L10.8289 4.21803C11.1171 3.92969 11.1171 3.46111 10.8289 3.17284Z" fill="#A3BFCE"/>
</svg>
