<svg width="16" height="16" viewBox="0 0 16 16" fill="none" xmlns="http://www.w3.org/2000/svg">
<path fill-rule="evenodd" clip-rule="evenodd" d="M6.48798 0C5.71436 0 5.06904 0.530429 5.00148 1.22183C4.86024 2.66741 4.8245 4.11944 4.89436 5.56862C4.81003 5.57368 4.72571 5.57897 4.6414 5.58448L3.1519 5.68189C2.19985 5.74416 1.66764 6.69655 2.18163 7.41821C3.2778 8.9573 4.69026 10.2953 6.34369 11.3609L6.94043 11.7455C7.42425 12.0573 8.07591 12.0573 8.55972 11.7455L9.15646 11.3609C10.8099 10.2953 12.2224 8.9573 13.3185 7.41821C13.8325 6.69655 13.3003 5.74416 12.3483 5.68189L10.8588 5.58448C10.7745 5.57897 10.6901 5.57368 10.6058 5.56862C10.6757 4.11943 10.6399 2.66741 10.4987 1.22183C10.4311 0.530427 9.7858 0 9.01219 0H6.48798ZM6.43157 6.15876C6.31786 4.55534 6.33909 2.94643 6.49513 1.34574H9.00503C9.16106 2.94643 9.1823 4.55534 9.06859 6.15876C9.05584 6.33852 9.12396 6.51537 9.2577 6.64971C9.39144 6.78405 9.57964 6.86468 9.78017 6.87354C10.1035 6.88783 10.4267 6.90554 10.7497 6.92666L11.8315 6.99741C10.8719 8.26536 9.67044 9.37269 8.28133 10.2679L7.75008 10.6103L7.21882 10.2679C5.82972 9.37269 4.62824 8.26536 3.6687 6.99741L4.75046 6.92666C5.07345 6.90554 5.39664 6.88783 5.71999 6.87354C5.92052 6.86468 6.10871 6.78405 6.24246 6.64971C6.3762 6.51537 6.44432 6.33852 6.43157 6.15876Z" fill="white"/>
<path d="M1.5 12.336C1.5 11.9643 1.16421 11.6631 0.75 11.6631C0.335786 11.6631 0 11.9643 0 12.336V14.1303C0 14.9974 0.783502 15.7003 1.75 15.7003H13.75C14.7165 15.7003 15.5 14.9974 15.5 14.1303V12.336C15.5 11.9643 15.1642 11.6631 14.75 11.6631C14.3358 11.6631 14 11.9643 14 12.336V14.1303C14 14.2541 13.8881 14.3546 13.75 14.3546H1.75C1.61193 14.3546 1.5 14.2541 1.5 14.1303V12.336Z" fill="white"/>
</svg>
