<svg width="76" height="77" viewBox="0 0 76 77" fill="none" xmlns="http://www.w3.org/2000/svg">
<path d="M12.18 50.9904V37.2504C12.18 35.2004 13.75 33.5303 15.75 33.3703C15.86 33.3503 15.97 33.3504 16.08 33.3504C17.16 33.3504 18.14 33.7904 18.84 34.4904C19.55 35.1904 19.99 36.1704 19.99 37.2504V43.2704H53.29M12.18 50.9904H50.35M12.18 50.9904H61.1V43.2704M57.19 33.3504C55.04 33.3504 53.29 35.0904 53.29 37.2504V43.2704M53.29 43.2704V44.2404M37.72 1.61035C17.44 1.61035 1 18.0504 1 38.3304C1 58.6104 17.44 75.0504 37.72 75.0504C58 75.0504 74.44 58.6104 74.44 38.3304C74.44 18.0504 58 1.61035 37.72 1.61035Z" stroke="#00B9E4" stroke-width="2" stroke-miterlimit="10"/>
<path d="M19.99 43.2702V37.2502C19.99 36.1702 19.55 35.1902 18.84 34.4902C18.14 33.7902 17.16 33.3502 16.08 33.3502C15.97 33.3502 15.86 33.3502 15.75 33.3702V25.8802C15.75 23.9902 17.28 22.4502 19.17 22.4502H53.77C55.66 22.4502 57.19 23.9902 57.19 25.8802V33.3502" stroke="#00B9E4" stroke-width="2" stroke-miterlimit="10"/>
<path d="M57.1916 50.9902H50.3516V55.0302H57.1916V50.9902Z" stroke="#00B9E4" stroke-width="2" stroke-miterlimit="10"/>
<path d="M22.59 50.9902H15.75V55.0302H22.59V50.9902Z" stroke="#00B9E4" stroke-width="2" stroke-miterlimit="10"/>
<path d="M19.9922 44.2395V43.2695" stroke="#00B9E4" stroke-width="2" stroke-miterlimit="10"/>
<path d="M53.2891 44.2396V37.2496C53.2891 35.0896 55.0391 33.3496 57.1891 33.3496C58.2691 33.3496 59.2491 33.7896 59.9591 34.4896C60.6591 35.1896 61.0991 36.1696 61.0991 37.2496V43.2696" stroke="#00B9E4" stroke-width="2" stroke-miterlimit="10"/>
<path d="M53.2922 43.2695H19.9922" stroke="#00B9E4" stroke-width="2" stroke-miterlimit="10"/>
<path d="M50.3516 50.9895H53.2916H57.1916H61.1016V43.2695" stroke="#00B9E4" stroke-width="2" stroke-miterlimit="10"/>
</svg>
