<svg width="76" height="76" viewBox="0 0 76 76" fill="none" xmlns="http://www.w3.org/2000/svg">
<path d="M37.72 74.44C57.9999 74.44 74.44 57.9999 74.44 37.72C74.44 17.4401 57.9999 1 37.72 1C17.4401 1 1 17.4401 1 37.72C1 57.9999 17.4401 74.44 37.72 74.44Z" stroke="#00B9E4" stroke-width="2" stroke-miterlimit="10"/>
<path d="M54.2188 32.8398V58.1098H18.2188V33.1598" stroke="#00B9E4" stroke-width="2" stroke-miterlimit="10"/>
<path d="M36.4394 12.5597L36.1894 12.2197L20.5694 23.6597L18.2194 25.3797L10.3894 31.1097C9.54938 31.7297 9.10938 32.6797 9.10938 33.6497C9.10938 34.2897 9.29938 34.9397 9.70938 35.4997C10.7294 36.8997 12.6994 37.1997 14.0994 36.1797L18.2194 33.1597L31.1994 23.6597L36.4394 19.8197" stroke="#00B9E4" stroke-width="2" stroke-miterlimit="10"/>
<path d="M36.4387 12.5597L36.6887 12.2197L52.3088 23.6597L54.2188 25.0497L62.4888 31.1097C63.3288 31.7297 63.7687 32.6797 63.7687 33.6497C63.7687 34.2897 63.5787 34.9397 63.1687 35.4997C62.1487 36.8997 60.1787 37.1997 58.7787 36.1797L54.2188 32.8397L41.6787 23.6597L36.4387 19.8197L36.2188 19.9797" stroke="#00B9E4" stroke-width="2" stroke-miterlimit="10"/>
<path d="M43.8372 35.85C43.7672 35.77 43.6872 35.78 43.6472 35.8C43.6072 35.81 43.5272 35.86 43.5372 35.98C43.5472 36.12 43.5572 36.26 43.5572 36.4C43.5572 36.98 43.3272 37.55 42.9172 37.96C42.5072 38.37 41.9672 38.59 41.3972 38.58C40.6172 38.57 39.9672 38.16 39.5172 37.4C39.1472 36.77 39.3072 35.95 39.4772 35.09C39.5772 34.59 39.6772 34.06 39.6772 33.57C39.6772 29.7 37.0772 27.47 35.5272 26.49C35.4972 26.47 35.4672 26.46 35.4372 26.46C35.3972 26.46 35.3572 26.48 35.3372 26.49C35.3072 26.51 35.2472 26.56 35.2672 26.65C35.8572 29.8 34.0972 31.69 32.2272 33.69C30.2972 35.75 28.1172 38.09 28.1172 42.31C28.1172 47.21 32.1072 51.2 37.0072 51.2C41.0472 51.2 44.6072 48.39 45.6672 44.36C46.3872 41.61 45.6372 38.11 43.8272 35.85H43.8372ZM37.2472 49.31C36.0172 49.37 34.8472 48.93 33.9572 48.07C33.0772 47.23 32.5672 46.05 32.5672 44.84C32.5672 42.57 33.4372 40.9 35.7672 38.69C35.8072 38.65 35.8472 38.64 35.8772 38.64C35.9072 38.64 35.9372 38.64 35.9572 38.66C35.9972 38.68 36.0572 38.73 36.0472 38.83C35.9672 39.8 35.9672 40.61 36.0472 41.23C36.2672 42.81 37.4272 43.87 38.9272 43.87C39.6672 43.87 40.3672 43.59 40.8972 43.09C40.9572 43.03 41.0272 43.04 41.0572 43.04C41.0972 43.04 41.1372 43.07 41.1672 43.13C41.3872 43.67 41.5072 44.24 41.5072 44.83C41.5072 47.2 39.5972 49.21 37.2372 49.31H37.2472Z" stroke="#00B9E4" stroke-width="2" stroke-miterlimit="10"/>
</svg>
