<svg width="76" height="76" viewBox="0 0 76 76" fill="none" xmlns="http://www.w3.org/2000/svg">
<path d="M37.72 74.6597C57.9999 74.6597 74.44 58.2196 74.44 37.9397C74.44 17.6598 57.9999 1.21973 37.72 1.21973C17.4401 1.21973 1 17.6598 1 37.9397C1 58.2196 17.4401 74.6597 37.72 74.6597Z" stroke="#00B9E4" stroke-width="2" stroke-miterlimit="10"/>
<path d="M42.8905 56.0081L42.8894 56.0082C40.2077 56.2221 38.3236 55.4999 36.5507 54.8203C36.2448 54.7031 35.9422 54.5871 35.6394 54.4774C33.6055 53.7407 31.4332 53.2174 27.8323 54.289L27.1897 54.4803V53.8098V43.3498V43.0234L27.4885 42.8921C28.4272 42.4794 29.3546 42.1773 30.4206 42.1013C32.9262 41.8864 37.2051 42.2641 40.5182 43.2194M42.8905 56.0081L59.4883 45.2522C59.4883 45.2531 59.4884 45.254 59.4885 45.2549M42.8905 56.0081C43.8426 55.9302 45.3796 55.3836 47.1031 54.593C48.8122 53.8091 50.7684 52.7549 52.6438 51.5798H52.6542M42.8905 56.0081L52.6542 51.5798M40.5182 43.2194L40.3797 43.6998L40.5182 43.2194ZM40.5182 43.2194C41.9501 43.6321 43.1291 44.1292 43.9832 44.6875C44.8196 45.2342 45.4372 45.9016 45.5542 46.6861L45.5597 46.7227V46.7531C45.5599 46.7544 45.5601 46.756 45.5604 46.7581L45.5658 46.7919C45.5683 46.8073 45.5715 46.8267 45.5747 46.8491L45.5836 46.9119L45.5766 46.975C45.5547 47.1728 45.5 47.3336 45.4225 47.466C45.3524 47.586 45.2717 47.6655 45.24 47.6967C45.2374 47.6992 45.2351 47.7015 45.2332 47.7034L45.2256 47.711L45.2176 47.7184C44.8039 48.0975 43.7331 48.5394 40.9237 48.1654M40.9237 48.1654L40.9897 47.6698L40.9237 48.1654ZM40.9237 48.1654C39.175 47.9329 37.5329 47.5029 36.3649 47.1971C36.1523 47.1414 35.9554 47.0899 35.7765 47.0444L35.7764 47.0443C35.4941 46.9725 35.2154 47.1407 35.1439 47.4143C35.0728 47.6965 35.2414 47.9748 35.5152 48.0458L35.5156 48.0459C35.6165 48.0722 35.7203 48.0993 35.827 48.1271C37.2958 48.5108 39.2867 49.0309 41.1907 49.2454C42.2106 49.3604 43.1821 49.3846 44.0187 49.2614C44.8582 49.1378 45.5177 48.8725 45.9653 48.4473L46.046 48.3707L46.1516 48.3355C46.2352 48.3076 46.272 48.2767 46.4161 48.1556C46.4406 48.1351 46.4682 48.1119 46.4996 48.0857L46.5016 48.084C47.5855 47.1902 49.0861 46.19 50.6581 45.3456C52.2245 44.5042 53.8972 43.7983 55.3226 43.5193M55.3226 43.5193C55.323 43.5193 55.3233 43.5192 55.3237 43.5191L55.4197 44.0098L55.3216 43.5195C55.3219 43.5195 55.3223 43.5194 55.3226 43.5193ZM55.3226 43.5193C55.6354 43.4568 55.9122 43.4098 56.2997 43.4098C56.8495 43.4098 57.5712 43.5123 58.1825 43.7619C58.765 43.9998 59.4325 44.455 59.4885 45.2549M59.4885 45.2549C59.5015 45.4361 59.4477 45.6127 59.3883 45.7549M59.4885 45.2549L59.3883 45.7549M52.6542 51.5798L52.7764 51.5027M52.6542 51.5798L52.7764 51.5027M52.7764 51.5027C55.2875 49.9194 56.9483 48.5828 57.9833 47.562M52.7764 51.5027L57.9833 47.562M57.9833 47.562C58.5 47.0524 58.8686 46.6138 59.1094 46.2554M57.9833 47.562L59.1094 46.2554M59.1094 46.2554C59.2296 46.0765 59.324 45.9086 59.3883 45.7549M59.1094 46.2554L59.3883 45.7549M60.521 45.1764L60.5334 45.3448C60.5086 46.1711 59.908 47.2168 58.3501 48.6628C56.5159 50.36 53.5066 52.3975 50.5122 54.0468C49.0181 54.8698 47.5382 55.5903 46.2221 56.1204C44.8956 56.6547 43.773 56.9799 42.981 57.0413L42.9806 57.0413C40.0436 57.2714 38.1963 56.5542 36.3682 55.8445C36.0539 55.7225 35.7402 55.6008 35.4217 55.4841C34.3328 55.0852 33.1901 54.7502 31.8122 54.7182C30.4351 54.6863 28.8558 54.9573 26.8819 55.7225C26.7961 55.7542 26.7084 55.7633 26.6317 55.7537L26.6008 55.7498H26.5697H15.4497C15.1658 55.7498 14.9297 55.5137 14.9297 55.2298V42.9898C14.9297 42.7059 15.1658 42.4698 15.4497 42.4698H25.9597H26.1842L26.3334 42.302C26.3614 42.2705 26.402 42.2398 26.4566 42.215L26.4589 42.2139C27.3365 41.8097 28.0976 41.5125 28.7689 41.3328L29.0813 41.2492L29.1332 40.93C29.4872 38.7516 31.277 37.0343 33.52 36.8073L33.9661 36.7621L33.9697 36.3138C33.9977 32.7801 36.6348 29.7238 40.2227 29.2658C44.2228 28.7614 47.831 31.649 48.2423 35.6411L48.3055 36.2538L48.8921 36.066C52.8441 34.801 56.8444 37.8016 56.7797 41.9219L56.7729 42.3611L57.2075 42.4246C58.9774 42.6829 60.4073 43.6249 60.521 45.1764ZM34.5017 37.8537L33.9397 37.7834V37.8418C33.2056 37.8757 32.5094 38.1473 31.9336 38.5238C31.2162 38.9929 30.6288 39.6616 30.3632 40.3498L30.0856 41.0691L30.8556 41.0291C33.5015 40.8919 37.5758 41.286 40.811 42.2202L40.8119 42.2204C44.1367 43.1732 45.9167 44.4731 46.449 45.9585L46.4868 46.064L46.5188 46.096L46.7519 46.562L47.2267 46.2293C49.4444 44.6749 52.7628 42.9036 55.3361 42.4523L55.7372 42.3819L55.7495 41.9748C55.8718 37.9033 51.3479 35.4542 48.0059 37.6414L48.0023 37.6438C47.6434 37.8831 47.1494 37.5831 47.2056 37.1432L47.2057 37.1425C47.7067 33.178 44.3205 29.8027 40.3668 30.3038L40.3667 30.3038C37.0339 30.7272 34.664 33.7689 35.0697 37.1008V37.1008V37.1009V37.101V37.1011V37.1012V37.1013V37.1014V37.1015V37.1015V37.1016V37.1017V37.1018V37.1019V37.102V37.1021V37.1022V37.1023V37.1024V37.1025V37.1025V37.1026V37.1027V37.1028V37.1029V37.103V37.1031V37.1032V37.1033V37.1034V37.1035V37.1036V37.1036V37.1037V37.1038V37.1039V37.104V37.1041V37.1042V37.1043V37.1044V37.1045V37.1046V37.1047V37.1048V37.1049V37.1049V37.105V37.1051V37.1052V37.1053V37.1054V37.1055V37.1056V37.1057V37.1058V37.1059V37.106V37.1061V37.1062V37.1063V37.1064V37.1065V37.1066V37.1066V37.1067V37.1068V37.1069V37.107V37.1071V37.1072V37.1073V37.1074V37.1075V37.1076V37.1077V37.1078V37.1079V37.108V37.1081V37.1082V37.1083V37.1084V37.1085V37.1086V37.1087V37.1088V37.1089V37.109V37.1091V37.1092V37.1093V37.1094V37.1095V37.1096V37.1097V37.1098V37.1099V37.11V37.1101V37.1102V37.1103V37.1104V37.1105V37.1106V37.1107V37.1108V37.1109V37.111V37.1111V37.1112V37.1113V37.1114V37.1115V37.1116V37.1117V37.1118V37.1119V37.112V37.1121V37.1122V37.1123V37.1124V37.1125V37.1126V37.1127V37.1128V37.1129V37.113V37.1131V37.1133V37.1134V37.1135V37.1136V37.1137V37.1138V37.1139V37.114V37.1141V37.1142V37.1143V37.1144V37.1145V37.1146V37.1147V37.1149V37.115V37.1151V37.1152V37.1153V37.1154V37.1155V37.1156V37.1157V37.1158V37.1159V37.116V37.1162V37.1163V37.1164V37.1165V37.1166V37.1167V37.1168V37.1169V37.117V37.1172V37.1173V37.1174V37.1175V37.1176V37.1177V37.1178V37.118V37.1181V37.1182V37.1183V37.1184V37.1185V37.1186V37.1188V37.1189V37.119V37.1191V37.1192V37.1193V37.1194V37.1196V37.1197V37.1198C35.0697 37.1481 35.0722 37.1704 35.0729 37.1767C35.0739 37.1861 35.0751 37.1938 35.0757 37.1979C35.0768 37.2056 35.0781 37.2126 35.0786 37.2154L35.0786 37.2156L35.0815 37.2321C35.0831 37.2414 35.0849 37.2535 35.0865 37.2685C35.0898 37.2992 35.0918 37.3415 35.0871 37.3898C35.078 37.4825 35.0454 37.5934 34.9439 37.6984C34.8199 37.8212 34.6629 37.8738 34.5017 37.8537ZM16.4697 43.5098H15.9697V44.0098V54.2098V54.7098H16.4697H25.6497H26.1497V54.2098V44.0098V43.5098H25.6497H16.4697Z" fill="white" stroke="#00B9E4"/>
<path d="M30.2496 26.6696C30.2496 28.0835 29.1035 29.2296 27.6896 29.2296C26.2758 29.2296 25.1296 28.0835 25.1296 26.6696C25.1296 25.2558 26.2758 24.1096 27.6896 24.1096C29.1035 24.1096 30.2496 25.2558 30.2496 26.6696ZM29.2096 26.6696C29.2096 25.8335 28.5258 25.1496 27.6896 25.1496C26.8535 25.1496 26.1696 25.8335 26.1696 26.6696C26.1696 27.5058 26.8535 28.1896 27.6896 28.1896C28.5258 28.1896 29.2096 27.5058 29.2096 26.6696Z" fill="black" stroke="#00B9E4"/>
<path d="M57.7996 21.5697C57.7996 24.1036 55.7335 26.1697 53.1996 26.1697C50.6658 26.1697 48.5996 24.1036 48.5996 21.5697C48.5996 19.0359 50.6658 16.9697 53.1996 16.9697C55.7335 16.9697 57.7996 19.0359 57.7996 21.5697ZM56.7596 21.5697C56.7596 19.6036 55.1658 18.0097 53.1996 18.0097C51.2335 18.0097 49.6396 19.6036 49.6396 21.5697C49.6396 23.5359 51.2335 25.1297 53.1996 25.1297C55.1658 25.1297 56.7596 23.5359 56.7596 21.5697Z" fill="black" stroke="#00B9E4"/>
<path d="M41.4696 21.0598C41.4696 22.7536 40.0934 24.1298 38.3996 24.1298C36.7057 24.1298 35.3296 22.7536 35.3296 21.0598C35.3296 19.3659 36.7057 17.9897 38.3996 17.9897C40.0934 17.9897 41.4696 19.3659 41.4696 21.0598ZM40.4296 21.0598C40.4296 19.9436 39.5157 19.0298 38.3996 19.0298C37.2834 19.0298 36.3696 19.9436 36.3696 21.0598C36.3696 22.1759 37.2834 23.0898 38.3996 23.0898C39.5157 23.0898 40.4296 22.1759 40.4296 21.0598Z" fill="black" stroke="#00B9E4"/>
</svg>
