<svg width="42" height="42" viewBox="0 0 42 42" fill="none" xmlns="http://www.w3.org/2000/svg">
<g clip-path="url(#clip0_119_621)">
<path d="M37.6429 8.22006C37.6219 8.18815 37.5981 8.15797 37.5721 8.13C33.602 3.00183 27.4817 0 20.9963 0C14.5109 0 8.39055 3.00183 4.42038 8.13C4.39429 8.15797 4.37059 8.18815 4.34951 8.22006C-1.23113 15.4888 -1.45211 25.5376 3.80344 33.0447C9.059 40.5519 18.5767 43.7827 27.3163 41.0263C36.056 38.2699 41.9979 30.1632 41.9955 20.9993C41.9992 16.3752 40.4683 11.8806 37.6429 8.22006ZM5.59683 8.89704C9.30582 4.16515 14.984 1.4008 20.9963 1.3999C27.0085 1.4008 32.6867 4.16515 36.3957 8.89704V26.599C36.3953 26.9854 36.0822 27.2986 35.6957 27.299H6.29678C5.91034 27.2985 5.59716 26.9854 5.59683 26.599V8.89704ZM20.9963 40.5985C13.934 40.602 7.41663 36.8039 3.93813 30.6578C0.459639 24.5116 0.558401 16.969 4.19685 10.9161V26.599C4.19808 27.7582 5.13755 28.6977 6.29678 28.6989H35.6957C36.855 28.6977 37.7944 27.7582 37.7957 26.599V10.9161C41.4341 16.969 41.533 24.5116 38.0544 30.6578C34.5758 36.8039 28.0585 40.602 20.9963 40.5985Z" fill="#0B0E44"/>
<path d="M9.7976 18.8989H32.1968C32.5834 18.8989 32.8968 18.5856 32.8968 18.199C32.8968 17.8124 32.5834 17.499 32.1968 17.499H9.7976C9.41101 17.499 9.09766 17.8124 9.09766 18.199C9.09766 18.5856 9.41101 18.8989 9.7976 18.8989Z" fill="#0B0E44"/>
<path d="M9.7976 16.0991H32.1968C32.5834 16.0991 32.8968 15.7858 32.8968 15.3992C32.8968 15.0126 32.5834 14.6992 32.1968 14.6992H9.7976C9.41101 14.6992 9.09766 15.0126 9.09766 15.3992C9.09766 15.7858 9.41101 16.0991 9.7976 16.0991Z" fill="#0B0E44"/>
<path d="M9.7976 13.2993H32.1968C32.5834 13.2993 32.8968 12.9859 32.8968 12.5994C32.8968 12.2128 32.5834 11.8994 32.1968 11.8994H9.7976C9.411 11.8994 9.09766 12.2128 9.09766 12.5994C9.09757 12.986 9.411 13.2993 9.7976 13.2993Z" fill="#0B0E44"/>
<path d="M9.7976 10.4995H32.1968C32.5834 10.4995 32.8968 10.1862 32.8968 9.79956C32.8968 9.41296 32.5834 9.09961 32.1968 9.09961H9.7976C9.41101 9.09961 9.09766 9.41296 9.09766 9.79956C9.09766 10.1862 9.41101 10.4995 9.7976 10.4995Z" fill="#0B0E44"/>
<path d="M9.7976 7.6997H32.1968C32.5834 7.6997 32.8968 7.38627 32.8968 6.99975C32.8968 6.61323 32.5834 6.2998 32.1968 6.2998H9.7976C9.41101 6.2998 9.09766 6.61315 9.09766 6.99975C9.09766 7.38635 9.41101 7.6997 9.7976 7.6997Z" fill="#0B0E44"/>
<path d="M27.7799 22.4662C25.5924 23.2261 23.3091 23.6748 20.9968 23.7992C20.237 23.7992 19.5917 23.7691 19.0448 23.7192C19.101 23.6606 19.1539 23.5993 19.2037 23.5353C19.6314 22.984 19.7694 22.2613 19.5749 21.5912C19.454 21.1348 19.1558 20.7456 18.7464 20.5101C18.3371 20.2747 17.8508 20.2125 17.3953 20.3376C16.0969 20.5563 14.7222 21.6589 14.8255 22.8913C14.8489 23.1957 14.9596 23.4869 15.144 23.7301C14.763 23.7736 14.3801 23.7967 13.9967 23.7992C13.6101 23.7992 13.2968 24.1128 13.2969 24.4993C13.297 24.8859 13.6105 25.1991 13.997 25.1991C15.02 25.1919 16.0382 25.0566 17.0276 24.7965C18.3282 25.0982 19.662 25.2335 20.9968 25.1991C23.4572 25.0824 25.8879 24.6103 28.2132 23.7977C28.581 23.678 28.782 23.2829 28.6623 22.9152C28.5427 22.5476 28.1475 22.3465 27.7799 22.4662ZM18.0985 22.676C17.806 22.989 17.4334 23.2163 17.0212 23.3329C16.4327 23.1237 16.231 22.8968 16.2208 22.7745C16.1951 22.4703 16.8674 21.8461 17.6282 21.7183C17.7006 21.7055 17.7738 21.6986 17.8473 21.6978C18.157 21.6978 18.1977 21.8557 18.2188 21.9384C18.3075 22.1888 18.2621 22.467 18.0985 22.676Z" fill="#0B0E44"/>
</g>
<defs>
<clipPath id="clip0_119_621">
<rect width="42" height="42" fill="white"/>
</clipPath>
</defs>
</svg>
