<svg width="38" height="38" viewBox="0 0 38 38" fill="none" xmlns="http://www.w3.org/2000/svg">
<g clip-path="url(#clip0_119_636)">
<path d="M1.26667 31.0331V31.6664C1.26765 32.4714 1.77479 33.1887 2.53333 33.4581V33.5664C2.53333 34.6157 3.38399 35.4664 4.43333 35.4664H5.13C5.42969 36.9423 6.72734 38.0029 8.23333 38.0029C9.73932 38.0029 11.037 36.9423 11.3367 35.4664H18.43C18.7297 36.9423 20.0273 38.0029 21.5333 38.0029C23.0393 38.0029 24.337 36.9423 24.6367 35.4664H25.3333C26.3827 35.4664 27.2333 34.6157 27.2333 33.5664V25.7815C27.2328 25.3882 27.1413 25.0005 26.9661 24.6484L25.1585 21.0334C24.7319 20.1728 23.853 19.6297 22.8925 19.6331H20.2667V15.8331C20.2667 15.1335 19.6996 14.5664 19 14.5664H1.26667C0.567106 14.5664 0 15.1335 0 15.8331V29.7664C0 30.466 0.567106 31.0331 1.26667 31.0331ZM8.23333 36.7331C7.18399 36.7331 6.33333 35.8824 6.33333 34.8331C6.33333 33.7837 7.18399 32.9331 8.23333 32.9331C9.28267 32.9331 10.1333 33.7837 10.1333 34.8331C10.1333 35.8824 9.28267 36.7331 8.23333 36.7331ZM21.5333 36.7331C20.484 36.7331 19.6333 35.8824 19.6333 34.8331C19.6333 33.7837 20.484 32.9331 21.5333 32.9331C22.5827 32.9331 23.4333 33.7837 23.4333 34.8331C23.4333 35.8824 22.5827 36.7331 21.5333 36.7331ZM25.3333 34.1997H24.6367C24.337 32.7239 23.0393 31.6632 21.5333 31.6632C20.0273 31.6632 18.7297 32.7239 18.43 34.1997H11.3367C11.037 32.7239 9.73932 31.6632 8.23333 31.6632C6.72734 31.6632 5.42969 32.7239 5.13 34.1997H4.43333C4.08355 34.1997 3.8 33.9162 3.8 33.5664V32.9331C3.8 32.5833 3.51645 32.2997 3.16667 32.2997C2.81689 32.2997 2.53333 32.0162 2.53333 31.6664V31.0331H19C19.6996 31.0331 20.2667 30.466 20.2667 29.7664V26.5997H25.9667V27.8664H24.7C23.6507 27.8664 22.8 28.7171 22.8 29.7664C22.8 30.8157 23.6507 31.6664 24.7 31.6664H25.9667V33.5664C25.9667 33.7344 25.8999 33.8955 25.7812 34.0142C25.6624 34.133 25.5013 34.1997 25.3333 34.1997ZM25.9667 30.3997H24.7C24.3502 30.3997 24.0667 30.1162 24.0667 29.7664C24.0667 29.4166 24.3502 29.1331 24.7 29.1331H25.9667V30.3997ZM22.8925 20.8997C23.372 20.8974 23.8112 21.1675 24.0255 21.5964L25.833 25.2115C25.8493 25.2501 25.8635 25.2897 25.8755 25.3299H20.2667V20.8997H22.8925ZM1.26667 15.8331H19V29.7664H1.26667V15.8331Z" fill="#0B0E44"/>
<path d="M3.16849 20.8996C3.51827 20.8996 3.80182 20.6161 3.80182 20.2663V18.3663H5.70182C6.0516 18.3663 6.33516 18.0827 6.33516 17.7329C6.33516 17.3832 6.0516 17.0996 5.70182 17.0996H3.16849C2.81871 17.0996 2.53516 17.3832 2.53516 17.7329V20.2663C2.53516 20.6161 2.81871 20.8996 3.16849 20.8996Z" fill="#0B0E44"/>
<path d="M8.2349 35.4669C8.58468 35.4669 8.86823 35.1833 8.86823 34.8335C8.86823 34.4837 8.58468 34.2002 8.2349 34.2002C7.88512 34.2002 7.60156 34.4837 7.60156 34.8335C7.60156 35.1833 7.88512 35.4669 8.2349 35.4669Z" fill="#0B0E44"/>
<path d="M21.5318 35.4669C21.8816 35.4669 22.1651 35.1833 22.1651 34.8335C22.1651 34.4837 21.8816 34.2002 21.5318 34.2002C21.182 34.2002 20.8984 34.4837 20.8984 34.8335C20.8984 35.1833 21.182 35.4669 21.5318 35.4669Z" fill="#0B0E44"/>
<path d="M26.5992 1.24124e-05C20.3062 0.00734143 15.2066 5.107 15.1992 11.4C15.1988 11.8492 15.2258 12.298 15.2803 12.7439C15.3011 12.9742 15.4456 13.1748 15.6574 13.2674C15.8692 13.36 16.1147 13.3298 16.2978 13.1886C16.4808 13.0475 16.5725 12.8178 16.5368 12.5894C16.4892 12.1947 16.4655 11.7975 16.4659 11.4C16.4668 5.95262 20.7742 1.48061 26.2177 1.27551C31.6612 1.07041 36.2929 5.20561 36.7037 10.6375C37.1145 16.0694 33.1574 20.8541 27.7449 21.47C27.4106 21.5068 27.1633 21.7986 27.1818 22.1344C27.2004 22.4703 27.4782 22.7331 27.8146 22.7329C27.8383 22.7329 27.862 22.7316 27.8855 22.7291C33.9001 22.055 38.3396 16.7985 37.9977 10.7559C37.6557 4.71329 32.6515 -0.00883514 26.5992 1.24124e-05Z" fill="#0B0E44"/>
<path d="M26.5982 3.16699C26.2484 3.16699 25.9648 3.45055 25.9648 3.80033V11.4003C25.9649 11.5683 26.0316 11.7293 26.1504 11.8481L30.5837 16.2814C30.8322 16.5214 31.2273 16.518 31.4716 16.2737C31.7159 16.0294 31.7193 15.6344 31.4793 15.3859L27.2315 11.1381V3.80033C27.2315 3.45055 26.948 3.16699 26.5982 3.16699Z" fill="#0B0E44"/>
</g>
<defs>
<clipPath id="clip0_119_636">
<rect width="38" height="38" fill="white"/>
</clipPath>
</defs>
</svg>
