<svg width="39" height="39" viewBox="0 0 39 39" fill="none" xmlns="http://www.w3.org/2000/svg">
<path d="M29.25 2.59961C26.665 2.60254 24.1868 3.6307 22.3589 5.45855C20.5311 7.2864 19.5029 9.76465 19.5 12.3496C19.5 12.5693 19.5189 12.7838 19.5332 12.9996H3.25C2.38836 13.0006 1.56231 13.3434 0.953043 13.9527C0.343773 14.5619 0.00103211 15.388 0 16.2496L0 33.1496C0.00103211 34.0112 0.343773 34.8373 0.953043 35.4466C1.56231 36.0558 2.38836 36.3986 3.25 36.3996H29.25C30.1116 36.3986 30.9377 36.0558 31.547 35.4466C32.1562 34.8373 32.499 34.0112 32.5 33.1496V21.5309C34.6682 20.7654 36.4959 19.2578 37.6597 17.2747C38.8235 15.2916 39.2485 12.9608 38.8594 10.6945C38.4704 8.42829 37.2924 6.37267 35.5338 4.89126C33.7752 3.40985 31.5494 2.5981 29.25 2.59961ZM19.695 14.2996C20.18 16.6438 21.5097 18.7279 23.4312 20.1555L17.1093 25.6844C16.8718 25.8938 16.566 26.0094 16.2494 26.0094C15.9327 26.0094 15.6269 25.8938 15.3894 25.6844L2.535 14.4394C2.76235 14.348 3.00497 14.3006 3.25 14.2996H19.695ZM1.5535 34.0915C1.38945 33.8045 1.30214 33.4801 1.3 33.1496V16.2496C1.30214 15.9191 1.38945 15.5947 1.5535 15.3078L12.2909 24.6996L1.5535 34.0915ZM3.25 35.0996C3.00497 35.0987 2.76233 35.0513 2.535 34.9599L13.2776 25.5648L14.5366 26.6659C15.0103 27.0827 15.6197 27.3126 16.2507 27.3126C16.8816 27.3126 17.491 27.0827 17.9647 26.6659L19.2225 25.5661L29.965 34.9599C29.7377 35.0513 29.495 35.0987 29.25 35.0996H3.25ZM31.2 33.1496C31.1979 33.4801 31.1106 33.8045 30.9465 34.0915L20.2098 24.6996L24.5648 20.8926C25.9993 21.6848 27.6113 22.1001 29.25 22.0996C29.9049 22.1 30.5582 22.0347 31.2 21.9046V33.1496ZM29.25 20.7996C27.5787 20.7996 25.945 20.304 24.5554 19.3755C23.1658 18.447 22.0828 17.1273 21.4432 15.5833C20.8037 14.0393 20.6363 12.3402 20.9624 10.7011C21.2884 9.06196 22.0932 7.55631 23.275 6.37456C24.4567 5.19281 25.9623 4.38802 27.6015 4.06198C29.2406 3.73593 30.9396 3.90327 32.4837 4.54283C34.0277 5.18239 35.3474 6.26545 36.2759 7.65504C37.2044 9.04464 37.7 10.6784 37.7 12.3496C37.6974 14.5899 36.8063 16.7377 35.2222 18.3218C33.6381 19.9059 31.4903 20.797 29.25 20.7996Z" fill="#0B0E44"/>
<path d="M29.2508 15.5996C28.8651 15.5996 28.4881 15.714 28.1674 15.9282C27.8467 16.1425 27.5968 16.4471 27.4492 16.8034C27.3016 17.1597 27.263 17.5518 27.3383 17.93C27.4135 18.3083 27.5992 18.6558 27.8719 18.9285C28.1446 19.2012 28.4921 19.3869 28.8704 19.4621C29.2486 19.5374 29.6407 19.4988 29.997 19.3512C30.3533 19.2036 30.6579 18.9536 30.8721 18.633C31.0864 18.3123 31.2008 17.9353 31.2008 17.5496C31.2008 17.0324 30.9953 16.5364 30.6296 16.1708C30.2639 15.8051 29.768 15.5996 29.2508 15.5996ZM29.2508 18.1996C29.1222 18.1996 28.9966 18.1615 28.8897 18.0901C28.7828 18.0186 28.6995 17.9171 28.6503 17.7984C28.6011 17.6796 28.5882 17.5489 28.6133 17.4228C28.6384 17.2967 28.7003 17.1809 28.7912 17.09C28.8821 16.9991 28.9979 16.9372 29.124 16.9121C29.2501 16.887 29.3808 16.8999 29.4995 16.9491C29.6183 16.9983 29.7198 17.0816 29.7912 17.1885C29.8627 17.2954 29.9008 17.4211 29.9008 17.5496C29.9008 17.722 29.8323 17.8873 29.7104 18.0092C29.5885 18.1311 29.4232 18.1996 29.2508 18.1996Z" fill="#0B0E44"/>
<path d="M29.2484 5.2002C28.5589 5.2002 27.8976 5.47412 27.41 5.96172C26.9224 6.44931 26.6484 7.11063 26.6484 7.8002C26.6484 7.8652 27.2113 14.3002 29.2484 14.3002C31.2855 14.3002 31.8484 7.8652 31.8484 7.8002C31.8484 7.11063 31.5745 6.44931 31.0869 5.96172C30.5993 5.47412 29.938 5.2002 29.2484 5.2002ZM29.2484 12.915C28.6927 12.2 27.9484 8.96565 27.9484 7.8002C27.9484 7.45541 28.0854 7.12475 28.3292 6.88096C28.573 6.63716 28.9037 6.5002 29.2484 6.5002C29.5932 6.5002 29.9239 6.63716 30.1677 6.88096C30.4115 7.12475 30.5484 7.45541 30.5484 7.8002C30.5484 8.96565 29.8042 12.2 29.2484 12.915Z" fill="#0B0E44"/>
</svg>
