<svg width="36" height="36" viewBox="0 0 36 36" fill="none" xmlns="http://www.w3.org/2000/svg">
<g clip-path="url(#clip0_119_614)">
<path d="M35.9984 13.1194C35.9099 12.8185 35.9984 12.9483 31.2771 9.48404V5.0165C31.2771 4.03868 30.4844 3.24601 29.5066 3.24601H22.8672L19.3558 0.649285C18.7251 0.174197 17.856 0.174197 17.2253 0.649285L13.7197 3.24601H7.08036C6.10255 3.24601 5.30987 4.03868 5.30987 5.0165V9.48404C0.547249 13.025 0.753806 12.8244 0.65938 13.025C0.564954 13.2257 0.58856 12.0985 0.58856 33.3444C0.58856 34.6481 1.64546 35.705 2.94922 35.705H33.6377C34.9415 35.705 35.9984 34.6481 35.9984 33.3444C35.9984 11.9332 35.9984 13.2788 35.9984 13.1194ZM34.7059 33.846L21.9938 24.1968L34.8181 14.4591C34.8181 35.0735 34.8712 33.4919 34.7059 33.846ZM34.4227 13.2788L31.2771 15.6394V10.9181L34.4227 13.2788ZM17.9276 1.59945C18.1409 1.43304 18.4401 1.43304 18.6535 1.59945L20.8843 3.24601H15.7027L17.9276 1.59945ZM7.08036 4.42633H29.5066C29.8325 4.42633 30.0968 4.69056 30.0968 5.0165V16.566L19.0076 24.9817C18.5855 25.3024 18.0014 25.3024 17.5794 24.9817L6.4902 16.566V5.0165C6.4902 4.69056 6.75442 4.42633 7.08036 4.42633ZM1.88102 33.846C1.72168 33.5037 1.76889 35.1444 1.76889 14.4591L14.5931 24.1968L1.88102 33.846ZM5.30987 15.669L2.1643 13.2788L5.30987 10.9181V15.669ZM2.94922 34.5247C2.8902 34.5247 2.70725 34.7017 15.5728 24.9404L16.8653 25.9201C17.7094 26.5615 18.8776 26.5615 19.7217 25.9201L21.0141 24.9404C33.8797 34.7017 33.6968 34.5247 33.6377 34.5247H2.94922Z" fill="#0B0E44"/>
</g>
<defs>
<clipPath id="clip0_119_614">
<rect width="36" height="36" fill="white"/>
</clipPath>
</defs>
</svg>
